EncodeSansExpanded-Black.ufo
<glyph name="quotedbl" format="2">
  <advance width="1130.0"/>
  <unicode hex="0022"/>
  <outline>
    <contour>
      <point x="150.0" y="784.0" type="line"/>
      <point x="430.0" y="784.0" type="line"/>
      <point x="510.0" y="1616.0" type="line"/>
      <point x="70.0" y="1616.0" type="line"/>
    </contour>
    <contour>
      <point x="700.0" y="784.0" type="line"/>
      <point x="980.0" y="784.0" type="line"/>
      <point x="1060.0" y="1616.0" type="line"/>
      <point x="620.0" y="1616.0" type="line"/>
    </contour>
  </outline>
</glyph>
<glyph name="percent" format="2">
  <advance width="2520.0"/>
  <unicode hex="0025"/>
  <note>
450
</note>
  <outline>
    <contour>
      <point x="710.0" y="0.0" type="line"/>
      <point x="1088.0" y="0.0" type="line"/>
      <point x="1810.0" y="1480.0" type="line"/>
      <point x="1432.0" y="1480.0" type="line"/>
    </contour>
    <contour>
      <point x="574.0" y="566.0" type="curve" smooth="yes"/>
      <point x="860.0" y="566.0"/>
      <point x="1058.0" y="740.0"/>
      <point x="1058.0" y="1032.0" type="curve" smooth="yes"/>
      <point x="1058.0" y="1324.0"/>
      <point x="860.0" y="1500.0"/>
      <point x="574.0" y="1500.0" type="curve" smooth="yes"/>
      <point x="288.0" y="1500.0"/>
      <point x="90.0" y="1324.0"/>
      <point x="90.0" y="1032.0" type="curve" smooth="yes"/>
      <point x="90.0" y="740.0"/>
      <point x="288.0" y="566.0"/>
    </contour>
    <contour>
      <point x="574.0" y="838.0" type="curve" smooth="yes"/>
      <point x="498.0" y="838.0"/>
      <point x="440.0" y="894.0"/>
      <point x="440.0" y="1032.0" type="curve" smooth="yes"/>
      <point x="440.0" y="1170.0"/>
      <point x="498.0" y="1228.0"/>
      <point x="574.0" y="1228.0" type="curve" smooth="yes"/>
      <point x="650.0" y="1228.0"/>
      <point x="708.0" y="1170.0"/>
      <point x="708.0" y="1032.0" type="curve" smooth="yes"/>
      <point x="708.0" y="894.0"/>
      <point x="650.0" y="838.0"/>
    </contour>
    <contour>
      <point x="1946.0" y="-18.0" type="curve" smooth="yes"/>
      <point x="2232.0" y="-18.0"/>
      <point x="2430.0" y="156.0"/>
      <point x="2430.0" y="448.0" type="curve" smooth="yes"/>
      <point x="2430.0" y="740.0"/>
      <point x="2232.0" y="916.0"/>
      <point x="1946.0" y="916.0" type="curve" smooth="yes"/>
      <point x="1660.0" y="916.0"/>
      <point x="1462.0" y="740.0"/>
      <point x="1462.0" y="448.0" type="curve" smooth="yes"/>
      <point x="1462.0" y="156.0"/>
      <point x="1660.0" y="-18.0"/>
    </contour>
    <contour>
      <point x="1946.0" y="254.0" type="curve" smooth="yes"/>
      <point x="1870.0" y="254.0"/>
      <point x="1812.0" y="310.0"/>
      <point x="1812.0" y="448.0" type="curve" smooth="yes"/>
      <point x="1812.0" y="586.0"/>
      <point x="1870.0" y="644.0"/>
      <point x="1946.0" y="644.0" type="curve" smooth="yes"/>
      <point x="2022.0" y="644.0"/>
      <point x="2080.0" y="586.0"/>
      <point x="2080.0" y="448.0" type="curve" smooth="yes"/>
      <point x="2080.0" y="310.0"/>
      <point x="2022.0" y="254.0"/>
    </contour>
  </outline>
</glyph>
<glyph name="asterisk" format="2">
  <advance width="1116.0"/>
  <unicode hex="002A"/>
  <outline>
    <contour>
      <point x="734.0" y="1106.0" type="line"/>
      <point x="900.0" y="1120.0" type="line"/>
      <point x="1086.0" y="1180.0" type="line"/>
      <point x="998.0" y="1450.0" type="line"/>
      <point x="812.0" y="1390.0" type="line"/>
      <point x="658.0" y="1294.0" type="line"/>
      <point x="700.0" y="1472.0" type="line"/>
      <point x="700.0" y="1616.0" type="line"/>
      <point x="416.0" y="1616.0" type="line"/>
      <point x="416.0" y="1472.0" type="line"/>
      <point x="458.0" y="1294.0" type="line"/>
      <point x="304.0" y="1390.0" type="line"/>
      <point x="118.0" y="1450.0" type="line"/>
      <point x="30.0" y="1180.0" type="line"/>
      <point x="216.0" y="1120.0" type="line"/>
      <point x="382.0" y="1106.0" type="line"/>
      <point x="250.0" y="992.0" type="line"/>
      <point x="162.0" y="868.0" type="line"/>
      <point x="392.0" y="702.0" type="line"/>
      <point x="480.0" y="824.0" type="line"/>
      <point x="558.0" y="1012.0" type="line"/>
      <point x="636.0" y="824.0" type="line"/>
      <point x="724.0" y="702.0" type="line"/>
      <point x="954.0" y="868.0" type="line"/>
      <point x="866.0" y="992.0" type="line"/>
    </contour>
  </outline>
</glyph>
<glyph name="hyphen" format="2">
  <advance width="1150.0"/>
  <unicode hex="002D"/>
  <outline>
    <contour>
      <point x="114.0" y="384.0" type="line"/>
      <point x="1036.0" y="384.0" type="line"/>
      <point x="1036.0" y="756.0" type="line"/>
      <point x="114.0" y="756.0" type="line"/>
    </contour>
  </outline>
</glyph>
<glyph name="period" format="2">
  <advance width="696.0"/>
  <unicode hex="002E"/>
  <outline>
    <contour>
      <point x="348.0" y="-20.0" type="curve" smooth="yes"/>
      <point x="530.0" y="-20.0"/>
      <point x="638.0" y="82.0"/>
      <point x="638.0" y="236.0" type="curve" smooth="yes"/>
      <point x="638.0" y="390.0"/>
      <point x="534.0" y="492.0"/>
      <point x="348.0" y="492.0" type="curve" smooth="yes"/>
      <point x="162.0" y="492.0"/>
      <point x="58.0" y="394.0"/>
      <point x="58.0" y="236.0" type="curve" smooth="yes"/>
      <point x="58.0" y="78.0"/>
      <point x="166.0" y="-20.0"/>
    </contour>
  </outline>
</glyph>
<glyph name="four" format="2">
  <advance width="1492.0"/>
  <unicode hex="0034"/>
  <outline>
    <contour>
      <point x="34.0" y="256.0" type="line"/>
      <point x="1460.0" y="256.0" type="line"/>
      <point x="1460.0" y="616.0" type="line"/>
      <point x="456.0" y="616.0" type="line"/>
      <point x="492.0" y="506.0" type="line"/>
      <point x="1010.0" y="1480.0" type="line"/>
      <point x="556.0" y="1480.0" type="line"/>
      <point x="34.0" y="506.0" type="line"/>
    </contour>
    <contour>
      <point x="836.0" y="0.0" type="line"/>
      <point x="1262.0" y="0.0" type="line"/>
      <point x="1262.0" y="980.0" type="line"/>
      <point x="876.0" y="980.0" type="line"/>
      <point x="836.0" y="616.0" type="line"/>
    </contour>
  </outline>
</glyph>
<glyph name="five" format="2">
  <advance width="1302.0"/>
  <unicode hex="0035"/>
  <outline>
    <contour>
      <point x="554.0" y="-20.0" type="curve" smooth="yes"/>
      <point x="1030.0" y="-20.0"/>
      <point x="1244.0" y="156.0"/>
      <point x="1246.0" y="458.0" type="curve" smooth="yes"/>
      <point x="1248.0" y="746.0"/>
      <point x="1054.0" y="910.0"/>
      <point x="516.0" y="934.0" type="curve" smooth="yes"/>
      <point x="256.0" y="946.0" type="line"/>
      <point x="576.0" y="794.0" type="line"/>
      <point x="616.0" y="1340.0" type="line"/>
      <point x="418.0" y="1144.0" type="line"/>
      <point x="1180.0" y="1144.0" type="line"/>
      <point x="1180.0" y="1480.0" type="line"/>
      <point x="182.0" y="1480.0" type="line"/>
      <point x="124.0" y="622.0" type="line"/>
      <point x="384.0" y="610.0" type="line" smooth="yes"/>
      <point x="738.0" y="592.0"/>
      <point x="806.0" y="544.0"/>
      <point x="806.0" y="454.0" type="curve" smooth="yes"/>
      <point x="806.0" y="370.0"/>
      <point x="732.0" y="316.0"/>
      <point x="526.0" y="316.0" type="curve" smooth="yes"/>
      <point x="370.0" y="316.0"/>
      <point x="204.0" y="342.0"/>
      <point x="78.0" y="372.0" type="curve"/>
      <point x="78.0" y="42.0" type="line"/>
      <point x="214.0" y="6.0"/>
      <point x="374.0" y="-20.0"/>
    </contour>
  </outline>
</glyph>
<glyph name="six" format="2">
  <advance width="1472.0"/>
  <unicode hex="0036"/>
  <outline>
    <contour>
      <point x="794.0" y="-20.0" type="curve" smooth="yes"/>
      <point x="1196.0" y="-20.0"/>
      <point x="1410.0" y="178.0"/>
      <point x="1410.0" y="458.0" type="curve" smooth="yes"/>
      <point x="1410.0" y="782.0"/>
      <point x="1192.0" y="920.0"/>
      <point x="876.0" y="920.0" type="curve" smooth="yes"/>
      <point x="732.0" y="920.0"/>
      <point x="578.0" y="880.0"/>
      <point x="496.0" y="818.0" type="curve"/>
      <point x="496.0" y="524.0" type="line"/>
      <point x="580.0" y="576.0"/>
      <point x="676.0" y="604.0"/>
      <point x="778.0" y="604.0" type="curve" smooth="yes"/>
      <point x="908.0" y="604.0"/>
      <point x="986.0" y="556.0"/>
      <point x="986.0" y="448.0" type="curve" smooth="yes"/>
      <point x="986.0" y="350.0"/>
      <point x="916.0" y="296.0"/>
      <point x="794.0" y="296.0" type="curve" smooth="yes"/>
      <point x="648.0" y="296.0"/>
      <point x="560.0" y="370.0"/>
      <point x="560.0" y="616.0" type="curve" smooth="yes"/>
      <point x="560.0" y="822.0" type="line" smooth="yes"/>
      <point x="560.0" y="1028.0"/>
      <point x="684.0" y="1164.0"/>
      <point x="976.0" y="1164.0" type="curve" smooth="yes"/>
      <point x="1090.0" y="1164.0"/>
      <point x="1218.0" y="1144.0"/>
      <point x="1322.0" y="1106.0" type="curve"/>
      <point x="1322.0" y="1444.0" type="line"/>
      <point x="1206.0" y="1486.0"/>
      <point x="1088.0" y="1500.0"/>
      <point x="942.0" y="1500.0" type="curve" smooth="yes"/>
      <point x="390.0" y="1500.0"/>
      <point x="104.0" y="1200.0"/>
      <point x="104.0" y="682.0" type="curve" smooth="yes"/>
      <point x="104.0" y="218.0"/>
      <point x="382.0" y="-20.0"/>
    </contour>
  </outline>
</glyph>
<glyph name="seven" format="2">
  <advance width="1224.0"/>
  <unicode hex="0037"/>
  <outline>
    <contour>
      <point x="202.0" y="0.0" type="line"/>
      <point x="684.0" y="0.0" type="line"/>
      <point x="1166.0" y="1238.0" type="line"/>
      <point x="1166.0" y="1480.0" type="line"/>
      <point x="12.0" y="1480.0" type="line"/>
      <point x="12.0" y="1112.0" type="line"/>
      <point x="872.0" y="1112.0" type="line"/>
      <point x="720.0" y="1238.0" type="line"/>
    </contour>
  </outline>
</glyph>
<glyph name="eight" format="2">
  <advance width="1574.0"/>
  <unicode hex="0038"/>
  <outline>
    <contour>
      <point x="788.0" y="-20.0" type="curve" smooth="yes"/>
      <point x="1288.0" y="-20.0"/>
      <point x="1486.0" y="192.0"/>
      <point x="1486.0" y="432.0" type="curve" smooth="yes"/>
      <point x="1486.0" y="646.0"/>
      <point x="1364.0" y="796.0"/>
      <point x="930.0" y="894.0" type="curve" smooth="yes"/>
      <point x="610.0" y="966.0"/>
      <point x="566.0" y="1008.0"/>
      <point x="566.0" y="1084.0" type="curve" smooth="yes"/>
      <point x="566.0" y="1140.0"/>
      <point x="624.0" y="1196.0"/>
      <point x="812.0" y="1196.0" type="curve" smooth="yes"/>
      <point x="972.0" y="1196.0"/>
      <point x="1038.0" y="1148.0"/>
      <point x="1038.0" y="1072.0" type="curve" smooth="yes"/>
      <point x="1038.0" y="998.0"/>
      <point x="988.0" y="930.0"/>
      <point x="848.0" y="866.0" type="curve"/>
      <point x="1114.0" y="768.0" type="line"/>
      <point x="1368.0" y="842.0"/>
      <point x="1446.0" y="980.0"/>
      <point x="1446.0" y="1130.0" type="curve" smooth="yes"/>
      <point x="1446.0" y="1362.0"/>
      <point x="1230.0" y="1500.0"/>
      <point x="826.0" y="1500.0" type="curve" smooth="yes"/>
      <point x="334.0" y="1500.0"/>
      <point x="124.0" y="1312.0"/>
      <point x="124.0" y="1064.0" type="curve" smooth="yes"/>
      <point x="124.0" y="852.0"/>
      <point x="256.0" y="676.0"/>
      <point x="688.0" y="590.0" type="curve" smooth="yes"/>
      <point x="988.0" y="530.0"/>
      <point x="1050.0" y="484.0"/>
      <point x="1050.0" y="402.0" type="curve" smooth="yes"/>
      <point x="1050.0" y="330.0"/>
      <point x="982.0" y="284.0"/>
      <point x="790.0" y="284.0" type="curve" smooth="yes"/>
      <point x="598.0" y="284.0"/>
      <point x="522.0" y="338.0"/>
      <point x="522.0" y="426.0" type="curve" smooth="yes"/>
      <point x="522.0" y="498.0"/>
      <point x="574.0" y="580.0"/>
      <point x="738.0" y="630.0" type="curve"/>
      <point x="438.0" y="722.0" type="line"/>
      <point x="208.0" y="666.0"/>
      <point x="82.0" y="532.0"/>
      <point x="82.0" y="358.0" type="curve" smooth="yes"/>
      <point x="82.0" y="148.0"/>
      <point x="266.0" y="-20.0"/>
    </contour>
  </outline>
</glyph>
<glyph name="nine" format="2">
  <advance width="1472.0"/>
  <unicode hex="0039"/>
  <outline>
    <contour>
      <point x="678.0" y="1500.0" type="curve" smooth="yes"/>
      <point x="276.0" y="1500.0"/>
      <point x="62.0" y="1302.0"/>
      <point x="62.0" y="1022.0" type="curve" smooth="yes"/>
      <point x="62.0" y="698.0"/>
      <point x="280.0" y="560.0"/>
      <point x="596.0" y="560.0" type="curve" smooth="yes"/>
      <point x="740.0" y="560.0"/>
      <point x="894.0" y="600.0"/>
      <point x="976.0" y="662.0" type="curve"/>
      <point x="976.0" y="956.0" type="line"/>
      <point x="892.0" y="904.0"/>
      <point x="796.0" y="876.0"/>
      <point x="694.0" y="876.0" type="curve" smooth="yes"/>
      <point x="564.0" y="876.0"/>
      <point x="486.0" y="924.0"/>
      <point x="486.0" y="1032.0" type="curve" smooth="yes"/>
      <point x="486.0" y="1130.0"/>
      <point x="556.0" y="1184.0"/>
      <point x="678.0" y="1184.0" type="curve" smooth="yes"/>
      <point x="824.0" y="1184.0"/>
      <point x="912.0" y="1110.0"/>
      <point x="912.0" y="864.0" type="curve" smooth="yes"/>
      <point x="912.0" y="658.0" type="line" smooth="yes"/>
      <point x="912.0" y="452.0"/>
      <point x="788.0" y="316.0"/>
      <point x="496.0" y="316.0" type="curve" smooth="yes"/>
      <point x="382.0" y="316.0"/>
      <point x="254.0" y="336.0"/>
      <point x="150.0" y="374.0" type="curve"/>
      <point x="150.0" y="36.0" type="line"/>
      <point x="266.0" y="-6.0"/>
      <point x="384.0" y="-20.0"/>
      <point x="530.0" y="-20.0" type="curve" smooth="yes"/>
      <point x="1082.0" y="-20.0"/>
      <point x="1368.0" y="280.0"/>
      <point x="1368.0" y="798.0" type="curve" smooth="yes"/>
      <point x="1368.0" y="1262.0"/>
      <point x="1090.0" y="1500.0"/>
    </contour>
  </outline>
</glyph>
<glyph name="semicolon" format="2">
  <advance width="696.0"/>
  <unicode hex="003B"/>
  <outline>
    <contour>
      <point x="168.0" y="-360.0" type="curve"/>
      <point x="426.0" y="-360.0" type="line"/>
      <point x="554.0" y="-218.0"/>
      <point x="634.0" y="-24.0"/>
      <point x="634.0" y="160.0" type="curve" smooth="yes"/>
      <point x="634.0" y="380.0"/>
      <point x="534.0" y="492.0"/>
      <point x="342.0" y="492.0" type="curve" smooth="yes"/>
      <point x="162.0" y="492.0"/>
      <point x="58.0" y="394.0"/>
      <point x="58.0" y="236.0" type="curve" smooth="yes"/>
      <point x="58.0" y="78.0"/>
      <point x="166.0" y="-20.0"/>
      <point x="348.0" y="-20.0" type="curve" smooth="yes"/>
      <point x="404.0" y="-20.0" type="line"/>
      <point x="300.0" y="52.0" type="line"/>
      <point x="300.0" y="-82.0"/>
      <point x="252.0" y="-206.0"/>
    </contour>
    <contour>
      <point x="348.0" y="608.0" type="curve" smooth="yes"/>
      <point x="530.0" y="608.0"/>
      <point x="638.0" y="710.0"/>
      <point x="638.0" y="864.0" type="curve" smooth="yes"/>
      <point x="638.0" y="1018.0"/>
      <point x="534.0" y="1120.0"/>
      <point x="348.0" y="1120.0" type="curve" smooth="yes"/>
      <point x="162.0" y="1120.0"/>
      <point x="58.0" y="1022.0"/>
      <point x="58.0" y="864.0" type="curve" smooth="yes"/>
      <point x="58.0" y="706.0"/>
      <point x="166.0" y="608.0"/>
    </contour>
  </outline>
</glyph>
<glyph name="less" format="2">
  <advance width="1196.0"/>
  <unicode hex="003C"/>
  <outline>
    <contour>
      <point x="1082.0" y="220.0" type="line"/>
      <point x="1082.0" y="560.0" type="line"/>
      <point x="352.0" y="794.0" type="line"/>
      <point x="352.0" y="736.0" type="line"/>
      <point x="1082.0" y="960.0" type="line"/>
      <point x="1082.0" y="1300.0" type="line"/>
      <point x="114.0" y="974.0" type="line"/>
      <point x="114.0" y="546.0" type="line"/>
    </contour>
  </outline>
</glyph>
<glyph name="question" format="2">
  <advance width="1188.0"/>
  <unicode hex="003F"/>
  <outline>
    <contour>
      <point x="406.0" y="532.0" type="line"/>
      <point x="684.0" y="532.0" type="line"/>
      <point x="712.0" y="658.0" type="line"/>
      <point x="962.0" y="716.0"/>
      <point x="1128.0" y="844.0"/>
      <point x="1128.0" y="1066.0" type="curve" smooth="yes"/>
      <point x="1128.0" y="1344.0"/>
      <point x="922.0" y="1500.0"/>
      <point x="478.0" y="1500.0" type="curve" smooth="yes"/>
      <point x="332.0" y="1500.0"/>
      <point x="150.0" y="1474.0"/>
      <point x="42.0" y="1440.0" type="curve"/>
      <point x="42.0" y="1090.0" type="line"/>
      <point x="156.0" y="1128.0"/>
      <point x="304.0" y="1152.0"/>
      <point x="430.0" y="1152.0" type="curve" smooth="yes"/>
      <point x="610.0" y="1152.0"/>
      <point x="676.0" y="1108.0"/>
      <point x="676.0" y="1036.0" type="curve" smooth="yes"/>
      <point x="676.0" y="970.0"/>
      <point x="604.0" y="904.0"/>
      <point x="326.0" y="878.0" type="curve"/>
    </contour>
    <contour>
      <point x="546.0" y="-20.0" type="curve" smooth="yes"/>
      <point x="728.0" y="-20.0"/>
      <point x="836.0" y="74.0"/>
      <point x="836.0" y="216.0" type="curve" smooth="yes"/>
      <point x="836.0" y="358.0"/>
      <point x="732.0" y="452.0"/>
      <point x="546.0" y="452.0" type="curve" smooth="yes"/>
      <point x="360.0" y="452.0"/>
      <point x="256.0" y="362.0"/>
      <point x="256.0" y="216.0" type="curve" smooth="yes"/>
      <point x="256.0" y="70.0"/>
      <point x="364.0" y="-20.0"/>
    </contour>
  </outline>
</glyph>
<glyph name="at" format="2">
  <advance width="2432.0"/>
  <unicode hex="0040"/>
  <outline>
    <contour>
      <point x="1266.0" y="-460.0" type="curve" smooth="yes"/>
      <point x="1456.0" y="-460.0"/>
      <point x="1640.0" y="-442.0"/>
      <point x="1822.0" y="-406.0" type="curve"/>
      <point x="1822.0" y="-130.0" type="line"/>
      <point x="1638.0" y="-166.0"/>
      <point x="1456.0" y="-184.0"/>
      <point x="1266.0" y="-184.0" type="curve" smooth="yes"/>
      <point x="660.0" y="-184.0"/>
      <point x="406.0" y="8.0"/>
      <point x="406.0" y="520.0" type="curve" smooth="yes"/>
      <point x="406.0" y="1032.0"/>
      <point x="660.0" y="1222.0"/>
      <point x="1224.0" y="1222.0" type="curve" smooth="yes"/>
      <point x="1790.0" y="1222.0"/>
      <point x="2044.0" y="1040.0"/>
      <point x="2050.0" y="580.0" type="curve" smooth="yes"/>
      <point x="2054.0" y="300.0"/>
      <point x="1992.0" y="246.0"/>
      <point x="1910.0" y="246.0" type="curve" smooth="yes"/>
      <point x="1854.0" y="246.0"/>
      <point x="1818.0" y="274.0"/>
      <point x="1818.0" y="344.0" type="curve" smooth="yes"/>
      <point x="1818.0" y="574.0" type="line" smooth="yes"/>
      <point x="1818.0" y="964.0"/>
      <point x="1634.0" y="1098.0"/>
      <point x="1190.0" y="1098.0" type="curve" smooth="yes"/>
      <point x="1052.0" y="1098.0"/>
      <point x="902.0" y="1076.0"/>
      <point x="772.0" y="1036.0" type="curve"/>
      <point x="772.0" y="714.0" type="line"/>
      <point x="874.0" y="748.0"/>
      <point x="1008.0" y="770.0"/>
      <point x="1106.0" y="770.0" type="curve" smooth="yes"/>
      <point x="1302.0" y="770.0"/>
      <point x="1364.0" y="722.0"/>
      <point x="1364.0" y="594.0" type="curve" smooth="yes"/>
      <point x="1364.0" y="304.0" type="line"/>
      <point x="1332.0" y="286.0"/>
      <point x="1252.0" y="276.0"/>
      <point x="1222.0" y="276.0" type="curve" smooth="yes"/>
      <point x="1160.0" y="276.0"/>
      <point x="1098.0" y="294.0"/>
      <point x="1098.0" y="354.0" type="curve" smooth="yes"/>
      <point x="1098.0" y="418.0"/>
      <point x="1140.0" y="438.0"/>
      <point x="1234.0" y="444.0" type="curve" smooth="yes"/>
      <point x="1484.0" y="458.0" type="line"/>
      <point x="1440.0" y="682.0" type="line"/>
      <point x="1194.0" y="668.0" type="line" smooth="yes"/>
      <point x="808.0" y="646.0"/>
      <point x="640.0" y="526.0"/>
      <point x="640.0" y="312.0" type="curve" smooth="yes"/>
      <point x="640.0" y="116.0"/>
      <point x="782.0" y="-22.0"/>
      <point x="1070.0" y="-22.0" type="curve" smooth="yes"/>
      <point x="1204.0" y="-22.0"/>
      <point x="1330.0" y="14.0"/>
      <point x="1374.0" y="132.0" type="curve"/>
      <point x="1398.0" y="132.0" type="line"/>
      <point x="1478.0" y="26.0"/>
      <point x="1610.0" y="-22.0"/>
      <point x="1790.0" y="-22.0" type="curve" smooth="yes"/>
      <point x="2130.0" y="-22.0"/>
      <point x="2348.0" y="140.0"/>
      <point x="2348.0" y="588.0" type="curve" smooth="yes"/>
      <point x="2348.0" y="1194.0"/>
      <point x="1952.0" y="1498.0"/>
      <point x="1224.0" y="1498.0" type="curve" smooth="yes"/>
      <point x="498.0" y="1498.0"/>
      <point x="84.0" y="1194.0"/>
      <point x="84.0" y="520.0" type="curve" smooth="yes"/>
      <point x="84.0" y="-154.0"/>
      <point x="498.0" y="-460.0"/>
    </contour>
  </outline>
</glyph>
<glyph name="B" format="2">
  <advance width="1522.0"/>
  <unicode hex="0042"/>
  <anchor x="794.0" y="0.0" name="bottom"/>
  <anchor x="794.0" y="1480.0" name="top"/>
  <outline>
    <contour>
      <point x="622.0" y="-20.0" type="curve" smooth="yes"/>
      <point x="1270.0" y="-20.0"/>
      <point x="1468.0" y="156.0"/>
      <point x="1468.0" y="430.0" type="curve" smooth="yes"/>
      <point x="1468.0" y="636.0"/>
      <point x="1340.0" y="742.0"/>
      <point x="1180.0" y="768.0" type="curve"/>
      <point x="1180.0" y="756.0" type="line"/>
      <point x="1322.0" y="788.0"/>
      <point x="1430.0" y="910.0"/>
      <point x="1430.0" y="1070.0" type="curve" smooth="yes"/>
      <point x="1430.0" y="1344.0"/>
      <point x="1224.0" y="1500.0"/>
      <point x="708.0" y="1500.0" type="curve" smooth="yes"/>
      <point x="526.0" y="1500.0"/>
      <point x="288.0" y="1470.0"/>
      <point x="130.0" y="1432.0" type="curve"/>
      <point x="130.0" y="12.0" type="line"/>
      <point x="268.0" y="-6.0"/>
      <point x="488.0" y="-20.0"/>
    </contour>
    <contour>
      <point x="754.0" y="300.0" type="curve" smooth="yes"/>
      <point x="704.0" y="300.0"/>
      <point x="656.0" y="300.0"/>
      <point x="594.0" y="306.0" type="curve"/>
      <point x="594.0" y="1162.0" type="line"/>
      <point x="644.0" y="1172.0"/>
      <point x="706.0" y="1180.0"/>
      <point x="762.0" y="1180.0" type="curve" smooth="yes"/>
      <point x="934.0" y="1180.0"/>
      <point x="988.0" y="1136.0"/>
      <point x="988.0" y="1050.0" type="curve" smooth="yes"/>
      <point x="988.0" y="966.0"/>
      <point x="936.0" y="918.0"/>
      <point x="780.0" y="918.0" type="curve" smooth="yes"/>
      <point x="542.0" y="918.0" type="line"/>
      <point x="542.0" y="592.0" type="line"/>
      <point x="820.0" y="592.0" type="line" smooth="yes"/>
      <point x="990.0" y="592.0"/>
      <point x="1040.0" y="546.0"/>
      <point x="1040.0" y="444.0" type="curve" smooth="yes"/>
      <point x="1040.0" y="352.0"/>
      <point x="982.0" y="300.0"/>
    </contour>
  </outline>
</glyph>
<glyph name="F" format="2">
  <advance width="1474.0"/>
  <unicode hex="0046"/>
  <outline>
    <contour>
      <point x="130.0" y="0.0" type="line"/>
      <point x="606.0" y="0.0" type="line"/>
      <point x="606.0" y="1120.0" type="line"/>
      <point x="1402.0" y="1120.0" type="line"/>
      <point x="1402.0" y="1480.0" type="line"/>
      <point x="130.0" y="1480.0" type="line"/>
    </contour>
    <contour>
      <point x="390.0" y="526.0" type="line"/>
      <point x="1290.0" y="526.0" type="line"/>
      <point x="1290.0" y="886.0" type="line"/>
      <point x="390.0" y="886.0" type="line"/>
    </contour>
  </outline>
</glyph>
<glyph name="H" format="2">
  <advance width="1794.0"/>
  <unicode hex="0048"/>
  <anchor x="898.0" y="0.0" name="bottom"/>
  <anchor x="898.0" y="1222.0" name="center"/>
  <anchor x="898.0" y="1520.0" name="top"/>
  <anchor x="44.0" y="1480.0" name="topleft"/>
  <outline>
    <contour>
      <point x="130.0" y="0.0" type="line"/>
      <point x="606.0" y="0.0" type="line"/>
      <point x="606.0" y="554.0" type="line"/>
      <point x="1188.0" y="554.0" type="line"/>
      <point x="1188.0" y="0.0" type="line"/>
      <point x="1664.0" y="0.0" type="line"/>
      <point x="1664.0" y="1480.0" type="line"/>
      <point x="1188.0" y="1480.0" type="line"/>
      <point x="1188.0" y="956.0" type="line"/>
      <point x="606.0" y="956.0" type="line"/>
      <point x="606.0" y="1480.0" type="line"/>
      <point x="130.0" y="1480.0" type="line"/>
    </contour>
  </outline>
</glyph>
<glyph name="K" format="2">
  <advance width="1546.0"/>
  <unicode hex="004B"/>
  <anchor x="816.0" y="0.0" name="bottom"/>
  <anchor x="810.0" y="1480.0" name="top"/>
  <outline>
    <contour>
      <point x="1082.0" y="0.0" type="line"/>
      <point x="1598.0" y="0.0" type="line"/>
      <point x="1038.0" y="812.0" type="line"/>
      <point x="1026.0" y="702.0" type="line"/>
      <point x="1548.0" y="1480.0" type="line"/>
      <point x="1050.0" y="1480.0" type="line"/>
      <point x="562.0" y="754.0" type="line"/>
    </contour>
    <contour>
      <point x="130.0" y="0.0" type="line"/>
      <point x="606.0" y="0.0" type="line"/>
      <point x="606.0" y="1480.0" type="line"/>
      <point x="130.0" y="1480.0" type="line"/>
    </contour>
    <contour>
      <point x="542.0" y="554.0" type="line"/>
      <point x="752.0" y="554.0" type="line"/>
      <point x="752.0" y="956.0" type="line"/>
      <point x="542.0" y="956.0" type="line"/>
    </contour>
  </outline>
</glyph>
<glyph name="L" format="2">
  <advance width="1362.0"/>
  <unicode hex="004C"/>
  <anchor x="740.0" y="0.0" name="bottom"/>
  <anchor x="916.0" y="1616.0" name="caronalt"/>
  <anchor x="1038.0" y="930.0" name="periodcentered"/>
  <anchor x="368.0" y="854.0" name="slash"/>
  <anchor x="368.0" y="1520.0" name="top"/>
  <outline>
    <contour>
      <point x="130.0" y="0.0" type="line"/>
      <point x="1350.0" y="0.0" type="line"/>
      <point x="1350.0" y="368.0" type="line"/>
      <point x="606.0" y="368.0" type="line"/>
      <point x="606.0" y="1480.0" type="line"/>
      <point x="130.0" y="1480.0" type="line"/>
    </contour>
  </outline>
</glyph>
<glyph name="M" format="2">
  <advance width="2176.0"/>
  <unicode hex="004D"/>
  <anchor x="1120.0" y="0.0" name="bottom"/>
  <anchor x="1120.0" y="1480.0" name="top"/>
  <outline>
    <contour>
      <point x="134.0" y="0.0" type="line"/>
      <point x="578.0" y="0.0" type="line"/>
      <point x="578.0" y="1098.0" type="line"/>
      <point x="464.0" y="1098.0" type="line"/>
      <point x="892.0" y="220.0" type="line"/>
      <point x="1284.0" y="220.0" type="line"/>
      <point x="1688.0" y="1098.0" type="line"/>
      <point x="1598.0" y="1098.0" type="line"/>
      <point x="1598.0" y="0.0" type="line"/>
      <point x="2042.0" y="0.0" type="line"/>
      <point x="2042.0" y="1480.0" type="line"/>
      <point x="1464.0" y="1480.0" type="line"/>
      <point x="1068.0" y="614.0" type="line"/>
      <point x="1122.0" y="614.0" type="line"/>
      <point x="712.0" y="1480.0" type="line"/>
      <point x="134.0" y="1480.0" type="line"/>
    </contour>
  </outline>
</glyph>
<glyph name="V" format="2">
  <advance width="1740.0"/>
  <unicode hex="0056"/>
  <outline>
    <contour>
      <point x="526.0" y="0.0" type="line"/>
      <point x="1214.0" y="0.0" type="line"/>
      <point x="1734.0" y="1480.0" type="line"/>
      <point x="1266.0" y="1480.0" type="line"/>
      <point x="826.0" y="196.0" type="line"/>
      <point x="938.0" y="196.0" type="line"/>
      <point x="508.0" y="1480.0" type="line"/>
      <point x="6.0" y="1480.0" type="line"/>
    </contour>
  </outline>
</glyph>
<glyph name="Z" format="2">
  <advance width="1482.0"/>
  <unicode hex="005A"/>
  <anchor x="742.0" y="0.0" name="bottom"/>
  <anchor x="742.0" y="1520.0" name="top"/>
  <outline>
    <contour>
      <point x="84.0" y="0.0" type="line"/>
      <point x="1398.0" y="0.0" type="line"/>
      <point x="1398.0" y="368.0" type="line"/>
      <point x="628.0" y="368.0" type="line"/>
      <point x="628.0" y="280.0" type="line"/>
      <point x="1388.0" y="1226.0" type="line"/>
      <point x="1388.0" y="1480.0" type="line"/>
      <point x="94.0" y="1480.0" type="line"/>
      <point x="94.0" y="1112.0" type="line"/>
      <point x="844.0" y="1112.0" type="line"/>
      <point x="844.0" y="1200.0" type="line"/>
      <point x="84.0" y="254.0" type="line"/>
    </contour>
  </outline>
</glyph>
<glyph name="backslash" format="2">
  <advance width="1058.0"/>
  <unicode hex="005C"/>
  <outline>
    <contour>
      <point x="592.0" y="-240.0" type="line"/>
      <point x="1058.0" y="-240.0" type="line"/>
      <point x="466.0" y="1616.0" type="line"/>
      <point x="0.0" y="1616.0" type="line"/>
    </contour>
  </outline>
</glyph>
<glyph name="bracketright" format="2">
  <advance width="834.0"/>
  <unicode hex="005D"/>
  <outline>
    <contour>
      <point x="-2.0" y="-440.0" type="line"/>
      <point x="684.0" y="-440.0" type="line"/>
      <point x="684.0" y="1616.0" type="line"/>
      <point x="-22.0" y="1616.0" type="line"/>
      <point x="-22.0" y="1256.0" type="line"/>
      <point x="220.0" y="1256.0" type="line"/>
      <point x="220.0" y="-80.0" type="line"/>
      <point x="-2.0" y="-80.0" type="line"/>
    </contour>
  </outline>
</glyph>
<glyph name="underscore" format="2">
  <advance width="1448.0"/>
  <unicode hex="005F"/>
  <outline>
    <contour>
      <point x="90.0" y="-362.0" type="line"/>
      <point x="1358.0" y="-362.0" type="line"/>
      <point x="1358.0" y="-2.0" type="line"/>
      <point x="90.0" y="-2.0" type="line"/>
    </contour>
  </outline>
</glyph>
<glyph name="b" format="2">
  <advance width="1490.0"/>
  <unicode hex="0062"/>
  <anchor x="746.0" y="0.0" name="bottom"/>
  <anchor x="348.0" y="1616.0" name="top"/>
  <outline>
    <contour>
      <point x="674.0" y="-22.0" type="curve" smooth="yes"/>
      <point x="1170.0" y="-22.0"/>
      <point x="1424.0" y="194.0"/>
      <point x="1424.0" y="580.0" type="curve" smooth="yes"/>
      <point x="1424.0" y="940.0"/>
      <point x="1194.0" y="1118.0"/>
      <point x="926.0" y="1118.0" type="curve" smooth="yes"/>
      <point x="790.0" y="1118.0"/>
      <point x="682.0" y="1080.0"/>
      <point x="600.0" y="1006.0" type="curve"/>
      <point x="580.0" y="1006.0" type="line"/>
      <point x="580.0" y="1616.0" type="line"/>
      <point x="116.0" y="1616.0" type="line"/>
      <point x="116.0" y="50.0" type="line"/>
      <point x="286.0" y="-2.0"/>
      <point x="490.0" y="-22.0"/>
    </contour>
    <contour>
      <point x="716.0" y="318.0" type="curve" smooth="yes"/>
      <point x="664.0" y="318.0"/>
      <point x="616.0" y="324.0"/>
      <point x="580.0" y="332.0" type="curve"/>
      <point x="580.0" y="716.0" type="line"/>
      <point x="632.0" y="742.0"/>
      <point x="696.0" y="754.0"/>
      <point x="756.0" y="754.0" type="curve" smooth="yes"/>
      <point x="886.0" y="754.0"/>
      <point x="966.0" y="696.0"/>
      <point x="966.0" y="548.0" type="curve" smooth="yes"/>
      <point x="966.0" y="394.0"/>
      <point x="886.0" y="318.0"/>
    </contour>
  </outline>
</glyph>
<glyph name="d" format="2">
  <advance width="1490.0"/>
  <unicode hex="0064"/>
  <anchor x="760.0" y="0.0" name="bottom"/>
  <anchor x="1474.0" y="1616.0" name="caronalt"/>
  <anchor x="744.0" y="550.0" name="center"/>
  <anchor x="1374.0" y="1356.0" name="stroke"/>
  <anchor x="720.0" y="1200.0" name="top"/>
  <anchor x="1444.0" y="1100.0" name="topright"/>
  <outline>
    <contour>
      <point x="602.0" y="-18.0" type="curve" smooth="yes"/>
      <point x="748.0" y="-18.0"/>
      <point x="862.0" y="32.0"/>
      <point x="944.0" y="106.0" type="curve"/>
      <point x="964.0" y="106.0" type="line"/>
      <point x="988.0" y="0.0" type="line"/>
      <point x="1374.0" y="0.0" type="line"/>
      <point x="1374.0" y="1616.0" type="line"/>
      <point x="910.0" y="1616.0" type="line"/>
      <point x="910.0" y="1114.0" type="line"/>
      <point x="860.0" y="1118.0"/>
      <point x="800.0" y="1122.0"/>
      <point x="740.0" y="1122.0" type="curve" smooth="yes"/>
      <point x="326.0" y="1122.0"/>
      <point x="66.0" y="900.0"/>
      <point x="66.0" y="526.0" type="curve" smooth="yes"/>
      <point x="66.0" y="142.0"/>
      <point x="312.0" y="-18.0"/>
    </contour>
    <contour>
      <point x="732.0" y="346.0" type="curve" smooth="yes"/>
      <point x="606.0" y="346.0"/>
      <point x="524.0" y="404.0"/>
      <point x="524.0" y="556.0" type="curve" smooth="yes"/>
      <point x="524.0" y="704.0"/>
      <point x="604.0" y="780.0"/>
      <point x="774.0" y="780.0" type="curve" smooth="yes"/>
      <point x="826.0" y="780.0"/>
      <point x="874.0" y="774.0"/>
      <point x="910.0" y="768.0" type="curve"/>
      <point x="910.0" y="394.0" type="line"/>
      <point x="862.0" y="360.0"/>
      <point x="794.0" y="346.0"/>
    </contour>
  </outline>
</glyph>
<glyph name="i" format="2">
  <advance width="696.0"/>
  <unicode hex="0069"/>
  <anchor x="348.0" y="1200.0" name="_top"/>
  <anchor x="348.0" y="0.0" name="bottom"/>
  <anchor x="580.0" y="0.0" name="ogonek"/>
  <anchor x="348.0" y="1200.0" name="top"/>
  <outline>
    <contour>
      <point x="116.0" y="0.0" type="line"/>
      <point x="580.0" y="0.0" type="line"/>
      <point x="580.0" y="1100.0" type="line"/>
      <point x="116.0" y="1100.0" type="line"/>
    </contour>
    <contour>
      <point x="348.0" y="1206.0" type="curve" smooth="yes"/>
      <point x="538.0" y="1206.0"/>
      <point x="622.0" y="1280.0"/>
      <point x="622.0" y="1418.0" type="curve" smooth="yes"/>
      <point x="622.0" y="1556.0"/>
      <point x="538.0" y="1630.0"/>
      <point x="348.0" y="1630.0" type="curve" smooth="yes"/>
      <point x="158.0" y="1630.0"/>
      <point x="74.0" y="1556.0"/>
      <point x="74.0" y="1418.0" type="curve" smooth="yes"/>
      <point x="74.0" y="1280.0"/>
      <point x="158.0" y="1206.0"/>
    </contour>
  </outline>
</glyph>
<glyph name="j" format="2">
  <advance width="696.0"/>
  <unicode hex="006A"/>
  <anchor x="338.0" y="1200.0" name="_top"/>
  <anchor x="338.0" y="1200.0" name="top"/>
  <outline>
    <contour>
      <point x="258.0" y="-476.0" type="line"/>
      <point x="498.0" y="-258.0"/>
      <point x="580.0" y="-54.0"/>
      <point x="580.0" y="196.0" type="curve" smooth="yes"/>
      <point x="580.0" y="1100.0" type="line"/>
      <point x="116.0" y="1100.0" type="line"/>
      <point x="116.0" y="180.0" type="line" smooth="yes"/>
      <point x="116.0" y="-26.0"/>
      <point x="80.0" y="-152.0"/>
      <point x="-30.0" y="-284.0" type="curve"/>
    </contour>
    <contour>
      <point x="338.0" y="1206.0" type="curve" smooth="yes"/>
      <point x="528.0" y="1206.0"/>
      <point x="612.0" y="1280.0"/>
      <point x="612.0" y="1418.0" type="curve" smooth="yes"/>
      <point x="612.0" y="1556.0"/>
      <point x="528.0" y="1630.0"/>
      <point x="338.0" y="1630.0" type="curve" smooth="yes"/>
      <point x="148.0" y="1630.0"/>
      <point x="64.0" y="1556.0"/>
      <point x="64.0" y="1418.0" type="curve" smooth="yes"/>
      <point x="64.0" y="1280.0"/>
      <point x="148.0" y="1206.0"/>
    </contour>
  </outline>
</glyph>
<glyph name="k" format="2">
  <advance width="1456.0"/>
  <unicode hex="006B"/>
  <anchor x="748.0" y="0.0" name="bottom"/>
  <anchor x="348.0" y="1616.0" name="top"/>
  <outline>
    <contour>
      <point x="990.0" y="0.0" type="line"/>
      <point x="1494.0" y="0.0" type="line"/>
      <point x="1062.0" y="632.0" type="line"/>
      <point x="1062.0" y="522.0" type="line"/>
      <point x="1456.0" y="1100.0" type="line"/>
      <point x="962.0" y="1100.0" type="line"/>
      <point x="586.0" y="566.0" type="line"/>
    </contour>
    <contour>
      <point x="548.0" y="380.0" type="line"/>
      <point x="742.0" y="380.0" type="line"/>
      <point x="742.0" y="752.0" type="line"/>
      <point x="548.0" y="752.0" type="line"/>
    </contour>
    <contour>
      <point x="116.0" y="0.0" type="line"/>
      <point x="580.0" y="0.0" type="line"/>
      <point x="580.0" y="1616.0" type="line"/>
      <point x="116.0" y="1616.0" type="line"/>
    </contour>
  </outline>
</glyph>
<glyph name="l" format="2">
  <advance width="696.0"/>
  <unicode hex="006C"/>
  <anchor x="346.0" y="0.0" name="bottom"/>
  <anchor x="680.0" y="1616.0" name="caronalt"/>
  <anchor x="900.0" y="794.0" name="periodcentered"/>
  <anchor x="348.0" y="714.0" name="slash"/>
  <anchor x="348.0" y="1616.0" name="top"/>
  <outline>
    <contour>
      <point x="116.0" y="0.0" type="line"/>
      <point x="580.0" y="0.0" type="line"/>
      <point x="580.0" y="1616.0" type="line"/>
      <point x="116.0" y="1616.0" type="line"/>
    </contour>
  </outline>
</glyph>
<glyph name="v" format="2">
  <advance width="1424.0"/>
  <unicode hex="0076"/>
  <anchor x="712.0" y="0.0" name="bottom"/>
  <anchor x="712.0" y="1200.0" name="top"/>
  <outline>
    <contour>
      <point x="432.0" y="0.0" type="line"/>
      <point x="990.0" y="0.0" type="line"/>
      <point x="1438.0" y="1100.0" type="line"/>
      <point x="986.0" y="1100.0" type="line"/>
      <point x="718.0" y="370.0" type="line"/>
      <point x="742.0" y="370.0" type="line"/>
      <point x="474.0" y="1100.0" type="line"/>
      <point x="-14.0" y="1100.0" type="line"/>
    </contour>
  </outline>
</glyph>
<glyph name="bar" format="2">
  <advance width="680.0"/>
  <unicode hex="007C"/>
  <outline>
    <contour>
      <point x="130.0" y="-440.0" type="line"/>
      <point x="550.0" y="-440.0" type="line"/>
      <point x="550.0" y="1616.0" type="line"/>
      <point x="130.0" y="1616.0" type="line"/>
    </contour>
  </outline>
</glyph>
<glyph name="cent" format="2">
  <advance width="1202.0"/>
  <unicode hex="00A2"/>
  <outline>
    <contour>
      <point x="792.0" y="-22.0" type="curve" smooth="yes"/>
      <point x="926.0" y="-22.0"/>
      <point x="1044.0" y="-4.0"/>
      <point x="1126.0" y="20.0" type="curve"/>
      <point x="1126.0" y="368.0" type="line"/>
      <point x="1002.0" y="344.0"/>
      <point x="930.0" y="334.0"/>
      <point x="840.0" y="334.0" type="curve" smooth="yes"/>
      <point x="640.0" y="334.0"/>
      <point x="538.0" y="410.0"/>
      <point x="538.0" y="546.0" type="curve" smooth="yes"/>
      <point x="538.0" y="684.0"/>
      <point x="630.0" y="762.0"/>
      <point x="860.0" y="762.0" type="curve" smooth="yes"/>
      <point x="952.0" y="762.0"/>
      <point x="1028.0" y="754.0"/>
      <point x="1126.0" y="740.0" type="curve"/>
      <point x="1126.0" y="1088.0" type="line"/>
      <point x="1034.0" y="1108.0"/>
      <point x="932.0" y="1118.0"/>
      <point x="812.0" y="1118.0" type="curve" smooth="yes"/>
      <point x="324.0" y="1118.0"/>
      <point x="66.0" y="906.0"/>
      <point x="66.0" y="546.0" type="curve" smooth="yes"/>
      <point x="66.0" y="186.0"/>
      <point x="318.0" y="-22.0"/>
    </contour>
    <contour>
      <point x="536.0" y="-240.0" type="line"/>
      <point x="936.0" y="-240.0" type="line"/>
      <point x="936.0" y="60.0" type="line"/>
      <point x="536.0" y="60.0" type="line"/>
    </contour>
    <contour>
      <point x="536.0" y="1040.0" type="line"/>
      <point x="936.0" y="1040.0" type="line"/>
      <point x="936.0" y="1340.0" type="line"/>
      <point x="536.0" y="1340.0" type="line"/>
    </contour>
  </outline>
</glyph>
<glyph name="yen" format="2">
  <advance width="1528.0"/>
  <unicode hex="00A5"/>
  <outline>
    <contour>
      <point x="530.0" y="0.0" type="line"/>
      <point x="1006.0" y="0.0" type="line"/>
      <point x="1006.0" y="776.0" type="line"/>
      <point x="914.0" y="466.0" type="line"/>
      <point x="1570.0" y="1480.0" type="line"/>
      <point x="1102.0" y="1480.0" type="line"/>
      <point x="710.0" y="872.0" type="line"/>
      <point x="842.0" y="872.0" type="line"/>
      <point x="440.0" y="1480.0" type="line"/>
      <point x="-62.0" y="1480.0" type="line"/>
      <point x="622.0" y="466.0" type="line"/>
      <point x="530.0" y="782.0" type="line"/>
    </contour>
    <contour>
      <point x="200.0" y="222.0" type="line"/>
      <point x="1336.0" y="222.0" type="line"/>
      <point x="1336.0" y="472.0" type="line"/>
      <point x="200.0" y="472.0" type="line"/>
    </contour>
    <contour>
      <point x="200.0" y="576.0" type="line"/>
      <point x="1336.0" y="576.0" type="line"/>
      <point x="1336.0" y="826.0" type="line"/>
      <point x="200.0" y="826.0" type="line"/>
    </contour>
  </outline>
</glyph>
<glyph name="brokenbar" format="2">
  <advance width="680.0"/>
  <unicode hex="00A6"/>
  <outline>
    <contour>
      <point x="130.0" y="836.0" type="line"/>
      <point x="550.0" y="836.0" type="line"/>
      <point x="550.0" y="1616.0" type="line"/>
      <point x="130.0" y="1616.0" type="line"/>
    </contour>
    <contour>
      <point x="130.0" y="-440.0" type="line"/>
      <point x="550.0" y="-440.0" type="line"/>
      <point x="550.0" y="340.0" type="line"/>
      <point x="130.0" y="340.0" type="line"/>
    </contour>
  </outline>
</glyph>
<glyph name="copyright" format="2">
  <advance width="1668.0"/>
  <unicode hex="00A9"/>
  <outline>
    <contour>
      <point x="834.0" y="-22.0" type="curve" smooth="yes"/>
      <point x="1286.0" y="-22.0"/>
      <point x="1584.0" y="282.0"/>
      <point x="1584.0" y="740.0" type="curve" smooth="yes"/>
      <point x="1584.0" y="1198.0"/>
      <point x="1286.0" y="1502.0"/>
      <point x="834.0" y="1502.0" type="curve" smooth="yes"/>
      <point x="382.0" y="1502.0"/>
      <point x="84.0" y="1198.0"/>
      <point x="84.0" y="740.0" type="curve" smooth="yes"/>
      <point x="84.0" y="282.0"/>
      <point x="382.0" y="-22.0"/>
    </contour>
    <contour>
      <point x="904.0" y="324.0" type="curve" smooth="yes"/>
      <point x="986.0" y="324.0"/>
      <point x="1058.0" y="336.0"/>
      <point x="1108.0" y="354.0" type="curve"/>
      <point x="1108.0" y="604.0" type="line"/>
      <point x="1030.0" y="586.0"/>
      <point x="988.0" y="580.0"/>
      <point x="932.0" y="580.0" type="curve" smooth="yes"/>
      <point x="820.0" y="580.0"/>
      <point x="758.0" y="634.0"/>
      <point x="758.0" y="732.0" type="curve" smooth="yes"/>
      <point x="758.0" y="832.0"/>
      <point x="814.0" y="888.0"/>
      <point x="944.0" y="888.0" type="curve" smooth="yes"/>
      <point x="1000.0" y="888.0"/>
      <point x="1048.0" y="882.0"/>
      <point x="1108.0" y="872.0" type="curve"/>
      <point x="1108.0" y="1122.0" type="line"/>
      <point x="1052.0" y="1136.0"/>
      <point x="990.0" y="1144.0"/>
      <point x="916.0" y="1144.0" type="curve" smooth="yes"/>
      <point x="636.0" y="1144.0"/>
      <point x="458.0" y="992.0"/>
      <point x="458.0" y="732.0" type="curve" smooth="yes"/>
      <point x="458.0" y="474.0"/>
      <point x="632.0" y="324.0"/>
    </contour>
    <contour>
      <point x="834.0" y="190.0" type="curve" smooth="yes"/>
      <point x="496.0" y="190.0"/>
      <point x="306.0" y="400.0"/>
      <point x="306.0" y="740.0" type="curve" smooth="yes"/>
      <point x="306.0" y="1080.0"/>
      <point x="496.0" y="1290.0"/>
      <point x="834.0" y="1290.0" type="curve" smooth="yes"/>
      <point x="1172.0" y="1290.0"/>
      <point x="1362.0" y="1080.0"/>
      <point x="1362.0" y="740.0" type="curve" smooth="yes"/>
      <point x="1362.0" y="400.0"/>
      <point x="1172.0" y="190.0"/>
    </contour>
  </outline>
</glyph>
<glyph name="guillemetleft" format="2">
  <advance width="1558.0"/>
  <unicode hex="00AB"/>
  <outline>
    <contour>
      <point x="370.0" y="130.0" type="line"/>
      <point x="850.0" y="130.0" type="line"/>
      <point x="552.0" y="570.0" type="line"/>
      <point x="850.0" y="1010.0" type="line"/>
      <point x="370.0" y="1010.0" type="line"/>
      <point x="72.0" y="570.0" type="line"/>
    </contour>
    <contour>
      <point x="1046.0" y="130.0" type="line"/>
      <point x="1526.0" y="130.0" type="line"/>
      <point x="1228.0" y="570.0" type="line"/>
      <point x="1526.0" y="1010.0" type="line"/>
      <point x="1046.0" y="1010.0" type="line"/>
      <point x="748.0" y="570.0" type="line"/>
    </contour>
  </outline>
</glyph>
<glyph name="logicalnot" format="2">
  <advance width="1424.0"/>
  <unicode hex="00AC"/>
  <outline>
    <contour>
      <point x="960.0" y="210.0" type="line"/>
      <point x="1316.0" y="210.0" type="line"/>
      <point x="1316.0" y="930.0" type="line"/>
      <point x="114.0" y="930.0" type="line"/>
      <point x="114.0" y="590.0" type="line"/>
      <point x="960.0" y="590.0" type="line"/>
    </contour>
  </outline>
</glyph>
<glyph name="softhyphen" format="2">
  <advance width="1150.0"/>
  <unicode hex="00AD"/>
  <outline>
    <contour>
      <point x="114.0" y="384.0" type="line"/>
      <point x="1036.0" y="384.0" type="line"/>
      <point x="1036.0" y="756.0" type="line"/>
      <point x="114.0" y="756.0" type="line"/>
    </contour>
  </outline>
</glyph>
<glyph name="registered" format="2">
  <advance width="1432.0"/>
  <unicode hex="00AE"/>
  <outline>
    <contour>
      <point x="716.0" y="268.0" type="curve" smooth="yes"/>
      <point x="1078.0" y="268.0"/>
      <point x="1326.0" y="518.0"/>
      <point x="1326.0" y="882.0" type="curve" smooth="yes"/>
      <point x="1326.0" y="1246.0"/>
      <point x="1078.0" y="1498.0"/>
      <point x="716.0" y="1498.0" type="curve" smooth="yes"/>
      <point x="354.0" y="1498.0"/>
      <point x="106.0" y="1246.0"/>
      <point x="106.0" y="882.0" type="curve" smooth="yes"/>
      <point x="106.0" y="518.0"/>
      <point x="354.0" y="268.0"/>
    </contour>
    <contour>
      <point x="822.0" y="600.0" type="line"/>
      <point x="1004.0" y="600.0" type="line"/>
      <point x="852.0" y="820.0" type="line"/>
      <point x="688.0" y="794.0" type="line"/>
    </contour>
    <contour>
      <point x="716.0" y="424.0" type="curve" smooth="yes"/>
      <point x="448.0" y="424.0"/>
      <point x="274.0" y="604.0"/>
      <point x="274.0" y="882.0" type="curve" smooth="yes"/>
      <point x="274.0" y="1162.0"/>
      <point x="448.0" y="1342.0"/>
      <point x="716.0" y="1342.0" type="curve" smooth="yes"/>
      <point x="984.0" y="1342.0"/>
      <point x="1158.0" y="1162.0"/>
      <point x="1158.0" y="882.0" type="curve" smooth="yes"/>
      <point x="1158.0" y="604.0"/>
      <point x="984.0" y="424.0"/>
    </contour>
    <contour>
      <point x="494.0" y="600.0" type="line"/>
      <point x="660.0" y="600.0" type="line"/>
      <point x="666.0" y="786.0" type="line"/>
      <point x="708.0" y="786.0" type="line" smooth="yes"/>
      <point x="888.0" y="786.0"/>
      <point x="972.0" y="850.0"/>
      <point x="972.0" y="988.0" type="curve" smooth="yes"/>
      <point x="972.0" y="1126.0"/>
      <point x="886.0" y="1192.0"/>
      <point x="708.0" y="1192.0" type="curve" smooth="yes"/>
      <point x="494.0" y="1192.0" type="line"/>
    </contour>
    <contour>
      <point x="666.0" y="918.0" type="line"/>
      <point x="666.0" y="1060.0" type="line"/>
      <point x="734.0" y="1060.0" type="line" smooth="yes"/>
      <point x="782.0" y="1060.0"/>
      <point x="810.0" y="1036.0"/>
      <point x="810.0" y="988.0" type="curve" smooth="yes"/>
      <point x="810.0" y="940.0"/>
      <point x="784.0" y="918.0"/>
      <point x="734.0" y="918.0" type="curve" smooth="yes"/>
    </contour>
  </outline>
</glyph>
<glyph name="degree" format="2">
  <advance width="1024.0"/>
  <unicode hex="00B0"/>
  <outline>
    <contour>
      <point x="512.0" y="702.0" type="curve" smooth="yes"/>
      <point x="746.0" y="702.0"/>
      <point x="918.0" y="870.0"/>
      <point x="918.0" y="1102.0" type="curve" smooth="yes"/>
      <point x="918.0" y="1334.0"/>
      <point x="746.0" y="1500.0"/>
      <point x="512.0" y="1500.0" type="curve" smooth="yes"/>
      <point x="278.0" y="1500.0"/>
      <point x="106.0" y="1334.0"/>
      <point x="106.0" y="1102.0" type="curve" smooth="yes"/>
      <point x="106.0" y="870.0"/>
      <point x="278.0" y="702.0"/>
    </contour>
    <contour>
      <point x="512.0" y="950.0" type="curve" smooth="yes"/>
      <point x="432.0" y="950.0"/>
      <point x="370.0" y="1008.0"/>
      <point x="370.0" y="1102.0" type="curve" smooth="yes"/>
      <point x="370.0" y="1198.0"/>
      <point x="434.0" y="1252.0"/>
      <point x="512.0" y="1252.0" type="curve" smooth="yes"/>
      <point x="590.0" y="1252.0"/>
      <point x="654.0" y="1198.0"/>
      <point x="654.0" y="1102.0" type="curve" smooth="yes"/>
      <point x="654.0" y="1008.0"/>
      <point x="592.0" y="950.0"/>
    </contour>
  </outline>
</glyph>
<glyph name="twosuperior" format="2">
  <advance width="980.0"/>
  <unicode hex="00B2"/>
  <outline>
    <contour>
      <point x="68.0" y="-136.0" type="line"/>
      <point x="910.0" y="-136.0" type="line"/>
      <point x="910.0" y="138.0" type="line"/>
      <point x="486.0" y="138.0" type="line"/>
      <point x="470.0" y="48.0" type="line"/>
      <point x="704.0" y="268.0" type="line" smooth="yes"/>
      <point x="816.0" y="374.0"/>
      <point x="866.0" y="466.0"/>
      <point x="866.0" y="570.0" type="curve" smooth="yes"/>
      <point x="866.0" y="776.0"/>
      <point x="718.0" y="878.0"/>
      <point x="380.0" y="878.0" type="curve" smooth="yes"/>
      <point x="264.0" y="878.0"/>
      <point x="142.0" y="864.0"/>
      <point x="56.0" y="838.0" type="curve"/>
      <point x="56.0" y="564.0" type="line"/>
      <point x="120.0" y="586.0"/>
      <point x="230.0" y="610.0"/>
      <point x="330.0" y="610.0" type="curve" smooth="yes"/>
      <point x="468.0" y="610.0"/>
      <point x="506.0" y="582.0"/>
      <point x="506.0" y="528.0" type="curve" smooth="yes"/>
      <point x="506.0" y="488.0"/>
      <point x="476.0" y="446.0"/>
      <point x="398.0" y="370.0" type="curve" smooth="yes"/>
      <point x="68.0" y="44.0" type="line"/>
    </contour>
  </outline>
</glyph>
<glyph name="threesuperior" format="2">
  <advance width="980.0"/>
  <unicode hex="00B3"/>
  <outline>
    <contour>
      <point x="400.0" y="-150.0" type="curve" smooth="yes"/>
      <point x="752.0" y="-150.0"/>
      <point x="890.0" y="-30.0"/>
      <point x="890.0" y="152.0" type="curve" smooth="yes"/>
      <point x="890.0" y="290.0"/>
      <point x="806.0" y="360.0"/>
      <point x="686.0" y="382.0" type="curve"/>
      <point x="686.0" y="376.0" type="line"/>
      <point x="788.0" y="400.0"/>
      <point x="852.0" y="482.0"/>
      <point x="852.0" y="586.0" type="curve" smooth="yes"/>
      <point x="852.0" y="772.0"/>
      <point x="708.0" y="878.0"/>
      <point x="384.0" y="878.0" type="curve" smooth="yes"/>
      <point x="280.0" y="878.0"/>
      <point x="148.0" y="860.0"/>
      <point x="76.0" y="838.0" type="curve"/>
      <point x="76.0" y="592.0" type="line"/>
      <point x="152.0" y="618.0"/>
      <point x="266.0" y="636.0"/>
      <point x="348.0" y="636.0" type="curve" smooth="yes"/>
      <point x="466.0" y="636.0"/>
      <point x="504.0" y="606.0"/>
      <point x="504.0" y="560.0" type="curve" smooth="yes"/>
      <point x="504.0" y="524.0"/>
      <point x="480.0" y="496.0"/>
      <point x="376.0" y="496.0" type="curve" smooth="yes"/>
      <point x="156.0" y="496.0" type="line"/>
      <point x="156.0" y="252.0" type="line"/>
      <point x="396.0" y="252.0" type="line" smooth="yes"/>
      <point x="518.0" y="252.0"/>
      <point x="552.0" y="224.0"/>
      <point x="552.0" y="174.0" type="curve" smooth="yes"/>
      <point x="552.0" y="124.0"/>
      <point x="508.0" y="94.0"/>
      <point x="378.0" y="94.0" type="curve" smooth="yes"/>
      <point x="282.0" y="94.0"/>
      <point x="164.0" y="108.0"/>
      <point x="62.0" y="132.0" type="curve"/>
      <point x="62.0" y="-114.0" type="line"/>
      <point x="166.0" y="-138.0"/>
      <point x="278.0" y="-150.0"/>
    </contour>
  </outline>
</glyph>
<glyph name="acute" format="2">
  <advance width="1200.0"/>
  <unicode hex="00B4"/>
  <anchor x="600.0" y="1200.0" name="_top"/>
  <anchor x="600.0" y="1656.0" name="top"/>
  <outline>
    <contour>
      <point x="380.0" y="1220.0" type="line"/>
      <point x="820.0" y="1220.0" type="line"/>
      <point x="1146.0" y="1616.0" type="line"/>
      <point x="638.0" y="1616.0" type="line"/>
    </contour>
  </outline>
</glyph>
<glyph name="periodcentered" format="2">
  <advance width="696.0"/>
  <unicode hex="00B7"/>
  <anchor x="348.0" y="560.0" name="_periodcentered"/>
  <outline>
    <contour>
      <point x="348.0" y="304.0" type="curve" smooth="yes"/>
      <point x="530.0" y="304.0"/>
      <point x="638.0" y="406.0"/>
      <point x="638.0" y="560.0" type="curve" smooth="yes"/>
      <point x="638.0" y="714.0"/>
      <point x="534.0" y="816.0"/>
      <point x="348.0" y="816.0" type="curve" smooth="yes"/>
      <point x="162.0" y="816.0"/>
      <point x="58.0" y="718.0"/>
      <point x="58.0" y="560.0" type="curve" smooth="yes"/>
      <point x="58.0" y="402.0"/>
      <point x="166.0" y="304.0"/>
    </contour>
  </outline>
</glyph>
<glyph name="ordmasculine" format="2">
  <advance width="1222.0"/>
  <unicode hex="00BA"/>
  <outline>
    <contour>
      <point x="610.0" y="592.0" type="curve" smooth="yes"/>
      <point x="982.0" y="592.0"/>
      <point x="1190.0" y="778.0"/>
      <point x="1190.0" y="1050.0" type="curve" smooth="yes"/>
      <point x="1190.0" y="1322.0"/>
      <point x="982.0" y="1502.0"/>
      <point x="610.0" y="1502.0" type="curve" smooth="yes"/>
      <point x="238.0" y="1502.0"/>
      <point x="32.0" y="1322.0"/>
      <point x="32.0" y="1050.0" type="curve" smooth="yes"/>
      <point x="32.0" y="778.0"/>
      <point x="238.0" y="592.0"/>
    </contour>
    <contour>
      <point x="610.0" y="906.0" type="curve" smooth="yes"/>
      <point x="516.0" y="906.0"/>
      <point x="458.0" y="960.0"/>
      <point x="458.0" y="1050.0" type="curve" smooth="yes"/>
      <point x="458.0" y="1140.0"/>
      <point x="516.0" y="1188.0"/>
      <point x="610.0" y="1188.0" type="curve" smooth="yes"/>
      <point x="708.0" y="1188.0"/>
      <point x="764.0" y="1140.0"/>
      <point x="764.0" y="1050.0" type="curve" smooth="yes"/>
      <point x="764.0" y="960.0"/>
      <point x="708.0" y="906.0"/>
    </contour>
  </outline>
</glyph>
<glyph name="guillemetright" format="2">
  <advance width="1558.0"/>
  <unicode hex="00BB"/>
  <outline>
    <contour>
      <point x="32.0" y="130.0" type="line"/>
      <point x="512.0" y="130.0" type="line"/>
      <point x="810.0" y="570.0" type="line"/>
      <point x="512.0" y="1010.0" type="line"/>
      <point x="32.0" y="1010.0" type="line"/>
      <point x="330.0" y="570.0" type="line"/>
    </contour>
    <contour>
      <point x="708.0" y="130.0" type="line"/>
      <point x="1188.0" y="130.0" type="line"/>
      <point x="1486.0" y="570.0" type="line"/>
      <point x="1188.0" y="1010.0" type="line"/>
      <point x="708.0" y="1010.0" type="line"/>
      <point x="1006.0" y="570.0" type="line"/>
    </contour>
  </outline>
</glyph>
<glyph name="onequarter" format="2">
  <advance width="2476.0"/>
  <unicode hex="00BC"/>
  <outline>
    <contour>
      <point x="358.0" y="656.0" type="line"/>
      <point x="726.0" y="656.0" type="line"/>
      <point x="726.0" y="1620.0" type="line"/>
      <point x="478.0" y="1620.0" type="line"/>
      <point x="126.0" y="1406.0" type="line"/>
      <point x="126.0" y="1106.0" type="line"/>
      <point x="478.0" y="1320.0" type="line"/>
      <point x="358.0" y="1444.0" type="line"/>
    </contour>
    <contour>
      <point x="126.0" y="616.0" type="line"/>
      <point x="944.0" y="616.0" type="line"/>
      <point x="944.0" y="890.0" type="line"/>
      <point x="126.0" y="890.0" type="line"/>
    </contour>
    <contour>
      <point x="600.0" y="-136.0" type="line"/>
      <point x="982.0" y="-136.0" type="line"/>
      <point x="1876.0" y="1616.0" type="line"/>
      <point x="1494.0" y="1616.0" type="line"/>
    </contour>
    <contour>
      <point x="1516.0" y="26.0" type="line"/>
      <point x="2456.0" y="26.0" type="line"/>
      <point x="2456.0" y="294.0" type="line"/>
      <point x="1828.0" y="294.0" type="line"/>
      <point x="1846.0" y="212.0" type="line"/>
      <point x="2134.0" y="864.0" type="line"/>
      <point x="1804.0" y="864.0" type="line"/>
      <point x="1516.0" y="212.0" type="line"/>
    </contour>
    <contour>
      <point x="2012.0" y="-136.0" type="line"/>
      <point x="2332.0" y="-136.0" type="line"/>
      <point x="2332.0" y="526.0" type="line"/>
      <point x="2062.0" y="526.0" type="line"/>
      <point x="2012.0" y="294.0" type="line"/>
    </contour>
  </outline>
</glyph>
<glyph name="onehalf" format="2">
  <advance width="2476.0"/>
  <unicode hex="00BD"/>
  <outline>
    <contour>
      <point x="358.0" y="656.0" type="line"/>
      <point x="726.0" y="656.0" type="line"/>
      <point x="726.0" y="1620.0" type="line"/>
      <point x="478.0" y="1620.0" type="line"/>
      <point x="126.0" y="1406.0" type="line"/>
      <point x="126.0" y="1106.0" type="line"/>
      <point x="478.0" y="1320.0" type="line"/>
      <point x="358.0" y="1444.0" type="line"/>
    </contour>
    <contour>
      <point x="126.0" y="616.0" type="line"/>
      <point x="944.0" y="616.0" type="line"/>
      <point x="944.0" y="890.0" type="line"/>
      <point x="126.0" y="890.0" type="line"/>
    </contour>
    <contour>
      <point x="600.0" y="-136.0" type="line"/>
      <point x="982.0" y="-136.0" type="line"/>
      <point x="1876.0" y="1616.0" type="line"/>
      <point x="1494.0" y="1616.0" type="line"/>
    </contour>
    <contour>
      <point x="1564.0" y="-136.0" type="line"/>
      <point x="2406.0" y="-136.0" type="line"/>
      <point x="2406.0" y="138.0" type="line"/>
      <point x="1982.0" y="138.0" type="line"/>
      <point x="1966.0" y="48.0" type="line"/>
      <point x="2200.0" y="268.0" type="line" smooth="yes"/>
      <point x="2312.0" y="374.0"/>
      <point x="2362.0" y="466.0"/>
      <point x="2362.0" y="570.0" type="curve" smooth="yes"/>
      <point x="2362.0" y="776.0"/>
      <point x="2214.0" y="878.0"/>
      <point x="1876.0" y="878.0" type="curve" smooth="yes"/>
      <point x="1760.0" y="878.0"/>
      <point x="1638.0" y="864.0"/>
      <point x="1552.0" y="838.0" type="curve"/>
      <point x="1552.0" y="564.0" type="line"/>
      <point x="1616.0" y="586.0"/>
      <point x="1726.0" y="610.0"/>
      <point x="1826.0" y="610.0" type="curve" smooth="yes"/>
      <point x="1964.0" y="610.0"/>
      <point x="2002.0" y="582.0"/>
      <point x="2002.0" y="528.0" type="curve" smooth="yes"/>
      <point x="2002.0" y="488.0"/>
      <point x="1972.0" y="446.0"/>
      <point x="1894.0" y="370.0" type="curve" smooth="yes"/>
      <point x="1564.0" y="44.0" type="line"/>
    </contour>
  </outline>
</glyph>
<glyph name="Atilde" format="2">
  <advance width="1760.0"/>
  <unicode hex="00C3"/>
  <anchor x="878.0" y="1520.0" name="_top"/>
  <anchor x="880.0" y="0.0" name="bottom"/>
  <anchor x="1744.0" y="0.0" name="ogonek"/>
  <anchor x="878.0" y="1520.0" name="top"/>
  <outline>
    <contour>
      <point x="16.0" y="0.0" type="line"/>
      <point x="476.0" y="0.0" type="line"/>
      <point x="898.0" y="1284.0" type="line"/>
      <point x="858.0" y="1284.0" type="line"/>
      <point x="1280.0" y="0.0" type="line"/>
      <point x="1744.0" y="0.0" type="line"/>
      <point x="1224.0" y="1480.0" type="line"/>
      <point x="536.0" y="1480.0" type="line"/>
    </contour>
    <contour>
      <point x="500.0" y="334.0" type="line"/>
      <point x="1256.0" y="334.0" type="line"/>
      <point x="1148.0" y="684.0" type="line"/>
      <point x="610.0" y="684.0" type="line"/>
    </contour>
    <contour>
      <point x="1076.0" y="1586.0" type="curve" smooth="yes"/>
      <point x="1184.0" y="1586.0"/>
      <point x="1256.0" y="1608.0"/>
      <point x="1322.0" y="1660.0" type="curve"/>
      <point x="1322.0" y="1892.0" type="line"/>
      <point x="1246.0" y="1848.0"/>
      <point x="1182.0" y="1828.0"/>
      <point x="1088.0" y="1828.0" type="curve" smooth="yes"/>
      <point x="944.0" y="1828.0"/>
      <point x="840.0" y="1902.0"/>
      <point x="680.0" y="1902.0" type="curve" smooth="yes"/>
      <point x="572.0" y="1902.0"/>
      <point x="500.0" y="1878.0"/>
      <point x="434.0" y="1826.0" type="curve"/>
      <point x="434.0" y="1594.0" type="line"/>
      <point x="510.0" y="1638.0"/>
      <point x="574.0" y="1658.0"/>
      <point x="668.0" y="1658.0" type="curve" smooth="yes"/>
      <point x="812.0" y="1658.0"/>
      <point x="916.0" y="1586.0"/>
    </contour>
  </outline>
</glyph>
<glyph name="Adieresis" format="2">
  <advance width="1760.0"/>
  <unicode hex="00C4"/>
  <anchor x="878.0" y="1520.0" name="_top"/>
  <anchor x="880.0" y="0.0" name="bottom"/>
  <anchor x="1744.0" y="0.0" name="ogonek"/>
  <anchor x="878.0" y="1520.0" name="top"/>
  <outline>
    <contour>
      <point x="16.0" y="0.0" type="line"/>
      <point x="476.0" y="0.0" type="line"/>
      <point x="898.0" y="1284.0" type="line"/>
      <point x="858.0" y="1284.0" type="line"/>
      <point x="1280.0" y="0.0" type="line"/>
      <point x="1744.0" y="0.0" type="line"/>
      <point x="1224.0" y="1480.0" type="line"/>
      <point x="536.0" y="1480.0" type="line"/>
    </contour>
    <contour>
      <point x="500.0" y="334.0" type="line"/>
      <point x="1256.0" y="334.0" type="line"/>
      <point x="1148.0" y="684.0" type="line"/>
      <point x="610.0" y="684.0" type="line"/>
    </contour>
    <contour>
      <point x="1174.0" y="1570.0" type="curve" smooth="yes"/>
      <point x="1334.0" y="1570.0"/>
      <point x="1402.0" y="1638.0"/>
      <point x="1402.0" y="1750.0" type="curve" smooth="yes"/>
      <point x="1402.0" y="1862.0"/>
      <point x="1334.0" y="1930.0"/>
      <point x="1174.0" y="1930.0" type="curve" smooth="yes"/>
      <point x="1014.0" y="1930.0"/>
      <point x="946.0" y="1862.0"/>
      <point x="946.0" y="1750.0" type="curve" smooth="yes"/>
      <point x="946.0" y="1638.0"/>
      <point x="1014.0" y="1570.0"/>
    </contour>
    <contour>
      <point x="582.0" y="1570.0" type="curve" smooth="yes"/>
      <point x="742.0" y="1570.0"/>
      <point x="810.0" y="1638.0"/>
      <point x="810.0" y="1750.0" type="curve" smooth="yes"/>
      <point x="810.0" y="1862.0"/>
      <point x="742.0" y="1930.0"/>
      <point x="582.0" y="1930.0" type="curve" smooth="yes"/>
      <point x="422.0" y="1930.0"/>
      <point x="354.0" y="1862.0"/>
      <point x="354.0" y="1750.0" type="curve" smooth="yes"/>
      <point x="354.0" y="1638.0"/>
      <point x="422.0" y="1570.0"/>
    </contour>
  </outline>
</glyph>
<glyph name="Eacute" format="2">
  <advance width="1498.0"/>
  <unicode hex="00C9"/>
  <anchor x="788.0" y="1520.0" name="_top"/>
  <anchor x="788.0" y="0.0" name="bottom"/>
  <anchor x="1312.0" y="0.0" name="ogonek"/>
  <anchor x="788.0" y="1520.0" name="top"/>
  <anchor x="40.0" y="1480.0" name="topleft"/>
  <outline>
    <contour>
      <point x="130.0" y="0.0" type="line"/>
      <point x="1412.0" y="0.0" type="line"/>
      <point x="1412.0" y="350.0" type="line"/>
      <point x="600.0" y="350.0" type="line"/>
      <point x="600.0" y="1130.0" type="line"/>
      <point x="1402.0" y="1130.0" type="line"/>
      <point x="1402.0" y="1480.0" type="line"/>
      <point x="130.0" y="1480.0" type="line"/>
    </contour>
    <contour>
      <point x="358.0" y="580.0" type="line"/>
      <point x="1296.0" y="580.0" type="line"/>
      <point x="1296.0" y="930.0" type="line"/>
      <point x="358.0" y="930.0" type="line"/>
    </contour>
    <contour>
      <point x="574.0" y="1586.0" type="line"/>
      <point x="994.0" y="1586.0" type="line"/>
      <point x="1266.0" y="1902.0" type="line"/>
      <point x="778.0" y="1902.0" type="line"/>
    </contour>
  </outline>
</glyph>
<glyph name="Edieresis" format="2">
  <advance width="1498.0"/>
  <unicode hex="00CB"/>
  <anchor x="788.0" y="1520.0" name="_top"/>
  <anchor x="788.0" y="0.0" name="bottom"/>
  <anchor x="1312.0" y="0.0" name="ogonek"/>
  <anchor x="788.0" y="1520.0" name="top"/>
  <anchor x="40.0" y="1480.0" name="topleft"/>
  <outline>
    <contour>
      <point x="130.0" y="0.0" type="line"/>
      <point x="1412.0" y="0.0" type="line"/>
      <point x="1412.0" y="350.0" type="line"/>
      <point x="600.0" y="350.0" type="line"/>
      <point x="600.0" y="1130.0" type="line"/>
      <point x="1402.0" y="1130.0" type="line"/>
      <point x="1402.0" y="1480.0" type="line"/>
      <point x="130.0" y="1480.0" type="line"/>
    </contour>
    <contour>
      <point x="358.0" y="580.0" type="line"/>
      <point x="1296.0" y="580.0" type="line"/>
      <point x="1296.0" y="930.0" type="line"/>
      <point x="358.0" y="930.0" type="line"/>
    </contour>
    <contour>
      <point x="1084.0" y="1570.0" type="curve" smooth="yes"/>
      <point x="1244.0" y="1570.0"/>
      <point x="1312.0" y="1638.0"/>
      <point x="1312.0" y="1750.0" type="curve" smooth="yes"/>
      <point x="1312.0" y="1862.0"/>
      <point x="1244.0" y="1930.0"/>
      <point x="1084.0" y="1930.0" type="curve" smooth="yes"/>
      <point x="924.0" y="1930.0"/>
      <point x="856.0" y="1862.0"/>
      <point x="856.0" y="1750.0" type="curve" smooth="yes"/>
      <point x="856.0" y="1638.0"/>
      <point x="924.0" y="1570.0"/>
    </contour>
    <contour>
      <point x="492.0" y="1570.0" type="curve" smooth="yes"/>
      <point x="652.0" y="1570.0"/>
      <point x="720.0" y="1638.0"/>
      <point x="720.0" y="1750.0" type="curve" smooth="yes"/>
      <point x="720.0" y="1862.0"/>
      <point x="652.0" y="1930.0"/>
      <point x="492.0" y="1930.0" type="curve" smooth="yes"/>
      <point x="332.0" y="1930.0"/>
      <point x="264.0" y="1862.0"/>
      <point x="264.0" y="1750.0" type="curve" smooth="yes"/>
      <point x="264.0" y="1638.0"/>
      <point x="332.0" y="1570.0"/>
    </contour>
  </outline>
</glyph>
<glyph name="Igrave" format="2">
  <advance width="736.0"/>
  <unicode hex="00CC"/>
  <anchor x="368.0" y="1520.0" name="_top"/>
  <anchor x="366.0" y="0.0" name="bottom"/>
  <anchor x="606.0" y="0.0" name="ogonek"/>
  <anchor x="368.0" y="1520.0" name="top"/>
  <outline>
    <contour>
      <point x="130.0" y="0.0" type="line"/>
      <point x="606.0" y="0.0" type="line"/>
      <point x="606.0" y="1480.0" type="line"/>
      <point x="130.0" y="1480.0" type="line"/>
    </contour>
    <contour>
      <point x="158.0" y="1586.0" type="line"/>
      <point x="578.0" y="1586.0" type="line"/>
      <point x="374.0" y="1902.0" type="line"/>
      <point x="-114.0" y="1902.0" type="line"/>
    </contour>
  </outline>
</glyph>
<glyph name="Iacute" format="2">
  <advance width="736.0"/>
  <unicode hex="00CD"/>
  <anchor x="368.0" y="1520.0" name="_top"/>
  <anchor x="366.0" y="0.0" name="bottom"/>
  <anchor x="606.0" y="0.0" name="ogonek"/>
  <anchor x="368.0" y="1520.0" name="top"/>
  <outline>
    <contour>
      <point x="130.0" y="0.0" type="line"/>
      <point x="606.0" y="0.0" type="line"/>
      <point x="606.0" y="1480.0" type="line"/>
      <point x="130.0" y="1480.0" type="line"/>
    </contour>
    <contour>
      <point x="154.0" y="1586.0" type="line"/>
      <point x="574.0" y="1586.0" type="line"/>
      <point x="846.0" y="1902.0" type="line"/>
      <point x="358.0" y="1902.0" type="line"/>
    </contour>
  </outline>
</glyph>
<glyph name="Icircumflex" format="2">
  <advance width="736.0"/>
  <unicode hex="00CE"/>
  <anchor x="368.0" y="1520.0" name="_top"/>
  <anchor x="366.0" y="0.0" name="bottom"/>
  <anchor x="606.0" y="0.0" name="ogonek"/>
  <anchor x="368.0" y="1520.0" name="top"/>
  <outline>
    <contour>
      <point x="130.0" y="0.0" type="line"/>
      <point x="606.0" y="0.0" type="line"/>
      <point x="606.0" y="1480.0" type="line"/>
      <point x="130.0" y="1480.0" type="line"/>
    </contour>
    <contour>
      <point x="-156.0" y="1586.0" type="line"/>
      <point x="208.0" y="1586.0" type="line"/>
      <point x="406.0" y="1778.0" type="line"/>
      <point x="330.0" y="1778.0" type="line"/>
      <point x="528.0" y="1586.0" type="line"/>
      <point x="892.0" y="1586.0" type="line"/>
      <point x="560.0" y="1902.0" type="line"/>
      <point x="176.0" y="1902.0" type="line"/>
    </contour>
  </outline>
</glyph>
<glyph name="Idieresis" format="2">
  <advance width="736.0"/>
  <unicode hex="00CF"/>
  <anchor x="368.0" y="1520.0" name="_top"/>
  <anchor x="366.0" y="0.0" name="bottom"/>
  <anchor x="606.0" y="0.0" name="ogonek"/>
  <anchor x="368.0" y="1520.0" name="top"/>
  <outline>
    <contour>
      <point x="130.0" y="0.0" type="line"/>
      <point x="606.0" y="0.0" type="line"/>
      <point x="606.0" y="1480.0" type="line"/>
      <point x="130.0" y="1480.0" type="line"/>
    </contour>
    <contour>
      <point x="664.0" y="1570.0" type="curve" smooth="yes"/>
      <point x="824.0" y="1570.0"/>
      <point x="892.0" y="1638.0"/>
      <point x="892.0" y="1750.0" type="curve" smooth="yes"/>
      <point x="892.0" y="1862.0"/>
      <point x="824.0" y="1930.0"/>
      <point x="664.0" y="1930.0" type="curve" smooth="yes"/>
      <point x="504.0" y="1930.0"/>
      <point x="436.0" y="1862.0"/>
      <point x="436.0" y="1750.0" type="curve" smooth="yes"/>
      <point x="436.0" y="1638.0"/>
      <point x="504.0" y="1570.0"/>
    </contour>
    <contour>
      <point x="72.0" y="1570.0" type="curve" smooth="yes"/>
      <point x="232.0" y="1570.0"/>
      <point x="300.0" y="1638.0"/>
      <point x="300.0" y="1750.0" type="curve" smooth="yes"/>
      <point x="300.0" y="1862.0"/>
      <point x="232.0" y="1930.0"/>
      <point x="72.0" y="1930.0" type="curve" smooth="yes"/>
      <point x="-88.0" y="1930.0"/>
      <point x="-156.0" y="1862.0"/>
      <point x="-156.0" y="1750.0" type="curve" smooth="yes"/>
      <point x="-156.0" y="1638.0"/>
      <point x="-88.0" y="1570.0"/>
    </contour>
  </outline>
</glyph>
<glyph name="Otilde" format="2">
  <advance width="1892.0"/>
  <unicode hex="00D5"/>
  <anchor x="946.0" y="1520.0" name="_top"/>
  <anchor x="946.0" y="0.0" name="bottom"/>
  <anchor x="946.0" y="740.0" name="center"/>
  <anchor x="1104.0" y="0.0" name="ogonek"/>
  <anchor x="946.0" y="1520.0" name="top"/>
  <anchor x="60.0" y="1480.0" name="topleft"/>
  <anchor x="1176.0" y="1480.0" name="topright"/>
  <outline>
    <contour>
      <point x="946.0" y="-20.0" type="curve" smooth="yes"/>
      <point x="1480.0" y="-20.0"/>
      <point x="1808.0" y="274.0"/>
      <point x="1808.0" y="740.0" type="curve" smooth="yes"/>
      <point x="1808.0" y="1206.0"/>
      <point x="1482.0" y="1500.0"/>
      <point x="946.0" y="1500.0" type="curve" smooth="yes"/>
      <point x="410.0" y="1500.0"/>
      <point x="84.0" y="1210.0"/>
      <point x="84.0" y="740.0" type="curve" smooth="yes"/>
      <point x="84.0" y="270.0"/>
      <point x="412.0" y="-20.0"/>
    </contour>
    <contour>
      <point x="946.0" y="348.0" type="curve" smooth="yes"/>
      <point x="700.0" y="348.0"/>
      <point x="568.0" y="480.0"/>
      <point x="568.0" y="748.0" type="curve" smooth="yes"/>
      <point x="568.0" y="1000.0"/>
      <point x="706.0" y="1132.0"/>
      <point x="946.0" y="1132.0" type="curve" smooth="yes"/>
      <point x="1186.0" y="1132.0"/>
      <point x="1324.0" y="994.0"/>
      <point x="1324.0" y="732.0" type="curve" smooth="yes"/>
      <point x="1324.0" y="486.0"/>
      <point x="1192.0" y="348.0"/>
    </contour>
    <contour>
      <point x="1144.0" y="1586.0" type="curve" smooth="yes"/>
      <point x="1252.0" y="1586.0"/>
      <point x="1324.0" y="1608.0"/>
      <point x="1390.0" y="1660.0" type="curve"/>
      <point x="1390.0" y="1892.0" type="line"/>
      <point x="1314.0" y="1848.0"/>
      <point x="1250.0" y="1828.0"/>
      <point x="1156.0" y="1828.0" type="curve" smooth="yes"/>
      <point x="1012.0" y="1828.0"/>
      <point x="908.0" y="1902.0"/>
      <point x="748.0" y="1902.0" type="curve" smooth="yes"/>
      <point x="640.0" y="1902.0"/>
      <point x="568.0" y="1878.0"/>
      <point x="502.0" y="1826.0" type="curve"/>
      <point x="502.0" y="1594.0" type="line"/>
      <point x="578.0" y="1638.0"/>
      <point x="642.0" y="1658.0"/>
      <point x="736.0" y="1658.0" type="curve" smooth="yes"/>
      <point x="880.0" y="1658.0"/>
      <point x="984.0" y="1586.0"/>
    </contour>
  </outline>
</glyph>
<glyph name="multiply" format="2">
  <advance width="1128.0"/>
  <unicode hex="00D7"/>
  <outline>
    <contour>
      <point x="314.0" y="270.0" type="line"/>
      <point x="564.0" y="520.0" type="line"/>
      <point x="814.0" y="270.0" type="line"/>
      <point x="1054.0" y="510.0" type="line"/>
      <point x="804.0" y="760.0" type="line"/>
      <point x="1054.0" y="1010.0" type="line"/>
      <point x="814.0" y="1250.0" type="line"/>
      <point x="564.0" y="1000.0" type="line"/>
      <point x="314.0" y="1250.0" type="line"/>
      <point x="74.0" y="1010.0" type="line"/>
      <point x="324.0" y="760.0" type="line"/>
      <point x="74.0" y="510.0" type="line"/>
    </contour>
  </outline>
</glyph>
<glyph name="Oslash" format="2">
  <advance width="1892.0"/>
  <unicode hex="00D8"/>
  <anchor x="946.0" y="740.0" name="_center"/>
  <anchor x="942.0" y="0.0" name="bottom"/>
  <anchor x="946.0" y="740.0" name="center"/>
  <anchor x="1104.0" y="0.0" name="ogonek"/>
  <anchor x="942.0" y="1520.0" name="top"/>
  <anchor x="60.0" y="1480.0" name="topleft"/>
  <anchor x="1176.0" y="1480.0" name="topright"/>
  <outline>
    <contour>
      <point x="946.0" y="-20.0" type="curve" smooth="yes"/>
      <point x="1480.0" y="-20.0"/>
      <point x="1808.0" y="274.0"/>
      <point x="1808.0" y="740.0" type="curve" smooth="yes"/>
      <point x="1808.0" y="1206.0"/>
      <point x="1482.0" y="1500.0"/>
      <point x="946.0" y="1500.0" type="curve" smooth="yes"/>
      <point x="410.0" y="1500.0"/>
      <point x="84.0" y="1210.0"/>
      <point x="84.0" y="740.0" type="curve" smooth="yes"/>
      <point x="84.0" y="270.0"/>
      <point x="412.0" y="-20.0"/>
    </contour>
    <contour>
      <point x="946.0" y="348.0" type="curve" smooth="yes"/>
      <point x="700.0" y="348.0"/>
      <point x="568.0" y="480.0"/>
      <point x="568.0" y="748.0" type="curve" smooth="yes"/>
      <point x="568.0" y="1000.0"/>
      <point x="706.0" y="1132.0"/>
      <point x="946.0" y="1132.0" type="curve" smooth="yes"/>
      <point x="1186.0" y="1132.0"/>
      <point x="1324.0" y="994.0"/>
      <point x="1324.0" y="732.0" type="curve" smooth="yes"/>
      <point x="1324.0" y="486.0"/>
      <point x="1192.0" y="348.0"/>
    </contour>
    <contour>
      <point x="350.0" y="-62.0" type="line"/>
      <point x="1710.0" y="1388.0" type="line"/>
      <point x="1542.0" y="1542.0" type="line"/>
      <point x="182.0" y="92.0" type="line"/>
    </contour>
  </outline>
</glyph>
<glyph name="Ugrave" format="2">
  <advance width="1756.0"/>
  <unicode hex="00D9"/>
  <anchor x="882.0" y="1520.0" name="_top"/>
  <anchor x="882.0" y="0.0" name="bottom"/>
  <anchor x="1140.0" y="0.0" name="ogonek"/>
  <anchor x="882.0" y="1520.0" name="top"/>
  <anchor x="1164.0" y="1480.0" name="topright"/>
  <outline>
    <contour>
      <point x="882.0" y="-20.0" type="curve" smooth="yes"/>
      <point x="1414.0" y="-20.0"/>
      <point x="1632.0" y="246.0"/>
      <point x="1632.0" y="694.0" type="curve" smooth="yes"/>
      <point x="1632.0" y="1480.0" type="line"/>
      <point x="1164.0" y="1480.0" type="line"/>
      <point x="1164.0" y="656.0" type="line" smooth="yes"/>
      <point x="1164.0" y="450.0"/>
      <point x="1070.0" y="356.0"/>
      <point x="882.0" y="356.0" type="curve" smooth="yes"/>
      <point x="694.0" y="356.0"/>
      <point x="600.0" y="450.0"/>
      <point x="600.0" y="656.0" type="curve" smooth="yes"/>
      <point x="600.0" y="1480.0" type="line"/>
      <point x="124.0" y="1480.0" type="line"/>
      <point x="124.0" y="694.0" type="line" smooth="yes"/>
      <point x="124.0" y="246.0"/>
      <point x="340.0" y="-20.0"/>
    </contour>
    <contour>
      <point x="672.0" y="1586.0" type="line"/>
      <point x="1092.0" y="1586.0" type="line"/>
      <point x="888.0" y="1902.0" type="line"/>
      <point x="400.0" y="1902.0" type="line"/>
    </contour>
  </outline>
</glyph>
<glyph name="Yacute" format="2">
  <advance width="1532.0"/>
  <unicode hex="00DD"/>
  <anchor x="764.0" y="1520.0" name="_top"/>
  <anchor x="764.0" y="0.0" name="bottom"/>
  <anchor x="764.0" y="1520.0" name="top"/>
  <anchor x="12.0" y="1480.0" name="topleft"/>
  <outline>
    <contour>
      <point x="532.0" y="0.0" type="line"/>
      <point x="1008.0" y="0.0" type="line"/>
      <point x="1008.0" y="776.0" type="line"/>
      <point x="916.0" y="466.0" type="line"/>
      <point x="1572.0" y="1480.0" type="line"/>
      <point x="1104.0" y="1480.0" type="line"/>
      <point x="712.0" y="872.0" type="line"/>
      <point x="844.0" y="872.0" type="line"/>
      <point x="442.0" y="1480.0" type="line"/>
      <point x="-60.0" y="1480.0" type="line"/>
      <point x="624.0" y="466.0" type="line"/>
      <point x="532.0" y="782.0" type="line"/>
    </contour>
    <contour>
      <point x="550.0" y="1586.0" type="line"/>
      <point x="970.0" y="1586.0" type="line"/>
      <point x="1242.0" y="1902.0" type="line"/>
      <point x="754.0" y="1902.0" type="line"/>
    </contour>
  </outline>
</glyph>
<glyph name="Thorn" format="2">
  <advance width="1538.0"/>
  <unicode hex="00DE"/>
  <outline>
    <contour>
      <point x="130.0" y="0.0" type="line"/>
      <point x="606.0" y="0.0" type="line"/>
      <point x="606.0" y="206.0" type="line"/>
      <point x="644.0" y="206.0"/>
      <point x="692.0" y="204.0"/>
      <point x="734.0" y="204.0" type="curve" smooth="yes"/>
      <point x="1202.0" y="204.0"/>
      <point x="1450.0" y="390.0"/>
      <point x="1450.0" y="760.0" type="curve" smooth="yes"/>
      <point x="1450.0" y="1146.0"/>
      <point x="1200.0" y="1316.0"/>
      <point x="686.0" y="1316.0" type="curve" smooth="yes"/>
      <point x="662.0" y="1316.0"/>
      <point x="630.0" y="1314.0"/>
      <point x="606.0" y="1314.0" type="curve"/>
      <point x="606.0" y="1480.0" type="line"/>
      <point x="130.0" y="1480.0" type="line"/>
    </contour>
    <contour>
      <point x="734.0" y="530.0" type="curve" smooth="yes"/>
      <point x="686.0" y="530.0"/>
      <point x="652.0" y="532.0"/>
      <point x="606.0" y="536.0" type="curve"/>
      <point x="606.0" y="982.0" type="line"/>
      <point x="644.0" y="988.0"/>
      <point x="678.0" y="990.0"/>
      <point x="722.0" y="990.0" type="curve" smooth="yes"/>
      <point x="910.0" y="990.0"/>
      <point x="992.0" y="922.0"/>
      <point x="992.0" y="760.0" type="curve" smooth="yes"/>
      <point x="992.0" y="588.0"/>
      <point x="910.0" y="530.0"/>
    </contour>
  </outline>
</glyph>
<glyph name="germandbls" format="2">
  <advance width="1940.0"/>
  <unicode hex="00DF"/>
  <outline>
    <contour>
      <point x="1242.0" y="-22.0" type="curve" smooth="yes"/>
      <point x="1670.0" y="-22.0"/>
      <point x="1886.0" y="120.0"/>
      <point x="1886.0" y="356.0" type="curve" smooth="yes"/>
      <point x="1886.0" y="584.0"/>
      <point x="1752.0" y="664.0"/>
      <point x="1528.0" y="692.0" type="curve" smooth="yes"/>
      <point x="1292.0" y="722.0" type="line" smooth="yes"/>
      <point x="1242.0" y="728.0"/>
      <point x="1230.0" y="738.0"/>
      <point x="1230.0" y="756.0" type="curve" smooth="yes"/>
      <point x="1230.0" y="784.0"/>
      <point x="1258.0" y="814.0"/>
      <point x="1486.0" y="814.0" type="curve" smooth="yes"/>
      <point x="1558.0" y="814.0"/>
      <point x="1620.0" y="812.0"/>
      <point x="1678.0" y="808.0" type="curve"/>
      <point x="1696.0" y="886.0"/>
      <point x="1710.0" y="942.0"/>
      <point x="1710.0" y="1026.0" type="curve" smooth="yes"/>
      <point x="1710.0" y="1430.0"/>
      <point x="1440.0" y="1636.0"/>
      <point x="1022.0" y="1636.0" type="curve" smooth="yes"/>
      <point x="520.0" y="1636.0"/>
      <point x="230.0" y="1380.0"/>
      <point x="230.0" y="952.0" type="curve" smooth="yes"/>
      <point x="230.0" y="0.0" type="line"/>
      <point x="694.0" y="0.0" type="line"/>
      <point x="694.0" y="968.0" type="line" smooth="yes"/>
      <point x="694.0" y="1212.0"/>
      <point x="812.0" y="1340.0"/>
      <point x="1064.0" y="1340.0" type="curve" smooth="yes"/>
      <point x="1266.0" y="1340.0"/>
      <point x="1392.0" y="1258.0"/>
      <point x="1392.0" y="1094.0" type="curve" smooth="yes"/>
      <point x="1392.0" y="1024.0"/>
      <point x="1380.0" y="960.0"/>
      <point x="1360.0" y="896.0" type="curve"/>
      <point x="1600.0" y="1100.0" type="line"/>
      <point x="1554.0" y="1104.0"/>
      <point x="1444.0" y="1106.0"/>
      <point x="1400.0" y="1106.0" type="curve" smooth="yes"/>
      <point x="1004.0" y="1106.0"/>
      <point x="794.0" y="970.0"/>
      <point x="794.0" y="736.0" type="curve" smooth="yes"/>
      <point x="794.0" y="552.0"/>
      <point x="888.0" y="438.0"/>
      <point x="1154.0" y="404.0" type="curve" smooth="yes"/>
      <point x="1390.0" y="374.0" type="line" smooth="yes"/>
      <point x="1440.0" y="368.0"/>
      <point x="1450.0" y="358.0"/>
      <point x="1450.0" y="336.0" type="curve" smooth="yes"/>
      <point x="1450.0" y="302.0"/>
      <point x="1410.0" y="282.0"/>
      <point x="1234.0" y="282.0" type="curve" smooth="yes"/>
      <point x="1110.0" y="282.0"/>
      <point x="930.0" y="306.0"/>
      <point x="824.0" y="330.0" type="curve"/>
      <point x="824.0" y="24.0" type="line"/>
      <point x="950.0" y="-6.0"/>
      <point x="1124.0" y="-22.0"/>
    </contour>
    <contour>
      <point x="50.0" y="728.0" type="line"/>
      <point x="382.0" y="728.0" type="line"/>
      <point x="382.0" y="1100.0" type="line"/>
      <point x="50.0" y="1100.0" type="line"/>
    </contour>
  </outline>
</glyph>
<glyph name="ae" format="2">
  <advance width="2034.0"/>
  <unicode hex="00E6"/>
  <anchor x="1022.0" y="0.0" name="bottom"/>
  <anchor x="1022.0" y="1200.0" name="top"/>
  <outline>
    <contour>
      <point x="1518.0" y="-22.0" type="curve" smooth="yes"/>
      <point x="1632.0" y="-22.0"/>
      <point x="1760.0" y="-16.0"/>
      <point x="1902.0" y="8.0" type="curve"/>
      <point x="1902.0" y="326.0" type="line"/>
      <point x="1802.0" y="312.0"/>
      <point x="1684.0" y="302.0"/>
      <point x="1592.0" y="302.0" type="curve" smooth="yes"/>
      <point x="1286.0" y="302.0"/>
      <point x="1236.0" y="348.0"/>
      <point x="1236.0" y="476.0" type="curve" smooth="yes"/>
      <point x="1236.0" y="652.0" type="line" smooth="yes"/>
      <point x="1236.0" y="786.0"/>
      <point x="1286.0" y="846.0"/>
      <point x="1394.0" y="846.0" type="curve" smooth="yes"/>
      <point x="1502.0" y="846.0"/>
      <point x="1552.0" y="784.0"/>
      <point x="1552.0" y="650.0" type="curve"/>
      <point x="1620.0" y="668.0" type="line"/>
      <point x="1126.0" y="668.0" type="line"/>
      <point x="1126.0" y="428.0" type="line"/>
      <point x="1978.0" y="428.0" type="line"/>
      <point x="1978.0" y="530.0" type="line" smooth="yes"/>
      <point x="1978.0" y="892.0"/>
      <point x="1782.0" y="1118.0"/>
      <point x="1422.0" y="1118.0" type="curve" smooth="yes"/>
      <point x="1070.0" y="1118.0"/>
      <point x="842.0" y="892.0"/>
      <point x="842.0" y="568.0" type="curve"/>
      <point x="782.0" y="546.0" type="line"/>
      <point x="782.0" y="156.0"/>
      <point x="1008.0" y="-22.0"/>
    </contour>
    <contour>
      <point x="528.0" y="-22.0" type="curve" smooth="yes"/>
      <point x="692.0" y="-22.0"/>
      <point x="856.0" y="34.0"/>
      <point x="982.0" y="150.0" type="curve"/>
      <point x="846.0" y="342.0" type="line"/>
      <point x="772.0" y="288.0"/>
      <point x="718.0" y="272.0"/>
      <point x="642.0" y="272.0" type="curve" smooth="yes"/>
      <point x="556.0" y="272.0"/>
      <point x="516.0" y="300.0"/>
      <point x="516.0" y="348.0" type="curve" smooth="yes"/>
      <point x="516.0" y="398.0"/>
      <point x="550.0" y="432.0"/>
      <point x="656.0" y="432.0" type="curve" smooth="yes"/>
      <point x="860.0" y="432.0" type="line"/>
      <point x="860.0" y="668.0" type="line"/>
      <point x="612.0" y="668.0" type="line" smooth="yes"/>
      <point x="226.0" y="668.0"/>
      <point x="58.0" y="532.0"/>
      <point x="58.0" y="314.0" type="curve" smooth="yes"/>
      <point x="58.0" y="124.0"/>
      <point x="200.0" y="-22.0"/>
    </contour>
    <contour>
      <point x="782.0" y="546.0" type="line"/>
      <point x="1176.0" y="546.0" type="line"/>
      <point x="1176.0" y="574.0" type="line" smooth="yes"/>
      <point x="1176.0" y="984.0"/>
      <point x="992.0" y="1118.0"/>
      <point x="576.0" y="1118.0" type="curve" smooth="yes"/>
      <point x="452.0" y="1118.0"/>
      <point x="308.0" y="1102.0"/>
      <point x="172.0" y="1066.0" type="curve"/>
      <point x="172.0" y="744.0" type="line"/>
      <point x="280.0" y="774.0"/>
      <point x="418.0" y="790.0"/>
      <point x="512.0" y="790.0" type="curve" smooth="yes"/>
      <point x="720.0" y="790.0"/>
      <point x="782.0" y="742.0"/>
      <point x="782.0" y="614.0" type="curve" smooth="yes"/>
    </contour>
  </outline>
</glyph>
<glyph name="ccedilla" format="2">
  <advance width="1194.0"/>
  <unicode hex="00E7"/>
  <anchor x="676.0" y="0.0" name="_bottom"/>
  <anchor x="676.0" y="0.0" name="bottom"/>
  <anchor x="648.0" y="1200.0" name="top"/>
  <outline>
    <contour>
      <point x="792.0" y="-22.0" type="curve" smooth="yes"/>
      <point x="926.0" y="-22.0"/>
      <point x="1044.0" y="-4.0"/>
      <point x="1126.0" y="20.0" type="curve"/>
      <point x="1126.0" y="368.0" type="line"/>
      <point x="1002.0" y="344.0"/>
      <point x="930.0" y="334.0"/>
      <point x="840.0" y="334.0" type="curve" smooth="yes"/>
      <point x="640.0" y="334.0"/>
      <point x="538.0" y="410.0"/>
      <point x="538.0" y="546.0" type="curve" smooth="yes"/>
      <point x="538.0" y="684.0"/>
      <point x="630.0" y="762.0"/>
      <point x="860.0" y="762.0" type="curve" smooth="yes"/>
      <point x="952.0" y="762.0"/>
      <point x="1028.0" y="754.0"/>
      <point x="1126.0" y="740.0" type="curve"/>
      <point x="1126.0" y="1088.0" type="line"/>
      <point x="1034.0" y="1108.0"/>
      <point x="932.0" y="1118.0"/>
      <point x="812.0" y="1118.0" type="curve" smooth="yes"/>
      <point x="324.0" y="1118.0"/>
      <point x="66.0" y="906.0"/>
      <point x="66.0" y="546.0" type="curve" smooth="yes"/>
      <point x="66.0" y="186.0"/>
      <point x="318.0" y="-22.0"/>
    </contour>
    <contour>
      <point x="670.0" y="-460.0" type="curve" smooth="yes"/>
      <point x="866.0" y="-460.0"/>
      <point x="968.0" y="-386.0"/>
      <point x="968.0" y="-266.0" type="curve" smooth="yes"/>
      <point x="968.0" y="-146.0"/>
      <point x="886.0" y="-66.0"/>
      <point x="694.0" y="-66.0" type="curve"/>
      <point x="790.0" y="-122.0" type="line"/>
      <point x="790.0" y="20.0" type="line"/>
      <point x="588.0" y="20.0" type="line"/>
      <point x="588.0" y="-184.0" type="line"/>
      <point x="650.0" y="-184.0" type="line" smooth="yes"/>
      <point x="710.0" y="-184.0"/>
      <point x="744.0" y="-200.0"/>
      <point x="744.0" y="-244.0" type="curve" smooth="yes"/>
      <point x="744.0" y="-288.0"/>
      <point x="710.0" y="-304.0"/>
      <point x="648.0" y="-304.0" type="curve" smooth="yes"/>
      <point x="596.0" y="-304.0"/>
      <point x="514.0" y="-294.0"/>
      <point x="462.0" y="-274.0" type="curve"/>
      <point x="462.0" y="-428.0" type="line"/>
      <point x="520.0" y="-448.0"/>
      <point x="592.0" y="-460.0"/>
    </contour>
  </outline>
</glyph>
<glyph name="icircumflex" format="2">
  <advance width="696.0"/>
  <unicode hex="00EE"/>
  <anchor x="348.0" y="1200.0" name="_top"/>
  <anchor x="348.0" y="0.0" name="bottom"/>
  <anchor x="580.0" y="0.0" name="ogonek"/>
  <anchor x="348.0" y="1200.0" name="top"/>
  <outline>
    <contour>
      <point x="116.0" y="0.0" type="line"/>
      <point x="580.0" y="0.0" type="line"/>
      <point x="580.0" y="1100.0" type="line"/>
      <point x="116.0" y="1100.0" type="line"/>
    </contour>
    <contour>
      <point x="-116.0" y="1220.0" type="line"/>
      <point x="218.0" y="1220.0" type="line"/>
      <point x="382.0" y="1456.0" type="line"/>
      <point x="314.0" y="1456.0" type="line"/>
      <point x="478.0" y="1220.0" type="line"/>
      <point x="812.0" y="1220.0" type="line"/>
      <point x="526.0" y="1616.0" type="line"/>
      <point x="170.0" y="1616.0" type="line"/>
    </contour>
  </outline>
</glyph>
<glyph name="idieresis" format="2">
  <advance width="696.0"/>
  <unicode hex="00EF"/>
  <anchor x="348.0" y="1200.0" name="_top"/>
  <anchor x="348.0" y="0.0" name="bottom"/>
  <anchor x="580.0" y="0.0" name="ogonek"/>
  <anchor x="348.0" y="1200.0" name="top"/>
  <outline>
    <contour>
      <point x="116.0" y="0.0" type="line"/>
      <point x="580.0" y="0.0" type="line"/>
      <point x="580.0" y="1100.0" type="line"/>
      <point x="116.0" y="1100.0" type="line"/>
    </contour>
    <contour>
      <point x="634.0" y="1210.0" type="curve" smooth="yes"/>
      <point x="796.0" y="1210.0"/>
      <point x="868.0" y="1288.0"/>
      <point x="868.0" y="1418.0" type="curve" smooth="yes"/>
      <point x="868.0" y="1548.0"/>
      <point x="796.0" y="1626.0"/>
      <point x="634.0" y="1626.0" type="curve" smooth="yes"/>
      <point x="472.0" y="1626.0"/>
      <point x="400.0" y="1548.0"/>
      <point x="400.0" y="1418.0" type="curve" smooth="yes"/>
      <point x="400.0" y="1288.0"/>
      <point x="472.0" y="1210.0"/>
    </contour>
    <contour>
      <point x="62.0" y="1210.0" type="curve" smooth="yes"/>
      <point x="224.0" y="1210.0"/>
      <point x="296.0" y="1288.0"/>
      <point x="296.0" y="1418.0" type="curve" smooth="yes"/>
      <point x="296.0" y="1548.0"/>
      <point x="224.0" y="1626.0"/>
      <point x="62.0" y="1626.0" type="curve" smooth="yes"/>
      <point x="-100.0" y="1626.0"/>
      <point x="-172.0" y="1548.0"/>
      <point x="-172.0" y="1418.0" type="curve" smooth="yes"/>
      <point x="-172.0" y="1288.0"/>
      <point x="-100.0" y="1210.0"/>
    </contour>
  </outline>
</glyph>
<glyph name="eth" format="2">
  <advance width="1464.0"/>
  <unicode hex="00F0"/>
  <outline>
    <contour>
      <point x="732.0" y="-22.0" type="curve" smooth="yes"/>
      <point x="1152.0" y="-22.0"/>
      <point x="1400.0" y="194.0"/>
      <point x="1404.0" y="622.0" type="curve" smooth="yes"/>
      <point x="1408.0" y="980.0"/>
      <point x="1152.0" y="1382.0"/>
      <point x="810.0" y="1616.0" type="curve"/>
      <point x="232.0" y="1616.0" type="line"/>
      <point x="536.0" y="1438.0"/>
      <point x="796.0" y="1164.0"/>
      <point x="876.0" y="914.0" type="curve"/>
      <point x="1052.0" y="922.0" type="line"/>
      <point x="956.0" y="1056.0"/>
      <point x="832.0" y="1104.0"/>
      <point x="680.0" y="1104.0" type="curve" smooth="yes"/>
      <point x="314.0" y="1104.0"/>
      <point x="66.0" y="906.0"/>
      <point x="66.0" y="550.0" type="curve" smooth="yes"/>
      <point x="66.0" y="200.0"/>
      <point x="324.0" y="-22.0"/>
    </contour>
    <contour>
      <point x="732.0" y="326.0" type="curve" smooth="yes"/>
      <point x="592.0" y="326.0"/>
      <point x="524.0" y="400.0"/>
      <point x="524.0" y="550.0" type="curve" smooth="yes"/>
      <point x="524.0" y="700.0"/>
      <point x="592.0" y="774.0"/>
      <point x="732.0" y="774.0" type="curve" smooth="yes"/>
      <point x="872.0" y="774.0"/>
      <point x="940.0" y="700.0"/>
      <point x="940.0" y="550.0" type="curve" smooth="yes"/>
      <point x="940.0" y="400.0"/>
      <point x="872.0" y="326.0"/>
    </contour>
    <contour>
      <point x="194.0" y="1140.0" type="line"/>
      <point x="1360.0" y="1322.0" type="line"/>
      <point x="1318.0" y="1568.0" type="line"/>
      <point x="152.0" y="1386.0" type="line"/>
    </contour>
  </outline>
</glyph>
<glyph name="ntilde" format="2">
  <advance width="1462.0"/>
  <unicode hex="00F1"/>
  <anchor x="736.0" y="1200.0" name="_top"/>
  <anchor x="12.0" y="1200.0" name="apostrophe"/>
  <anchor x="736.0" y="0.0" name="bottom"/>
  <anchor x="736.0" y="1200.0" name="top"/>
  <outline>
    <contour>
      <point x="116.0" y="0.0" type="line"/>
      <point x="580.0" y="0.0" type="line"/>
      <point x="580.0" y="670.0" type="line"/>
      <point x="620.0" y="708.0"/>
      <point x="686.0" y="734.0"/>
      <point x="756.0" y="734.0" type="curve" smooth="yes"/>
      <point x="844.0" y="734.0"/>
      <point x="890.0" y="698.0"/>
      <point x="890.0" y="582.0" type="curve" smooth="yes"/>
      <point x="890.0" y="0.0" type="line"/>
      <point x="1354.0" y="0.0" type="line"/>
      <point x="1354.0" y="608.0" type="line" smooth="yes"/>
      <point x="1354.0" y="968.0"/>
      <point x="1162.0" y="1118.0"/>
      <point x="894.0" y="1118.0" type="curve" smooth="yes"/>
      <point x="754.0" y="1118.0"/>
      <point x="628.0" y="1076.0"/>
      <point x="542.0" y="1004.0" type="curve"/>
      <point x="522.0" y="1004.0" type="line"/>
      <point x="494.0" y="1100.0" type="line"/>
      <point x="116.0" y="1100.0" type="line"/>
    </contour>
    <contour>
      <point x="914.0" y="1240.0" type="curve" smooth="yes"/>
      <point x="1014.0" y="1240.0"/>
      <point x="1086.0" y="1266.0"/>
      <point x="1152.0" y="1326.0" type="curve"/>
      <point x="1152.0" y="1588.0" type="line"/>
      <point x="1076.0" y="1522.0"/>
      <point x="1012.0" y="1496.0"/>
      <point x="926.0" y="1496.0" type="curve" smooth="yes"/>
      <point x="802.0" y="1496.0"/>
      <point x="698.0" y="1598.0"/>
      <point x="558.0" y="1598.0" type="curve" smooth="yes"/>
      <point x="458.0" y="1598.0"/>
      <point x="386.0" y="1572.0"/>
      <point x="320.0" y="1512.0" type="curve"/>
      <point x="320.0" y="1250.0" type="line"/>
      <point x="396.0" y="1316.0"/>
      <point x="460.0" y="1342.0"/>
      <point x="546.0" y="1342.0" type="curve" smooth="yes"/>
      <point x="670.0" y="1342.0"/>
      <point x="774.0" y="1240.0"/>
    </contour>
  </outline>
</glyph>
<glyph name="oslash" format="2">
  <advance width="1464.0"/>
  <unicode hex="00F8"/>
  <anchor x="734.0" y="550.0" name="_center"/>
  <anchor x="734.0" y="-220.0" name="bottom"/>
  <anchor x="734.0" y="550.0" name="center"/>
  <anchor x="734.0" y="108.0" name="ogonek"/>
  <anchor x="728.0" y="1200.0" name="top"/>
  <anchor x="1422.0" y="1100.0" name="topright"/>
  <outline>
    <contour>
      <point x="732.0" y="-22.0" type="curve" smooth="yes"/>
      <point x="1134.0" y="-22.0"/>
      <point x="1398.0" y="194.0"/>
      <point x="1398.0" y="550.0" type="curve" smooth="yes"/>
      <point x="1398.0" y="906.0"/>
      <point x="1156.0" y="1118.0"/>
      <point x="732.0" y="1118.0" type="curve" smooth="yes"/>
      <point x="308.0" y="1118.0"/>
      <point x="66.0" y="906.0"/>
      <point x="66.0" y="550.0" type="curve" smooth="yes"/>
      <point x="66.0" y="194.0"/>
      <point x="330.0" y="-22.0"/>
    </contour>
    <contour>
      <point x="732.0" y="322.0" type="curve" smooth="yes"/>
      <point x="592.0" y="322.0"/>
      <point x="520.0" y="392.0"/>
      <point x="520.0" y="550.0" type="curve" smooth="yes"/>
      <point x="520.0" y="708.0"/>
      <point x="592.0" y="774.0"/>
      <point x="732.0" y="774.0" type="curve" smooth="yes"/>
      <point x="872.0" y="774.0"/>
      <point x="944.0" y="708.0"/>
      <point x="944.0" y="550.0" type="curve" smooth="yes"/>
      <point x="944.0" y="392.0"/>
      <point x="872.0" y="322.0"/>
    </contour>
    <contour>
      <point x="356.0" y="-90.0" type="line"/>
      <point x="500.0" y="90.0" type="line"/>
      <point x="582.0" y="216.0" type="line"/>
      <point x="1024.0" y="774.0" type="line"/>
      <point x="1126.0" y="880.0" type="line"/>
      <point x="1270.0" y="1060.0" type="line"/>
      <point x="1112.0" y="1190.0" type="line"/>
      <point x="968.0" y="1010.0" type="line"/>
      <point x="886.0" y="884.0" type="line"/>
      <point x="444.0" y="326.0" type="line"/>
      <point x="342.0" y="220.0" type="line"/>
      <point x="198.0" y="40.0" type="line"/>
    </contour>
  </outline>
</glyph>
<glyph name="ydieresis" format="2">
  <advance width="1424.0"/>
  <unicode hex="00FF"/>
  <anchor x="712.0" y="1200.0" name="_top"/>
  <anchor x="1206.0" y="0.0" name="bottom"/>
  <anchor x="712.0" y="1200.0" name="top"/>
  <outline>
    <contour>
      <point x="358.0" y="-440.0" type="line"/>
      <point x="810.0" y="-440.0" type="line"/>
      <point x="1438.0" y="1100.0" type="line"/>
      <point x="986.0" y="1100.0" type="line"/>
      <point x="718.0" y="370.0" type="line"/>
      <point x="540.0" y="0.0" type="line"/>
    </contour>
    <contour>
      <point x="432.0" y="0.0" type="line"/>
      <point x="878.0" y="0.0" type="line"/>
      <point x="474.0" y="1100.0" type="line"/>
      <point x="-14.0" y="1100.0" type="line"/>
    </contour>
    <contour>
      <point x="998.0" y="1210.0" type="curve" smooth="yes"/>
      <point x="1160.0" y="1210.0"/>
      <point x="1232.0" y="1288.0"/>
      <point x="1232.0" y="1418.0" type="curve" smooth="yes"/>
      <point x="1232.0" y="1548.0"/>
      <point x="1160.0" y="1626.0"/>
      <point x="998.0" y="1626.0" type="curve" smooth="yes"/>
      <point x="836.0" y="1626.0"/>
      <point x="764.0" y="1548.0"/>
      <point x="764.0" y="1418.0" type="curve" smooth="yes"/>
      <point x="764.0" y="1288.0"/>
      <point x="836.0" y="1210.0"/>
    </contour>
    <contour>
      <point x="426.0" y="1210.0" type="curve" smooth="yes"/>
      <point x="588.0" y="1210.0"/>
      <point x="660.0" y="1288.0"/>
      <point x="660.0" y="1418.0" type="curve" smooth="yes"/>
      <point x="660.0" y="1548.0"/>
      <point x="588.0" y="1626.0"/>
      <point x="426.0" y="1626.0" type="curve" smooth="yes"/>
      <point x="264.0" y="1626.0"/>
      <point x="192.0" y="1548.0"/>
      <point x="192.0" y="1418.0" type="curve" smooth="yes"/>
      <point x="192.0" y="1288.0"/>
      <point x="264.0" y="1210.0"/>
    </contour>
  </outline>
</glyph>
<glyph name="Amacron" format="2">
  <advance width="1760.0"/>
  <unicode hex="0100"/>
  <anchor x="878.0" y="1520.0" name="_top"/>
  <anchor x="880.0" y="0.0" name="bottom"/>
  <anchor x="1744.0" y="0.0" name="ogonek"/>
  <anchor x="878.0" y="1520.0" name="top"/>
  <outline>
    <contour>
      <point x="16.0" y="0.0" type="line"/>
      <point x="476.0" y="0.0" type="line"/>
      <point x="898.0" y="1284.0" type="line"/>
      <point x="858.0" y="1284.0" type="line"/>
      <point x="1280.0" y="0.0" type="line"/>
      <point x="1744.0" y="0.0" type="line"/>
      <point x="1224.0" y="1480.0" type="line"/>
      <point x="536.0" y="1480.0" type="line"/>
    </contour>
    <contour>
      <point x="500.0" y="334.0" type="line"/>
      <point x="1256.0" y="334.0" type="line"/>
      <point x="1148.0" y="684.0" type="line"/>
      <point x="610.0" y="684.0" type="line"/>
    </contour>
    <contour>
      <point x="434.0" y="1620.0" type="line"/>
      <point x="1322.0" y="1620.0" type="line"/>
      <point x="1322.0" y="1870.0" type="line"/>
      <point x="434.0" y="1870.0" type="line"/>
    </contour>
  </outline>
</glyph>
<glyph name="aogonek" format="2">
  <advance width="1344.0"/>
  <unicode hex="0105"/>
  <anchor x="1236.0" y="0.0" name="_ogonek"/>
  <anchor x="668.0" y="0.0" name="bottom"/>
  <anchor x="1236.0" y="0.0" name="ogonek"/>
  <anchor x="668.0" y="1200.0" name="top"/>
  <outline>
    <contour>
      <point x="488.0" y="-22.0" type="curve" smooth="yes"/>
      <point x="612.0" y="-22.0"/>
      <point x="724.0" y="10.0"/>
      <point x="802.0" y="90.0" type="curve"/>
      <point x="822.0" y="90.0" type="line"/>
      <point x="852.0" y="0.0" type="line"/>
      <point x="1236.0" y="0.0" type="line"/>
      <point x="1236.0" y="574.0" type="line" smooth="yes"/>
      <point x="1236.0" y="984.0"/>
      <point x="1052.0" y="1118.0"/>
      <point x="596.0" y="1118.0" type="curve" smooth="yes"/>
      <point x="472.0" y="1118.0"/>
      <point x="308.0" y="1102.0"/>
      <point x="172.0" y="1066.0" type="curve"/>
      <point x="172.0" y="744.0" type="line"/>
      <point x="280.0" y="774.0"/>
      <point x="418.0" y="790.0"/>
      <point x="512.0" y="790.0" type="curve" smooth="yes"/>
      <point x="720.0" y="790.0"/>
      <point x="782.0" y="742.0"/>
      <point x="782.0" y="614.0" type="curve" smooth="yes"/>
      <point x="782.0" y="300.0" type="line"/>
      <point x="738.0" y="278.0"/>
      <point x="684.0" y="272.0"/>
      <point x="640.0" y="272.0" type="curve" smooth="yes"/>
      <point x="556.0" y="272.0"/>
      <point x="516.0" y="304.0"/>
      <point x="516.0" y="350.0" type="curve" smooth="yes"/>
      <point x="516.0" y="400.0"/>
      <point x="552.0" y="432.0"/>
      <point x="658.0" y="438.0" type="curve" smooth="yes"/>
      <point x="902.0" y="450.0" type="line"/>
      <point x="858.0" y="682.0" type="line"/>
      <point x="612.0" y="670.0" type="line" smooth="yes"/>
      <point x="226.0" y="652.0"/>
      <point x="58.0" y="526.0"/>
      <point x="58.0" y="312.0" type="curve" smooth="yes"/>
      <point x="58.0" y="124.0"/>
      <point x="200.0" y="-22.0"/>
    </contour>
    <contour>
      <point x="1066.0" y="-460.0" type="curve" smooth="yes"/>
      <point x="1150.0" y="-460.0"/>
      <point x="1202.0" y="-448.0"/>
      <point x="1256.0" y="-430.0" type="curve"/>
      <point x="1256.0" y="-270.0" type="line"/>
      <point x="1212.0" y="-288.0"/>
      <point x="1170.0" y="-294.0"/>
      <point x="1138.0" y="-294.0" type="curve" smooth="yes"/>
      <point x="1052.0" y="-294.0"/>
      <point x="1010.0" y="-256.0"/>
      <point x="1010.0" y="-200.0" type="curve" smooth="yes"/>
      <point x="1010.0" y="-122.0"/>
      <point x="1062.0" y="-60.0"/>
      <point x="1236.0" y="0.0" type="curve"/>
      <point x="1124.0" y="78.0" type="line"/>
      <point x="838.0" y="14.0"/>
      <point x="754.0" y="-104.0"/>
      <point x="754.0" y="-234.0" type="curve" smooth="yes"/>
      <point x="754.0" y="-370.0"/>
      <point x="856.0" y="-460.0"/>
    </contour>
  </outline>
</glyph>
<glyph name="Ccircumflex" format="2">
  <advance width="1488.0"/>
  <unicode hex="0108"/>
  <anchor x="880.0" y="1520.0" name="_top"/>
  <anchor x="880.0" y="0.0" name="bottom"/>
  <anchor x="880.0" y="1520.0" name="top"/>
  <outline>
    <contour>
      <point x="1048.0" y="-20.0" type="curve" smooth="yes"/>
      <point x="1176.0" y="-20.0"/>
      <point x="1308.0" y="-4.0"/>
      <point x="1416.0" y="20.0" type="curve"/>
      <point x="1416.0" y="396.0" type="line"/>
      <point x="1318.0" y="376.0"/>
      <point x="1202.0" y="360.0"/>
      <point x="1078.0" y="360.0" type="curve" smooth="yes"/>
      <point x="728.0" y="360.0"/>
      <point x="582.0" y="496.0"/>
      <point x="582.0" y="740.0" type="curve" smooth="yes"/>
      <point x="582.0" y="984.0"/>
      <point x="728.0" y="1120.0"/>
      <point x="1098.0" y="1120.0" type="curve" smooth="yes"/>
      <point x="1214.0" y="1120.0"/>
      <point x="1318.0" y="1110.0"/>
      <point x="1416.0" y="1092.0" type="curve"/>
      <point x="1416.0" y="1468.0" type="line"/>
      <point x="1302.0" y="1490.0"/>
      <point x="1184.0" y="1500.0"/>
      <point x="1058.0" y="1500.0" type="curve" smooth="yes"/>
      <point x="414.0" y="1500.0"/>
      <point x="84.0" y="1202.0"/>
      <point x="84.0" y="736.0" type="curve" smooth="yes"/>
      <point x="84.0" y="242.0"/>
      <point x="408.0" y="-20.0"/>
    </contour>
    <contour>
      <point x="356.0" y="1586.0" type="line"/>
      <point x="720.0" y="1586.0" type="line"/>
      <point x="918.0" y="1778.0" type="line"/>
      <point x="842.0" y="1778.0" type="line"/>
      <point x="1040.0" y="1586.0" type="line"/>
      <point x="1404.0" y="1586.0" type="line"/>
      <point x="1072.0" y="1902.0" type="line"/>
      <point x="688.0" y="1902.0" type="line"/>
    </contour>
  </outline>
</glyph>
<glyph name="Ebreve" format="2">
  <advance width="1498.0"/>
  <unicode hex="0114"/>
  <anchor x="788.0" y="1520.0" name="_top"/>
  <anchor x="788.0" y="0.0" name="bottom"/>
  <anchor x="1312.0" y="0.0" name="ogonek"/>
  <anchor x="788.0" y="1520.0" name="top"/>
  <anchor x="40.0" y="1480.0" name="topleft"/>
  <outline>
    <contour>
      <point x="130.0" y="0.0" type="line"/>
      <point x="1412.0" y="0.0" type="line"/>
      <point x="1412.0" y="350.0" type="line"/>
      <point x="600.0" y="350.0" type="line"/>
      <point x="600.0" y="1130.0" type="line"/>
      <point x="1402.0" y="1130.0" type="line"/>
      <point x="1402.0" y="1480.0" type="line"/>
      <point x="130.0" y="1480.0" type="line"/>
    </contour>
    <contour>
      <point x="358.0" y="580.0" type="line"/>
      <point x="1296.0" y="580.0" type="line"/>
      <point x="1296.0" y="930.0" type="line"/>
      <point x="358.0" y="930.0" type="line"/>
    </contour>
    <contour>
      <point x="788.0" y="1586.0" type="curve" smooth="yes"/>
      <point x="1100.0" y="1586.0"/>
      <point x="1242.0" y="1726.0"/>
      <point x="1272.0" y="1902.0" type="curve"/>
      <point x="998.0" y="1902.0" type="line"/>
      <point x="978.0" y="1840.0"/>
      <point x="916.0" y="1794.0"/>
      <point x="788.0" y="1794.0" type="curve" smooth="yes"/>
      <point x="660.0" y="1794.0"/>
      <point x="598.0" y="1840.0"/>
      <point x="578.0" y="1902.0" type="curve"/>
      <point x="304.0" y="1902.0" type="line"/>
      <point x="334.0" y="1726.0"/>
      <point x="476.0" y="1586.0"/>
    </contour>
  </outline>
</glyph>
<glyph name="Edotaccent" format="2">
  <advance width="1498.0"/>
  <unicode hex="0116"/>
  <anchor x="788.0" y="1520.0" name="_top"/>
  <anchor x="788.0" y="0.0" name="bottom"/>
  <anchor x="1312.0" y="0.0" name="ogonek"/>
  <anchor x="788.0" y="1520.0" name="top"/>
  <anchor x="40.0" y="1480.0" name="topleft"/>
  <outline>
    <contour>
      <point x="130.0" y="0.0" type="line"/>
      <point x="1412.0" y="0.0" type="line"/>
      <point x="1412.0" y="350.0" type="line"/>
      <point x="600.0" y="350.0" type="line"/>
      <point x="600.0" y="1130.0" type="line"/>
      <point x="1402.0" y="1130.0" type="line"/>
      <point x="1402.0" y="1480.0" type="line"/>
      <point x="130.0" y="1480.0" type="line"/>
    </contour>
    <contour>
      <point x="358.0" y="580.0" type="line"/>
      <point x="1296.0" y="580.0" type="line"/>
      <point x="1296.0" y="930.0" type="line"/>
      <point x="358.0" y="930.0" type="line"/>
    </contour>
    <contour>
      <point x="788.0" y="1570.0" type="curve" smooth="yes"/>
      <point x="980.0" y="1570.0"/>
      <point x="1056.0" y="1644.0"/>
      <point x="1056.0" y="1750.0" type="curve" smooth="yes"/>
      <point x="1056.0" y="1856.0"/>
      <point x="980.0" y="1930.0"/>
      <point x="788.0" y="1930.0" type="curve" smooth="yes"/>
      <point x="596.0" y="1930.0"/>
      <point x="520.0" y="1856.0"/>
      <point x="520.0" y="1750.0" type="curve" smooth="yes"/>
      <point x="520.0" y="1644.0"/>
      <point x="596.0" y="1570.0"/>
    </contour>
  </outline>
</glyph>
<glyph name="edotaccent" format="2">
  <advance width="1326.0"/>
  <unicode hex="0117"/>
  <anchor x="682.0" y="1200.0" name="_top"/>
  <anchor x="682.0" y="0.0" name="bottom"/>
  <anchor x="1184.0" y="0.0" name="ogonek"/>
  <anchor x="682.0" y="1200.0" name="top"/>
  <outline>
    <contour>
      <point x="810.0" y="-22.0" type="curve" smooth="yes"/>
      <point x="924.0" y="-22.0"/>
      <point x="1052.0" y="-16.0"/>
      <point x="1194.0" y="8.0" type="curve"/>
      <point x="1194.0" y="326.0" type="line"/>
      <point x="1094.0" y="312.0"/>
      <point x="976.0" y="302.0"/>
      <point x="884.0" y="302.0" type="curve" smooth="yes"/>
      <point x="570.0" y="302.0"/>
      <point x="520.0" y="348.0"/>
      <point x="520.0" y="476.0" type="curve" smooth="yes"/>
      <point x="520.0" y="652.0" type="line" smooth="yes"/>
      <point x="520.0" y="786.0"/>
      <point x="570.0" y="846.0"/>
      <point x="682.0" y="846.0" type="curve" smooth="yes"/>
      <point x="794.0" y="846.0"/>
      <point x="844.0" y="784.0"/>
      <point x="844.0" y="650.0" type="curve"/>
      <point x="912.0" y="668.0" type="line"/>
      <point x="270.0" y="668.0" type="line"/>
      <point x="270.0" y="428.0" type="line"/>
      <point x="1270.0" y="428.0" type="line"/>
      <point x="1270.0" y="530.0" type="line" smooth="yes"/>
      <point x="1270.0" y="892.0"/>
      <point x="1074.0" y="1118.0"/>
      <point x="690.0" y="1118.0" type="curve" smooth="yes"/>
      <point x="284.0" y="1118.0"/>
      <point x="66.0" y="892.0"/>
      <point x="66.0" y="546.0" type="curve" smooth="yes"/>
      <point x="66.0" y="156.0"/>
      <point x="292.0" y="-22.0"/>
    </contour>
    <contour>
      <point x="682.0" y="1206.0" type="curve" smooth="yes"/>
      <point x="872.0" y="1206.0"/>
      <point x="956.0" y="1280.0"/>
      <point x="956.0" y="1418.0" type="curve" smooth="yes"/>
      <point x="956.0" y="1556.0"/>
      <point x="872.0" y="1630.0"/>
      <point x="682.0" y="1630.0" type="curve" smooth="yes"/>
      <point x="492.0" y="1630.0"/>
      <point x="408.0" y="1556.0"/>
      <point x="408.0" y="1418.0" type="curve" smooth="yes"/>
      <point x="408.0" y="1280.0"/>
      <point x="492.0" y="1206.0"/>
    </contour>
  </outline>
</glyph>
<glyph name="Eogonek" format="2">
  <advance width="1498.0"/>
  <unicode hex="0118"/>
  <anchor x="1312.0" y="0.0" name="_ogonek"/>
  <anchor x="788.0" y="0.0" name="bottom"/>
  <anchor x="1312.0" y="0.0" name="ogonek"/>
  <anchor x="788.0" y="1520.0" name="top"/>
  <anchor x="40.0" y="1480.0" name="topleft"/>
  <outline>
    <contour>
      <point x="130.0" y="0.0" type="line"/>
      <point x="1412.0" y="0.0" type="line"/>
      <point x="1412.0" y="350.0" type="line"/>
      <point x="600.0" y="350.0" type="line"/>
      <point x="600.0" y="1130.0" type="line"/>
      <point x="1402.0" y="1130.0" type="line"/>
      <point x="1402.0" y="1480.0" type="line"/>
      <point x="130.0" y="1480.0" type="line"/>
    </contour>
    <contour>
      <point x="358.0" y="580.0" type="line"/>
      <point x="1296.0" y="580.0" type="line"/>
      <point x="1296.0" y="930.0" type="line"/>
      <point x="358.0" y="930.0" type="line"/>
    </contour>
    <contour>
      <point x="1142.0" y="-460.0" type="curve" smooth="yes"/>
      <point x="1226.0" y="-460.0"/>
      <point x="1288.0" y="-448.0"/>
      <point x="1346.0" y="-430.0" type="curve"/>
      <point x="1346.0" y="-270.0" type="line"/>
      <point x="1290.0" y="-288.0"/>
      <point x="1246.0" y="-294.0"/>
      <point x="1214.0" y="-294.0" type="curve" smooth="yes"/>
      <point x="1110.0" y="-294.0"/>
      <point x="1066.0" y="-256.0"/>
      <point x="1066.0" y="-196.0" type="curve" smooth="yes"/>
      <point x="1066.0" y="-122.0"/>
      <point x="1128.0" y="-60.0"/>
      <point x="1312.0" y="0.0" type="curve"/>
      <point x="1200.0" y="78.0" type="line"/>
      <point x="904.0" y="14.0"/>
      <point x="810.0" y="-104.0"/>
      <point x="810.0" y="-234.0" type="curve" smooth="yes"/>
      <point x="810.0" y="-370.0"/>
      <point x="916.0" y="-460.0"/>
    </contour>
  </outline>
</glyph>
<glyph name="eogonek" format="2">
  <advance width="1326.0"/>
  <unicode hex="0119"/>
  <outline>
    <contour>
      <point x="1004.0" y="-460.0" type="curve" smooth="yes"/>
      <point x="1088.0" y="-460.0"/>
      <point x="1140.0" y="-448.0"/>
      <point x="1194.0" y="-430.0" type="curve"/>
      <point x="1194.0" y="-270.0" type="line"/>
      <point x="1150.0" y="-288.0"/>
      <point x="1108.0" y="-294.0"/>
      <point x="1076.0" y="-294.0" type="curve" smooth="yes"/>
      <point x="990.0" y="-294.0"/>
      <point x="948.0" y="-256.0"/>
      <point x="948.0" y="-200.0" type="curve" smooth="yes"/>
      <point x="948.0" y="-122.0"/>
      <point x="1004.0" y="-50.0"/>
      <point x="1194.0" y="8.0" type="curve"/>
      <point x="1194.0" y="326.0" type="line"/>
      <point x="1094.0" y="312.0"/>
      <point x="976.0" y="302.0"/>
      <point x="884.0" y="302.0" type="curve" smooth="yes"/>
      <point x="570.0" y="302.0"/>
      <point x="520.0" y="348.0"/>
      <point x="520.0" y="476.0" type="curve" smooth="yes"/>
      <point x="520.0" y="642.0" type="line" smooth="yes"/>
      <point x="520.0" y="776.0"/>
      <point x="570.0" y="836.0"/>
      <point x="682.0" y="836.0" type="curve" smooth="yes"/>
      <point x="794.0" y="836.0"/>
      <point x="844.0" y="774.0"/>
      <point x="844.0" y="640.0" type="curve"/>
      <point x="912.0" y="658.0" type="line"/>
      <point x="270.0" y="658.0" type="line"/>
      <point x="270.0" y="428.0" type="line"/>
      <point x="1270.0" y="428.0" type="line"/>
      <point x="1270.0" y="530.0" type="line" smooth="yes"/>
      <point x="1270.0" y="892.0"/>
      <point x="1074.0" y="1118.0"/>
      <point x="690.0" y="1118.0" type="curve" smooth="yes"/>
      <point x="284.0" y="1118.0"/>
      <point x="66.0" y="892.0"/>
      <point x="66.0" y="546.0" type="curve" smooth="yes"/>
      <point x="66.0" y="156.0"/>
      <point x="292.0" y="-22.0"/>
      <point x="810.0" y="-22.0" type="curve" smooth="yes"/>
      <point x="874.0" y="-22.0"/>
      <point x="948.0" y="-20.0"/>
      <point x="1022.0" y="-14.0" type="curve"/>
      <point x="1004.0" y="62.0" type="line"/>
      <point x="764.0" y="-2.0"/>
      <point x="692.0" y="-114.0"/>
      <point x="692.0" y="-234.0" type="curve" smooth="yes"/>
      <point x="692.0" y="-370.0"/>
      <point x="794.0" y="-460.0"/>
    </contour>
  </outline>
</glyph>
<glyph name="gbreve" format="2">
  <advance width="1490.0"/>
  <unicode hex="011F"/>
  <anchor x="780.0" y="1200.0" name="_top"/>
  <anchor x="744.0" y="-440.0" name="bottom"/>
  <anchor x="780.0" y="1200.0" name="top"/>
  <outline>
    <contour>
      <point x="624.0" y="-460.0" type="curve" smooth="yes"/>
      <point x="1142.0" y="-460.0"/>
      <point x="1374.0" y="-266.0"/>
      <point x="1374.0" y="164.0" type="curve" smooth="yes"/>
      <point x="1374.0" y="1046.0" type="line"/>
      <point x="1222.0" y="1092.0"/>
      <point x="1000.0" y="1118.0"/>
      <point x="816.0" y="1118.0" type="curve" smooth="yes"/>
      <point x="320.0" y="1118.0"/>
      <point x="66.0" y="890.0"/>
      <point x="66.0" y="526.0" type="curve" smooth="yes"/>
      <point x="66.0" y="194.0"/>
      <point x="296.0" y="6.0"/>
      <point x="564.0" y="6.0" type="curve" smooth="yes"/>
      <point x="700.0" y="6.0"/>
      <point x="808.0" y="44.0"/>
      <point x="890.0" y="118.0" type="curve"/>
      <point x="910.0" y="118.0" type="line"/>
      <point x="910.0" y="72.0" type="line" smooth="yes"/>
      <point x="910.0" y="-52.0"/>
      <point x="830.0" y="-120.0"/>
      <point x="588.0" y="-120.0" type="curve" smooth="yes"/>
      <point x="474.0" y="-120.0"/>
      <point x="312.0" y="-102.0"/>
      <point x="148.0" y="-62.0" type="curve"/>
      <point x="148.0" y="-410.0" type="line"/>
      <point x="312.0" y="-448.0"/>
      <point x="464.0" y="-460.0"/>
    </contour>
    <contour>
      <point x="734.0" y="370.0" type="curve" smooth="yes"/>
      <point x="606.0" y="370.0"/>
      <point x="524.0" y="424.0"/>
      <point x="524.0" y="562.0" type="curve" smooth="yes"/>
      <point x="524.0" y="702.0"/>
      <point x="612.0" y="778.0"/>
      <point x="776.0" y="778.0" type="curve" smooth="yes"/>
      <point x="828.0" y="778.0"/>
      <point x="874.0" y="772.0"/>
      <point x="910.0" y="764.0" type="curve"/>
      <point x="910.0" y="408.0" type="line"/>
      <point x="858.0" y="382.0"/>
      <point x="794.0" y="370.0"/>
    </contour>
    <contour>
      <point x="780.0" y="1224.0" type="curve" smooth="yes"/>
      <point x="1070.0" y="1224.0"/>
      <point x="1226.0" y="1366.0"/>
      <point x="1240.0" y="1596.0" type="curve"/>
      <point x="970.0" y="1596.0" type="line"/>
      <point x="958.0" y="1498.0"/>
      <point x="902.0" y="1442.0"/>
      <point x="780.0" y="1442.0" type="curve" smooth="yes"/>
      <point x="658.0" y="1442.0"/>
      <point x="602.0" y="1498.0"/>
      <point x="590.0" y="1596.0" type="curve"/>
      <point x="320.0" y="1596.0" type="line"/>
      <point x="334.0" y="1366.0"/>
      <point x="490.0" y="1224.0"/>
    </contour>
  </outline>
</glyph>
<glyph name="gcommaaccent" format="2">
  <advance width="1490.0"/>
  <unicode hex="0123"/>
  <anchor x="780.0" y="1200.0" name="_top"/>
  <anchor x="744.0" y="-440.0" name="bottom"/>
  <anchor x="780.0" y="1200.0" name="top"/>
  <outline>
    <contour>
      <point x="624.0" y="-460.0" type="curve" smooth="yes"/>
      <point x="1142.0" y="-460.0"/>
      <point x="1374.0" y="-266.0"/>
      <point x="1374.0" y="164.0" type="curve" smooth="yes"/>
      <point x="1374.0" y="1046.0" type="line"/>
      <point x="1222.0" y="1092.0"/>
      <point x="1000.0" y="1118.0"/>
      <point x="816.0" y="1118.0" type="curve" smooth="yes"/>
      <point x="320.0" y="1118.0"/>
      <point x="66.0" y="890.0"/>
      <point x="66.0" y="526.0" type="curve" smooth="yes"/>
      <point x="66.0" y="194.0"/>
      <point x="296.0" y="6.0"/>
      <point x="564.0" y="6.0" type="curve" smooth="yes"/>
      <point x="700.0" y="6.0"/>
      <point x="808.0" y="44.0"/>
      <point x="890.0" y="118.0" type="curve"/>
      <point x="910.0" y="118.0" type="line"/>
      <point x="910.0" y="72.0" type="line" smooth="yes"/>
      <point x="910.0" y="-52.0"/>
      <point x="830.0" y="-120.0"/>
      <point x="588.0" y="-120.0" type="curve" smooth="yes"/>
      <point x="474.0" y="-120.0"/>
      <point x="312.0" y="-102.0"/>
      <point x="148.0" y="-62.0" type="curve"/>
      <point x="148.0" y="-410.0" type="line"/>
      <point x="312.0" y="-448.0"/>
      <point x="464.0" y="-460.0"/>
    </contour>
    <contour>
      <point x="734.0" y="370.0" type="curve" smooth="yes"/>
      <point x="606.0" y="370.0"/>
      <point x="524.0" y="424.0"/>
      <point x="524.0" y="562.0" type="curve" smooth="yes"/>
      <point x="524.0" y="702.0"/>
      <point x="612.0" y="778.0"/>
      <point x="776.0" y="778.0" type="curve" smooth="yes"/>
      <point x="828.0" y="778.0"/>
      <point x="874.0" y="772.0"/>
      <point x="910.0" y="764.0" type="curve"/>
      <point x="910.0" y="408.0" type="line"/>
      <point x="858.0" y="382.0"/>
      <point x="794.0" y="370.0"/>
    </contour>
    <contour>
      <point x="780.0" y="1212.0" type="curve" smooth="yes"/>
      <point x="956.0" y="1212.0"/>
      <point x="1028.0" y="1262.0"/>
      <point x="1028.0" y="1348.0" type="curve" smooth="yes"/>
      <point x="1028.0" y="1430.0"/>
      <point x="966.0" y="1482.0"/>
      <point x="780.0" y="1482.0" type="curve" smooth="yes"/>
      <point x="752.0" y="1482.0" type="line"/>
      <point x="836.0" y="1404.0" type="line"/>
      <point x="836.0" y="1478.0"/>
      <point x="854.0" y="1534.0"/>
      <point x="908.0" y="1628.0" type="curve"/>
      <point x="628.0" y="1628.0" type="line"/>
      <point x="570.0" y="1568.0"/>
      <point x="532.0" y="1472.0"/>
      <point x="532.0" y="1390.0" type="curve" smooth="yes"/>
      <point x="532.0" y="1278.0"/>
      <point x="604.0" y="1212.0"/>
    </contour>
  </outline>
</glyph>
<glyph name="Hcircumflex" format="2">
  <advance width="1794.0"/>
  <unicode hex="0124"/>
  <anchor x="898.0" y="1520.0" name="_top"/>
  <anchor x="898.0" y="0.0" name="bottom"/>
  <anchor x="898.0" y="1222.0" name="center"/>
  <anchor x="898.0" y="1520.0" name="top"/>
  <anchor x="44.0" y="1480.0" name="topleft"/>
  <outline>
    <contour>
      <point x="130.0" y="0.0" type="line"/>
      <point x="606.0" y="0.0" type="line"/>
      <point x="606.0" y="554.0" type="line"/>
      <point x="1188.0" y="554.0" type="line"/>
      <point x="1188.0" y="0.0" type="line"/>
      <point x="1664.0" y="0.0" type="line"/>
      <point x="1664.0" y="1480.0" type="line"/>
      <point x="1188.0" y="1480.0" type="line"/>
      <point x="1188.0" y="956.0" type="line"/>
      <point x="606.0" y="956.0" type="line"/>
      <point x="606.0" y="1480.0" type="line"/>
      <point x="130.0" y="1480.0" type="line"/>
    </contour>
    <contour>
      <point x="374.0" y="1586.0" type="line"/>
      <point x="738.0" y="1586.0" type="line"/>
      <point x="936.0" y="1778.0" type="line"/>
      <point x="860.0" y="1778.0" type="line"/>
      <point x="1058.0" y="1586.0" type="line"/>
      <point x="1422.0" y="1586.0" type="line"/>
      <point x="1090.0" y="1902.0" type="line"/>
      <point x="706.0" y="1902.0" type="line"/>
    </contour>
  </outline>
</glyph>
<glyph name="Itilde" format="2">
  <advance width="736.0"/>
  <unicode hex="0128"/>
  <anchor x="368.0" y="1520.0" name="_top"/>
  <anchor x="366.0" y="0.0" name="bottom"/>
  <anchor x="606.0" y="0.0" name="ogonek"/>
  <anchor x="368.0" y="1520.0" name="top"/>
  <outline>
    <contour>
      <point x="130.0" y="0.0" type="line"/>
      <point x="606.0" y="0.0" type="line"/>
      <point x="606.0" y="1480.0" type="line"/>
      <point x="130.0" y="1480.0" type="line"/>
    </contour>
    <contour>
      <point x="566.0" y="1586.0" type="curve" smooth="yes"/>
      <point x="674.0" y="1586.0"/>
      <point x="746.0" y="1608.0"/>
      <point x="812.0" y="1660.0" type="curve"/>
      <point x="812.0" y="1892.0" type="line"/>
      <point x="736.0" y="1848.0"/>
      <point x="672.0" y="1828.0"/>
      <point x="578.0" y="1828.0" type="curve" smooth="yes"/>
      <point x="434.0" y="1828.0"/>
      <point x="330.0" y="1902.0"/>
      <point x="170.0" y="1902.0" type="curve" smooth="yes"/>
      <point x="62.0" y="1902.0"/>
      <point x="-10.0" y="1878.0"/>
      <point x="-76.0" y="1826.0" type="curve"/>
      <point x="-76.0" y="1594.0" type="line"/>
      <point x="0.0" y="1638.0"/>
      <point x="64.0" y="1658.0"/>
      <point x="158.0" y="1658.0" type="curve" smooth="yes"/>
      <point x="302.0" y="1658.0"/>
      <point x="406.0" y="1586.0"/>
    </contour>
  </outline>
</glyph>
<glyph name="itilde" format="2">
  <advance width="696.0"/>
  <unicode hex="0129"/>
  <anchor x="348.0" y="1200.0" name="_top"/>
  <anchor x="348.0" y="0.0" name="bottom"/>
  <anchor x="580.0" y="0.0" name="ogonek"/>
  <anchor x="348.0" y="1200.0" name="top"/>
  <outline>
    <contour>
      <point x="116.0" y="0.0" type="line"/>
      <point x="580.0" y="0.0" type="line"/>
      <point x="580.0" y="1100.0" type="line"/>
      <point x="116.0" y="1100.0" type="line"/>
    </contour>
    <contour>
      <point x="526.0" y="1240.0" type="curve" smooth="yes"/>
      <point x="626.0" y="1240.0"/>
      <point x="698.0" y="1266.0"/>
      <point x="764.0" y="1326.0" type="curve"/>
      <point x="764.0" y="1588.0" type="line"/>
      <point x="688.0" y="1522.0"/>
      <point x="624.0" y="1496.0"/>
      <point x="538.0" y="1496.0" type="curve" smooth="yes"/>
      <point x="414.0" y="1496.0"/>
      <point x="310.0" y="1598.0"/>
      <point x="170.0" y="1598.0" type="curve" smooth="yes"/>
      <point x="70.0" y="1598.0"/>
      <point x="-2.0" y="1572.0"/>
      <point x="-68.0" y="1512.0" type="curve"/>
      <point x="-68.0" y="1250.0" type="line"/>
      <point x="8.0" y="1316.0"/>
      <point x="72.0" y="1342.0"/>
      <point x="158.0" y="1342.0" type="curve" smooth="yes"/>
      <point x="282.0" y="1342.0"/>
      <point x="386.0" y="1240.0"/>
    </contour>
  </outline>
</glyph>
<glyph name="Imacron" format="2">
  <advance width="736.0"/>
  <unicode hex="012A"/>
  <anchor x="368.0" y="1520.0" name="_top"/>
  <anchor x="366.0" y="0.0" name="bottom"/>
  <anchor x="606.0" y="0.0" name="ogonek"/>
  <anchor x="368.0" y="1520.0" name="top"/>
  <outline>
    <contour>
      <point x="130.0" y="0.0" type="line"/>
      <point x="606.0" y="0.0" type="line"/>
      <point x="606.0" y="1480.0" type="line"/>
      <point x="130.0" y="1480.0" type="line"/>
    </contour>
    <contour>
      <point x="-76.0" y="1620.0" type="line"/>
      <point x="812.0" y="1620.0" type="line"/>
      <point x="812.0" y="1870.0" type="line"/>
      <point x="-76.0" y="1870.0" type="line"/>
    </contour>
  </outline>
</glyph>
<glyph name="imacron" format="2">
  <advance width="696.0"/>
  <unicode hex="012B"/>
  <anchor x="348.0" y="1200.0" name="_top"/>
  <anchor x="348.0" y="0.0" name="bottom"/>
  <anchor x="580.0" y="0.0" name="ogonek"/>
  <anchor x="348.0" y="1200.0" name="top"/>
  <outline>
    <contour>
      <point x="116.0" y="0.0" type="line"/>
      <point x="580.0" y="0.0" type="line"/>
      <point x="580.0" y="1100.0" type="line"/>
      <point x="116.0" y="1100.0" type="line"/>
    </contour>
    <contour>
      <point x="-68.0" y="1294.0" type="line"/>
      <point x="764.0" y="1294.0" type="line"/>
      <point x="764.0" y="1544.0" type="line"/>
      <point x="-68.0" y="1544.0" type="line"/>
    </contour>
  </outline>
</glyph>
<glyph name="Ibreve" format="2">
  <advance width="736.0"/>
  <unicode hex="012C"/>
  <anchor x="368.0" y="1520.0" name="_top"/>
  <anchor x="366.0" y="0.0" name="bottom"/>
  <anchor x="606.0" y="0.0" name="ogonek"/>
  <anchor x="368.0" y="1520.0" name="top"/>
  <outline>
    <contour>
      <point x="130.0" y="0.0" type="line"/>
      <point x="606.0" y="0.0" type="line"/>
      <point x="606.0" y="1480.0" type="line"/>
      <point x="130.0" y="1480.0" type="line"/>
    </contour>
    <contour>
      <point x="368.0" y="1586.0" type="curve" smooth="yes"/>
      <point x="680.0" y="1586.0"/>
      <point x="822.0" y="1726.0"/>
      <point x="852.0" y="1902.0" type="curve"/>
      <point x="578.0" y="1902.0" type="line"/>
      <point x="558.0" y="1840.0"/>
      <point x="496.0" y="1794.0"/>
      <point x="368.0" y="1794.0" type="curve" smooth="yes"/>
      <point x="240.0" y="1794.0"/>
      <point x="178.0" y="1840.0"/>
      <point x="158.0" y="1902.0" type="curve"/>
      <point x="-116.0" y="1902.0" type="line"/>
      <point x="-86.0" y="1726.0"/>
      <point x="56.0" y="1586.0"/>
    </contour>
  </outline>
</glyph>
<glyph name="ibreve" format="2">
  <advance width="696.0"/>
  <unicode hex="012D"/>
  <anchor x="348.0" y="1200.0" name="_top"/>
  <anchor x="348.0" y="0.0" name="bottom"/>
  <anchor x="580.0" y="0.0" name="ogonek"/>
  <anchor x="348.0" y="1200.0" name="top"/>
  <outline>
    <contour>
      <point x="116.0" y="0.0" type="line"/>
      <point x="580.0" y="0.0" type="line"/>
      <point x="580.0" y="1100.0" type="line"/>
      <point x="116.0" y="1100.0" type="line"/>
    </contour>
    <contour>
      <point x="348.0" y="1224.0" type="curve" smooth="yes"/>
      <point x="638.0" y="1224.0"/>
      <point x="794.0" y="1366.0"/>
      <point x="808.0" y="1596.0" type="curve"/>
      <point x="538.0" y="1596.0" type="line"/>
      <point x="526.0" y="1498.0"/>
      <point x="470.0" y="1442.0"/>
      <point x="348.0" y="1442.0" type="curve" smooth="yes"/>
      <point x="226.0" y="1442.0"/>
      <point x="170.0" y="1498.0"/>
      <point x="158.0" y="1596.0" type="curve"/>
      <point x="-112.0" y="1596.0" type="line"/>
      <point x="-98.0" y="1366.0"/>
      <point x="58.0" y="1224.0"/>
    </contour>
  </outline>
</glyph>
<glyph name="Idotaccent" format="2">
  <advance width="736.0"/>
  <unicode hex="0130"/>
  <anchor x="368.0" y="1520.0" name="_top"/>
  <anchor x="366.0" y="0.0" name="bottom"/>
  <anchor x="606.0" y="0.0" name="ogonek"/>
  <anchor x="368.0" y="1520.0" name="top"/>
  <outline>
    <contour>
      <point x="130.0" y="0.0" type="line"/>
      <point x="606.0" y="0.0" type="line"/>
      <point x="606.0" y="1480.0" type="line"/>
      <point x="130.0" y="1480.0" type="line"/>
    </contour>
    <contour>
      <point x="368.0" y="1570.0" type="curve" smooth="yes"/>
      <point x="560.0" y="1570.0"/>
      <point x="636.0" y="1644.0"/>
      <point x="636.0" y="1750.0" type="curve" smooth="yes"/>
      <point x="636.0" y="1856.0"/>
      <point x="560.0" y="1930.0"/>
      <point x="368.0" y="1930.0" type="curve" smooth="yes"/>
      <point x="176.0" y="1930.0"/>
      <point x="100.0" y="1856.0"/>
      <point x="100.0" y="1750.0" type="curve" smooth="yes"/>
      <point x="100.0" y="1644.0"/>
      <point x="176.0" y="1570.0"/>
    </contour>
  </outline>
</glyph>
<glyph name="Jcircumflex" format="2">
  <advance width="736.0"/>
  <unicode hex="0134"/>
  <anchor x="370.0" y="1520.0" name="_top"/>
  <anchor x="606.0" y="0.0" name="bottom"/>
  <anchor x="370.0" y="1520.0" name="top"/>
  <outline>
    <contour>
      <point x="280.0" y="-358.0" type="line"/>
      <point x="524.0" y="-140.0"/>
      <point x="606.0" y="68.0"/>
      <point x="606.0" y="318.0" type="curve"/>
      <point x="606.0" y="1480.0" type="line"/>
      <point x="134.0" y="1480.0" type="line"/>
      <point x="134.0" y="302.0" type="line" smooth="yes"/>
      <point x="134.0" y="96.0"/>
      <point x="98.0" y="-30.0"/>
      <point x="-12.0" y="-162.0" type="curve"/>
    </contour>
    <contour>
      <point x="-154.0" y="1586.0" type="line"/>
      <point x="210.0" y="1586.0" type="line"/>
      <point x="408.0" y="1778.0" type="line"/>
      <point x="332.0" y="1778.0" type="line"/>
      <point x="530.0" y="1586.0" type="line"/>
      <point x="894.0" y="1586.0" type="line"/>
      <point x="562.0" y="1902.0" type="line"/>
      <point x="178.0" y="1902.0" type="line"/>
    </contour>
  </outline>
</glyph>
<glyph name="jcircumflex" format="2">
  <advance width="696.0"/>
  <unicode hex="0135"/>
  <anchor x="338.0" y="1200.0" name="_top"/>
  <anchor x="338.0" y="1200.0" name="top"/>
  <outline>
    <contour>
      <point x="258.0" y="-476.0" type="line"/>
      <point x="498.0" y="-258.0"/>
      <point x="580.0" y="-54.0"/>
      <point x="580.0" y="196.0" type="curve" smooth="yes"/>
      <point x="580.0" y="1100.0" type="line"/>
      <point x="116.0" y="1100.0" type="line"/>
      <point x="116.0" y="180.0" type="line" smooth="yes"/>
      <point x="116.0" y="-26.0"/>
      <point x="80.0" y="-152.0"/>
      <point x="-30.0" y="-284.0" type="curve"/>
    </contour>
    <contour>
      <point x="-126.0" y="1220.0" type="line"/>
      <point x="208.0" y="1220.0" type="line"/>
      <point x="372.0" y="1456.0" type="line"/>
      <point x="304.0" y="1456.0" type="line"/>
      <point x="468.0" y="1220.0" type="line"/>
      <point x="802.0" y="1220.0" type="line"/>
      <point x="516.0" y="1616.0" type="line"/>
      <point x="160.0" y="1616.0" type="line"/>
    </contour>
  </outline>
</glyph>
<glyph name="Kcommaaccent" format="2">
  <advance width="1546.0"/>
  <unicode hex="0136"/>
  <anchor x="816.0" y="0.0" name="_bottom"/>
  <anchor x="816.0" y="0.0" name="bottom"/>
  <anchor x="810.0" y="1480.0" name="top"/>
  <outline>
    <contour>
      <point x="1082.0" y="0.0" type="line"/>
      <point x="1598.0" y="0.0" type="line"/>
      <point x="1038.0" y="812.0" type="line"/>
      <point x="1026.0" y="702.0" type="line"/>
      <point x="1548.0" y="1480.0" type="line"/>
      <point x="1050.0" y="1480.0" type="line"/>
      <point x="562.0" y="754.0" type="line"/>
    </contour>
    <contour>
      <point x="130.0" y="0.0" type="line"/>
      <point x="606.0" y="0.0" type="line"/>
      <point x="606.0" y="1480.0" type="line"/>
      <point x="130.0" y="1480.0" type="line"/>
    </contour>
    <contour>
      <point x="542.0" y="554.0" type="line"/>
      <point x="752.0" y="554.0" type="line"/>
      <point x="752.0" y="956.0" type="line"/>
      <point x="542.0" y="956.0" type="line"/>
    </contour>
    <contour>
      <point x="688.0" y="-520.0" type="curve"/>
      <point x="968.0" y="-520.0" type="line"/>
      <point x="1026.0" y="-460.0"/>
      <point x="1064.0" y="-364.0"/>
      <point x="1064.0" y="-282.0" type="curve" smooth="yes"/>
      <point x="1064.0" y="-170.0"/>
      <point x="992.0" y="-104.0"/>
      <point x="816.0" y="-104.0" type="curve" smooth="yes"/>
      <point x="640.0" y="-104.0"/>
      <point x="568.0" y="-154.0"/>
      <point x="568.0" y="-240.0" type="curve" smooth="yes"/>
      <point x="568.0" y="-322.0"/>
      <point x="630.0" y="-374.0"/>
      <point x="816.0" y="-374.0" type="curve" smooth="yes"/>
      <point x="844.0" y="-374.0" type="line"/>
      <point x="760.0" y="-296.0" type="line"/>
      <point x="760.0" y="-370.0"/>
      <point x="742.0" y="-426.0"/>
    </contour>
  </outline>
</glyph>
<glyph name="kcommaaccent" format="2">
  <advance width="1456.0"/>
  <unicode hex="0137"/>
  <anchor x="748.0" y="0.0" name="_bottom"/>
  <anchor x="748.0" y="0.0" name="bottom"/>
  <anchor x="348.0" y="1616.0" name="top"/>
  <outline>
    <contour>
      <point x="990.0" y="0.0" type="line"/>
      <point x="1494.0" y="0.0" type="line"/>
      <point x="1062.0" y="632.0" type="line"/>
      <point x="1062.0" y="522.0" type="line"/>
      <point x="1456.0" y="1100.0" type="line"/>
      <point x="962.0" y="1100.0" type="line"/>
      <point x="586.0" y="566.0" type="line"/>
    </contour>
    <contour>
      <point x="548.0" y="380.0" type="line"/>
      <point x="742.0" y="380.0" type="line"/>
      <point x="742.0" y="752.0" type="line"/>
      <point x="548.0" y="752.0" type="line"/>
    </contour>
    <contour>
      <point x="116.0" y="0.0" type="line"/>
      <point x="580.0" y="0.0" type="line"/>
      <point x="580.0" y="1616.0" type="line"/>
      <point x="116.0" y="1616.0" type="line"/>
    </contour>
    <contour>
      <point x="620.0" y="-520.0" type="curve"/>
      <point x="900.0" y="-520.0" type="line"/>
      <point x="958.0" y="-460.0"/>
      <point x="996.0" y="-364.0"/>
      <point x="996.0" y="-282.0" type="curve" smooth="yes"/>
      <point x="996.0" y="-170.0"/>
      <point x="924.0" y="-104.0"/>
      <point x="748.0" y="-104.0" type="curve" smooth="yes"/>
      <point x="572.0" y="-104.0"/>
      <point x="500.0" y="-154.0"/>
      <point x="500.0" y="-240.0" type="curve" smooth="yes"/>
      <point x="500.0" y="-322.0"/>
      <point x="562.0" y="-374.0"/>
      <point x="748.0" y="-374.0" type="curve" smooth="yes"/>
      <point x="776.0" y="-374.0" type="line"/>
      <point x="692.0" y="-296.0" type="line"/>
      <point x="692.0" y="-370.0"/>
      <point x="674.0" y="-426.0"/>
    </contour>
  </outline>
</glyph>
<glyph name="Lacute" format="2">
  <advance width="1362.0"/>
  <unicode hex="0139"/>
  <anchor x="368.0" y="1520.0" name="_top"/>
  <anchor x="740.0" y="0.0" name="bottom"/>
  <anchor x="916.0" y="1616.0" name="caronalt"/>
  <anchor x="1038.0" y="930.0" name="periodcentered"/>
  <anchor x="368.0" y="854.0" name="slash"/>
  <anchor x="368.0" y="1520.0" name="top"/>
  <outline>
    <contour>
      <point x="130.0" y="0.0" type="line"/>
      <point x="1350.0" y="0.0" type="line"/>
      <point x="1350.0" y="368.0" type="line"/>
      <point x="606.0" y="368.0" type="line"/>
      <point x="606.0" y="1480.0" type="line"/>
      <point x="130.0" y="1480.0" type="line"/>
    </contour>
    <contour>
      <point x="154.0" y="1586.0" type="line"/>
      <point x="574.0" y="1586.0" type="line"/>
      <point x="846.0" y="1902.0" type="line"/>
      <point x="358.0" y="1902.0" type="line"/>
    </contour>
  </outline>
</glyph>
<glyph name="lacute" format="2">
  <advance width="696.0"/>
  <unicode hex="013A"/>
  <anchor x="348.0" y="1616.0" name="_top"/>
  <anchor x="346.0" y="0.0" name="bottom"/>
  <anchor x="680.0" y="1616.0" name="caronalt"/>
  <anchor x="900.0" y="794.0" name="periodcentered"/>
  <anchor x="348.0" y="714.0" name="slash"/>
  <anchor x="348.0" y="1616.0" name="top"/>
  <outline>
    <contour>
      <point x="116.0" y="0.0" type="line"/>
      <point x="580.0" y="0.0" type="line"/>
      <point x="580.0" y="1616.0" type="line"/>
      <point x="116.0" y="1616.0" type="line"/>
    </contour>
    <contour>
      <point x="134.0" y="1682.0" type="line"/>
      <point x="554.0" y="1682.0" type="line"/>
      <point x="826.0" y="1998.0" type="line"/>
      <point x="338.0" y="1998.0" type="line"/>
    </contour>
  </outline>
</glyph>
<glyph name="lcommaaccent" format="2">
  <advance width="696.0"/>
  <unicode hex="013C"/>
  <anchor x="346.0" y="0.0" name="_bottom"/>
  <anchor x="346.0" y="0.0" name="bottom"/>
  <anchor x="680.0" y="1616.0" name="caronalt"/>
  <anchor x="900.0" y="794.0" name="periodcentered"/>
  <anchor x="348.0" y="714.0" name="slash"/>
  <anchor x="348.0" y="1616.0" name="top"/>
  <outline>
    <contour>
      <point x="116.0" y="0.0" type="line"/>
      <point x="580.0" y="0.0" type="line"/>
      <point x="580.0" y="1616.0" type="line"/>
      <point x="116.0" y="1616.0" type="line"/>
    </contour>
    <contour>
      <point x="218.0" y="-520.0" type="curve"/>
      <point x="498.0" y="-520.0" type="line"/>
      <point x="556.0" y="-460.0"/>
      <point x="594.0" y="-364.0"/>
      <point x="594.0" y="-282.0" type="curve" smooth="yes"/>
      <point x="594.0" y="-170.0"/>
      <point x="522.0" y="-104.0"/>
      <point x="346.0" y="-104.0" type="curve" smooth="yes"/>
      <point x="170.0" y="-104.0"/>
      <point x="98.0" y="-154.0"/>
      <point x="98.0" y="-240.0" type="curve" smooth="yes"/>
      <point x="98.0" y="-322.0"/>
      <point x="160.0" y="-374.0"/>
      <point x="346.0" y="-374.0" type="curve" smooth="yes"/>
      <point x="374.0" y="-374.0" type="line"/>
      <point x="290.0" y="-296.0" type="line"/>
      <point x="290.0" y="-370.0"/>
      <point x="272.0" y="-426.0"/>
    </contour>
  </outline>
</glyph>
<glyph name="Lcaron" format="2">
  <advance width="1362.0"/>
  <unicode hex="013D"/>
  <anchor x="916.0" y="1616.0" name="_caronalt"/>
  <anchor x="740.0" y="0.0" name="bottom"/>
  <anchor x="916.0" y="1616.0" name="caronalt"/>
  <anchor x="1038.0" y="930.0" name="periodcentered"/>
  <anchor x="368.0" y="854.0" name="slash"/>
  <anchor x="368.0" y="1520.0" name="top"/>
  <outline>
    <contour>
      <point x="130.0" y="0.0" type="line"/>
      <point x="1350.0" y="0.0" type="line"/>
      <point x="1350.0" y="368.0" type="line"/>
      <point x="606.0" y="368.0" type="line"/>
      <point x="606.0" y="1480.0" type="line"/>
      <point x="130.0" y="1480.0" type="line"/>
    </contour>
    <contour>
      <point x="884.0" y="1140.0" type="curve"/>
      <point x="1124.0" y="1140.0" type="line"/>
      <point x="1172.0" y="1250.0"/>
      <point x="1210.0" y="1406.0"/>
      <point x="1210.0" y="1616.0" type="curve"/>
      <point x="916.0" y="1616.0" type="line"/>
      <point x="916.0" y="1412.0"/>
      <point x="908.0" y="1294.0"/>
    </contour>
  </outline>
</glyph>
<glyph name="lcaron" format="2">
  <advance width="696.0"/>
  <unicode hex="013E"/>
  <anchor x="680.0" y="1616.0" name="_caronalt"/>
  <anchor x="346.0" y="0.0" name="bottom"/>
  <anchor x="680.0" y="1616.0" name="caronalt"/>
  <anchor x="900.0" y="794.0" name="periodcentered"/>
  <anchor x="348.0" y="714.0" name="slash"/>
  <anchor x="348.0" y="1616.0" name="top"/>
  <outline>
    <contour>
      <point x="116.0" y="0.0" type="line"/>
      <point x="580.0" y="0.0" type="line"/>
      <point x="580.0" y="1616.0" type="line"/>
      <point x="116.0" y="1616.0" type="line"/>
    </contour>
    <contour>
      <point x="644.0" y="1180.0" type="curve"/>
      <point x="884.0" y="1180.0" type="line"/>
      <point x="938.0" y="1290.0"/>
      <point x="974.0" y="1446.0"/>
      <point x="974.0" y="1616.0" type="curve"/>
      <point x="680.0" y="1616.0" type="line"/>
      <point x="680.0" y="1452.0"/>
      <point x="670.0" y="1334.0"/>
    </contour>
  </outline>
</glyph>
<glyph name="ldot" format="2">
  <advance width="1144.0"/>
  <unicode hex="0140"/>
  <outline>
    <contour>
      <point x="116.0" y="0.0" type="line"/>
      <point x="580.0" y="0.0" type="line"/>
      <point x="580.0" y="1616.0" type="line"/>
      <point x="116.0" y="1616.0" type="line"/>
    </contour>
    <contour>
      <point x="918.0" y="582.0" type="curve" smooth="yes"/>
      <point x="1108.0" y="582.0"/>
      <point x="1192.0" y="656.0"/>
      <point x="1192.0" y="794.0" type="curve" smooth="yes"/>
      <point x="1192.0" y="932.0"/>
      <point x="1108.0" y="1006.0"/>
      <point x="918.0" y="1006.0" type="curve" smooth="yes"/>
      <point x="728.0" y="1006.0"/>
      <point x="644.0" y="932.0"/>
      <point x="644.0" y="794.0" type="curve" smooth="yes"/>
      <point x="644.0" y="656.0"/>
      <point x="728.0" y="582.0"/>
    </contour>
  </outline>
</glyph>
<glyph name="Lslash" format="2">
  <advance width="1362.0"/>
  <unicode hex="0141"/>
  <anchor x="368.0" y="854.0" name="_slash"/>
  <anchor x="740.0" y="0.0" name="bottom"/>
  <anchor x="916.0" y="1616.0" name="caronalt"/>
  <anchor x="1038.0" y="930.0" name="periodcentered"/>
  <anchor x="368.0" y="854.0" name="slash"/>
  <anchor x="368.0" y="1520.0" name="top"/>
  <outline>
    <contour>
      <point x="130.0" y="0.0" type="line"/>
      <point x="1350.0" y="0.0" type="line"/>
      <point x="1350.0" y="368.0" type="line"/>
      <point x="606.0" y="368.0" type="line"/>
      <point x="606.0" y="1480.0" type="line"/>
      <point x="130.0" y="1480.0" type="line"/>
    </contour>
    <contour>
      <point x="58.0" y="552.0" type="line"/>
      <point x="1022.0" y="1012.0" type="line"/>
      <point x="900.0" y="1262.0" type="line"/>
      <point x="-64.0" y="802.0" type="line"/>
    </contour>
  </outline>
</glyph>
<glyph name="lslash" format="2">
  <advance width="776.0"/>
  <unicode hex="0142"/>
  <anchor x="388.0" y="714.0" name="_slash"/>
  <anchor x="386.0" y="0.0" name="bottom"/>
  <anchor x="720.0" y="1616.0" name="caronalt"/>
  <anchor x="940.0" y="794.0" name="periodcentered"/>
  <anchor x="388.0" y="714.0" name="slash"/>
  <anchor x="388.0" y="1616.0" name="top"/>
  <outline>
    <contour>
      <point x="156.0" y="0.0" type="line"/>
      <point x="620.0" y="0.0" type="line"/>
      <point x="620.0" y="1616.0" type="line"/>
      <point x="156.0" y="1616.0" type="line"/>
    </contour>
    <contour>
      <point x="76.0" y="416.0" type="line"/>
      <point x="818.0" y="770.0" type="line"/>
      <point x="700.0" y="1012.0" type="line"/>
      <point x="-42.0" y="658.0" type="line"/>
    </contour>
  </outline>
</glyph>
<glyph name="Nacute" format="2">
  <advance width="1804.0"/>
  <unicode hex="0143"/>
  <anchor x="902.0" y="1520.0" name="_top"/>
  <anchor x="902.0" y="0.0" name="bottom"/>
  <anchor x="902.0" y="1520.0" name="top"/>
  <outline>
    <contour>
      <point x="130.0" y="0.0" type="line"/>
      <point x="578.0" y="0.0" type="line"/>
      <point x="578.0" y="934.0" type="line"/>
      <point x="504.0" y="934.0" type="line"/>
      <point x="1198.0" y="0.0" type="line"/>
      <point x="1674.0" y="0.0" type="line"/>
      <point x="1674.0" y="1480.0" type="line"/>
      <point x="1226.0" y="1480.0" type="line"/>
      <point x="1226.0" y="546.0" type="line"/>
      <point x="1300.0" y="546.0" type="line"/>
      <point x="606.0" y="1480.0" type="line"/>
      <point x="130.0" y="1480.0" type="line"/>
    </contour>
    <contour>
      <point x="688.0" y="1586.0" type="line"/>
      <point x="1108.0" y="1586.0" type="line"/>
      <point x="1380.0" y="1902.0" type="line"/>
      <point x="892.0" y="1902.0" type="line"/>
    </contour>
  </outline>
</glyph>
<glyph name="Ncommaaccent" format="2">
  <advance width="1804.0"/>
  <unicode hex="0145"/>
  <anchor x="902.0" y="0.0" name="_bottom"/>
  <anchor x="902.0" y="0.0" name="bottom"/>
  <anchor x="902.0" y="1520.0" name="top"/>
  <outline>
    <contour>
      <point x="130.0" y="0.0" type="line"/>
      <point x="578.0" y="0.0" type="line"/>
      <point x="578.0" y="934.0" type="line"/>
      <point x="504.0" y="934.0" type="line"/>
      <point x="1198.0" y="0.0" type="line"/>
      <point x="1674.0" y="0.0" type="line"/>
      <point x="1674.0" y="1480.0" type="line"/>
      <point x="1226.0" y="1480.0" type="line"/>
      <point x="1226.0" y="546.0" type="line"/>
      <point x="1300.0" y="546.0" type="line"/>
      <point x="606.0" y="1480.0" type="line"/>
      <point x="130.0" y="1480.0" type="line"/>
    </contour>
    <contour>
      <point x="774.0" y="-520.0" type="curve"/>
      <point x="1054.0" y="-520.0" type="line"/>
      <point x="1112.0" y="-460.0"/>
      <point x="1150.0" y="-364.0"/>
      <point x="1150.0" y="-282.0" type="curve" smooth="yes"/>
      <point x="1150.0" y="-170.0"/>
      <point x="1078.0" y="-104.0"/>
      <point x="902.0" y="-104.0" type="curve" smooth="yes"/>
      <point x="726.0" y="-104.0"/>
      <point x="654.0" y="-154.0"/>
      <point x="654.0" y="-240.0" type="curve" smooth="yes"/>
      <point x="654.0" y="-322.0"/>
      <point x="716.0" y="-374.0"/>
      <point x="902.0" y="-374.0" type="curve" smooth="yes"/>
      <point x="930.0" y="-374.0" type="line"/>
      <point x="846.0" y="-296.0" type="line"/>
      <point x="846.0" y="-370.0"/>
      <point x="828.0" y="-426.0"/>
    </contour>
  </outline>
</glyph>
<glyph name="ncommaaccent" format="2">
  <advance width="1462.0"/>
  <unicode hex="0146"/>
  <anchor x="736.0" y="0.0" name="_bottom"/>
  <anchor x="12.0" y="1200.0" name="apostrophe"/>
  <anchor x="736.0" y="0.0" name="bottom"/>
  <anchor x="736.0" y="1200.0" name="top"/>
  <outline>
    <contour>
      <point x="116.0" y="0.0" type="line"/>
      <point x="580.0" y="0.0" type="line"/>
      <point x="580.0" y="670.0" type="line"/>
      <point x="620.0" y="708.0"/>
      <point x="686.0" y="734.0"/>
      <point x="756.0" y="734.0" type="curve" smooth="yes"/>
      <point x="844.0" y="734.0"/>
      <point x="890.0" y="698.0"/>
      <point x="890.0" y="582.0" type="curve" smooth="yes"/>
      <point x="890.0" y="0.0" type="line"/>
      <point x="1354.0" y="0.0" type="line"/>
      <point x="1354.0" y="608.0" type="line" smooth="yes"/>
      <point x="1354.0" y="968.0"/>
      <point x="1162.0" y="1118.0"/>
      <point x="894.0" y="1118.0" type="curve" smooth="yes"/>
      <point x="754.0" y="1118.0"/>
      <point x="628.0" y="1076.0"/>
      <point x="542.0" y="1004.0" type="curve"/>
      <point x="522.0" y="1004.0" type="line"/>
      <point x="494.0" y="1100.0" type="line"/>
      <point x="116.0" y="1100.0" type="line"/>
    </contour>
    <contour>
      <point x="608.0" y="-520.0" type="curve"/>
      <point x="888.0" y="-520.0" type="line"/>
      <point x="946.0" y="-460.0"/>
      <point x="984.0" y="-364.0"/>
      <point x="984.0" y="-282.0" type="curve" smooth="yes"/>
      <point x="984.0" y="-170.0"/>
      <point x="912.0" y="-104.0"/>
      <point x="736.0" y="-104.0" type="curve" smooth="yes"/>
      <point x="560.0" y="-104.0"/>
      <point x="488.0" y="-154.0"/>
      <point x="488.0" y="-240.0" type="curve" smooth="yes"/>
      <point x="488.0" y="-322.0"/>
      <point x="550.0" y="-374.0"/>
      <point x="736.0" y="-374.0" type="curve" smooth="yes"/>
      <point x="764.0" y="-374.0" type="line"/>
      <point x="680.0" y="-296.0" type="line"/>
      <point x="680.0" y="-370.0"/>
      <point x="662.0" y="-426.0"/>
    </contour>
  </outline>
</glyph>
<glyph name="ncaron" format="2">
  <advance width="1462.0"/>
  <unicode hex="0148"/>
  <anchor x="736.0" y="1200.0" name="_top"/>
  <anchor x="12.0" y="1200.0" name="apostrophe"/>
  <anchor x="736.0" y="0.0" name="bottom"/>
  <anchor x="736.0" y="1200.0" name="top"/>
  <outline>
    <contour>
      <point x="116.0" y="0.0" type="line"/>
      <point x="580.0" y="0.0" type="line"/>
      <point x="580.0" y="670.0" type="line"/>
      <point x="620.0" y="708.0"/>
      <point x="686.0" y="734.0"/>
      <point x="756.0" y="734.0" type="curve" smooth="yes"/>
      <point x="844.0" y="734.0"/>
      <point x="890.0" y="698.0"/>
      <point x="890.0" y="582.0" type="curve" smooth="yes"/>
      <point x="890.0" y="0.0" type="line"/>
      <point x="1354.0" y="0.0" type="line"/>
      <point x="1354.0" y="608.0" type="line" smooth="yes"/>
      <point x="1354.0" y="968.0"/>
      <point x="1162.0" y="1118.0"/>
      <point x="894.0" y="1118.0" type="curve" smooth="yes"/>
      <point x="754.0" y="1118.0"/>
      <point x="628.0" y="1076.0"/>
      <point x="542.0" y="1004.0" type="curve"/>
      <point x="522.0" y="1004.0" type="line"/>
      <point x="494.0" y="1100.0" type="line"/>
      <point x="116.0" y="1100.0" type="line"/>
    </contour>
    <contour>
      <point x="558.0" y="1220.0" type="line"/>
      <point x="914.0" y="1220.0" type="line"/>
      <point x="1200.0" y="1616.0" type="line"/>
      <point x="866.0" y="1616.0" type="line"/>
      <point x="702.0" y="1380.0" type="line"/>
      <point x="770.0" y="1380.0" type="line"/>
      <point x="606.0" y="1616.0" type="line"/>
      <point x="272.0" y="1616.0" type="line"/>
    </contour>
  </outline>
</glyph>
<glyph name="napostrophe" format="2">
  <advance width="1462.0"/>
  <unicode hex="0149"/>
  <anchor x="12.0" y="1200.0" name="_apostrophe"/>
  <anchor x="12.0" y="1200.0" name="apostrophe"/>
  <anchor x="736.0" y="0.0" name="bottom"/>
  <anchor x="736.0" y="1200.0" name="top"/>
  <outline>
    <contour>
      <point x="116.0" y="0.0" type="line"/>
      <point x="580.0" y="0.0" type="line"/>
      <point x="580.0" y="670.0" type="line"/>
      <point x="620.0" y="708.0"/>
      <point x="686.0" y="734.0"/>
      <point x="756.0" y="734.0" type="curve" smooth="yes"/>
      <point x="844.0" y="734.0"/>
      <point x="890.0" y="698.0"/>
      <point x="890.0" y="582.0" type="curve" smooth="yes"/>
      <point x="890.0" y="0.0" type="line"/>
      <point x="1354.0" y="0.0" type="line"/>
      <point x="1354.0" y="608.0" type="line" smooth="yes"/>
      <point x="1354.0" y="968.0"/>
      <point x="1162.0" y="1118.0"/>
      <point x="894.0" y="1118.0" type="curve" smooth="yes"/>
      <point x="754.0" y="1118.0"/>
      <point x="628.0" y="1076.0"/>
      <point x="542.0" y="1004.0" type="curve"/>
      <point x="522.0" y="1004.0" type="line"/>
      <point x="494.0" y="1100.0" type="line"/>
      <point x="116.0" y="1100.0" type="line"/>
    </contour>
    <contour>
      <point x="132.0" y="1212.0" type="curve"/>
      <point x="412.0" y="1212.0" type="line"/>
      <point x="470.0" y="1272.0"/>
      <point x="508.0" y="1368.0"/>
      <point x="508.0" y="1450.0" type="curve" smooth="yes"/>
      <point x="508.0" y="1562.0"/>
      <point x="436.0" y="1628.0"/>
      <point x="260.0" y="1628.0" type="curve" smooth="yes"/>
      <point x="84.0" y="1628.0"/>
      <point x="12.0" y="1578.0"/>
      <point x="12.0" y="1492.0" type="curve" smooth="yes"/>
      <point x="12.0" y="1410.0"/>
      <point x="74.0" y="1358.0"/>
      <point x="260.0" y="1358.0" type="curve" smooth="yes"/>
      <point x="288.0" y="1358.0" type="line"/>
      <point x="204.0" y="1436.0" type="line"/>
      <point x="204.0" y="1362.0"/>
      <point x="186.0" y="1306.0"/>
    </contour>
  </outline>
</glyph>
<glyph name="ohungarumlaut" format="2">
  <advance width="1464.0"/>
  <unicode hex="0151"/>
  <anchor x="732.0" y="1200.0" name="_top"/>
  <anchor x="732.0" y="0.0" name="bottom"/>
  <anchor x="732.0" y="550.0" name="center"/>
  <anchor x="942.0" y="0.0" name="ogonek"/>
  <anchor x="732.0" y="1200.0" name="top"/>
  <anchor x="734.0" y="1100.0" name="topright"/>
  <outline>
    <contour>
      <point x="732.0" y="-22.0" type="curve" smooth="yes"/>
      <point x="1134.0" y="-22.0"/>
      <point x="1398.0" y="194.0"/>
      <point x="1398.0" y="550.0" type="curve" smooth="yes"/>
      <point x="1398.0" y="906.0"/>
      <point x="1156.0" y="1118.0"/>
      <point x="732.0" y="1118.0" type="curve" smooth="yes"/>
      <point x="308.0" y="1118.0"/>
      <point x="66.0" y="906.0"/>
      <point x="66.0" y="550.0" type="curve" smooth="yes"/>
      <point x="66.0" y="194.0"/>
      <point x="330.0" y="-22.0"/>
    </contour>
    <contour>
      <point x="732.0" y="326.0" type="curve" smooth="yes"/>
      <point x="596.0" y="326.0"/>
      <point x="524.0" y="396.0"/>
      <point x="524.0" y="550.0" type="curve" smooth="yes"/>
      <point x="524.0" y="704.0"/>
      <point x="596.0" y="770.0"/>
      <point x="732.0" y="770.0" type="curve" smooth="yes"/>
      <point x="868.0" y="770.0"/>
      <point x="940.0" y="704.0"/>
      <point x="940.0" y="550.0" type="curve" smooth="yes"/>
      <point x="940.0" y="396.0"/>
      <point x="868.0" y="326.0"/>
    </contour>
    <contour>
      <point x="806.0" y="1220.0" type="line"/>
      <point x="1130.0" y="1220.0" type="line"/>
      <point x="1318.0" y="1616.0" type="line"/>
      <point x="970.0" y="1616.0" type="line"/>
    </contour>
    <contour>
      <point x="334.0" y="1220.0" type="line"/>
      <point x="658.0" y="1220.0" type="line"/>
      <point x="846.0" y="1616.0" type="line"/>
      <point x="498.0" y="1616.0" type="line"/>
    </contour>
  </outline>
</glyph>
<glyph name="OE" format="2">
  <advance width="2506.0"/>
  <unicode hex="0152"/>
  <anchor x="1414.0" y="0.0" name="bottom"/>
  <anchor x="1414.0" y="1520.0" name="top"/>
  <outline>
    <contour>
      <point x="1152.0" y="-14.0" type="curve" smooth="yes"/>
      <point x="1252.0" y="-14.0"/>
      <point x="1382.0" y="0.0"/>
      <point x="1508.0" y="0.0" type="curve" smooth="yes"/>
      <point x="2420.0" y="0.0" type="line"/>
      <point x="2420.0" y="350.0" type="line"/>
      <point x="1648.0" y="350.0" type="line"/>
      <point x="1648.0" y="1130.0" type="line"/>
      <point x="2410.0" y="1130.0" type="line"/>
      <point x="2410.0" y="1480.0" type="line"/>
      <point x="1508.0" y="1480.0" type="line" smooth="yes"/>
      <point x="1380.0" y="1480.0"/>
      <point x="1246.0" y="1494.0"/>
      <point x="1132.0" y="1494.0" type="curve" smooth="yes"/>
      <point x="436.0" y="1494.0"/>
      <point x="84.0" y="1262.0"/>
      <point x="84.0" y="740.0" type="curve" smooth="yes"/>
      <point x="84.0" y="198.0"/>
      <point x="416.0" y="-14.0"/>
    </contour>
    <contour>
      <point x="1022.0" y="358.0" type="curve" smooth="yes"/>
      <point x="710.0" y="358.0"/>
      <point x="566.0" y="472.0"/>
      <point x="566.0" y="736.0" type="curve" smooth="yes"/>
      <point x="566.0" y="1008.0"/>
      <point x="710.0" y="1122.0"/>
      <point x="1022.0" y="1122.0" type="curve" smooth="yes"/>
      <point x="1080.0" y="1122.0"/>
      <point x="1130.0" y="1122.0"/>
      <point x="1178.0" y="1118.0" type="curve"/>
      <point x="1178.0" y="362.0" type="line"/>
      <point x="1130.0" y="358.0"/>
      <point x="1068.0" y="358.0"/>
    </contour>
    <contour>
      <point x="1406.0" y="580.0" type="line"/>
      <point x="2304.0" y="580.0" type="line"/>
      <point x="2304.0" y="930.0" type="line"/>
      <point x="1406.0" y="930.0" type="line"/>
    </contour>
  </outline>
</glyph>
<glyph name="rcommaaccent" format="2">
  <advance width="958.0"/>
  <unicode hex="0157"/>
  <anchor x="348.0" y="0.0" name="_bottom"/>
  <anchor x="348.0" y="0.0" name="bottom"/>
  <anchor x="532.0" y="1200.0" name="top"/>
  <outline>
    <contour>
      <point x="116.0" y="0.0" type="line"/>
      <point x="580.0" y="0.0" type="line"/>
      <point x="580.0" y="642.0" type="line"/>
      <point x="630.0" y="690.0"/>
      <point x="730.0" y="714.0"/>
      <point x="818.0" y="714.0" type="curve" smooth="yes"/>
      <point x="856.0" y="714.0"/>
      <point x="906.0" y="712.0"/>
      <point x="946.0" y="704.0" type="curve"/>
      <point x="946.0" y="1110.0" type="line"/>
      <point x="920.0" y="1114.0"/>
      <point x="882.0" y="1118.0"/>
      <point x="846.0" y="1118.0" type="curve" smooth="yes"/>
      <point x="714.0" y="1118.0"/>
      <point x="610.0" y="1072.0"/>
      <point x="548.0" y="976.0" type="curve"/>
      <point x="528.0" y="976.0" type="line"/>
      <point x="492.0" y="1100.0" type="line"/>
      <point x="116.0" y="1100.0" type="line"/>
    </contour>
    <contour>
      <point x="220.0" y="-520.0" type="curve"/>
      <point x="500.0" y="-520.0" type="line"/>
      <point x="558.0" y="-460.0"/>
      <point x="596.0" y="-364.0"/>
      <point x="596.0" y="-282.0" type="curve" smooth="yes"/>
      <point x="596.0" y="-170.0"/>
      <point x="524.0" y="-104.0"/>
      <point x="348.0" y="-104.0" type="curve" smooth="yes"/>
      <point x="172.0" y="-104.0"/>
      <point x="100.0" y="-154.0"/>
      <point x="100.0" y="-240.0" type="curve" smooth="yes"/>
      <point x="100.0" y="-322.0"/>
      <point x="162.0" y="-374.0"/>
      <point x="348.0" y="-374.0" type="curve" smooth="yes"/>
      <point x="376.0" y="-374.0" type="line"/>
      <point x="292.0" y="-296.0" type="line"/>
      <point x="292.0" y="-370.0"/>
      <point x="274.0" y="-426.0"/>
    </contour>
  </outline>
</glyph>
<glyph name="scedilla" format="2">
  <advance width="1208.0"/>
  <unicode hex="015F"/>
  <anchor x="618.0" y="0.0" name="_bottom"/>
  <anchor x="618.0" y="0.0" name="bottom"/>
  <anchor x="618.0" y="1200.0" name="top"/>
  <outline>
    <contour>
      <point x="550.0" y="-22.0" type="curve" smooth="yes"/>
      <point x="938.0" y="-22.0"/>
      <point x="1154.0" y="120.0"/>
      <point x="1154.0" y="356.0" type="curve" smooth="yes"/>
      <point x="1154.0" y="584.0"/>
      <point x="1020.0" y="664.0"/>
      <point x="796.0" y="692.0" type="curve" smooth="yes"/>
      <point x="560.0" y="722.0" type="line" smooth="yes"/>
      <point x="510.0" y="728.0"/>
      <point x="498.0" y="738.0"/>
      <point x="498.0" y="756.0" type="curve" smooth="yes"/>
      <point x="498.0" y="784.0"/>
      <point x="526.0" y="814.0"/>
      <point x="722.0" y="814.0" type="curve" smooth="yes"/>
      <point x="850.0" y="814.0"/>
      <point x="1000.0" y="794.0"/>
      <point x="1092.0" y="768.0" type="curve"/>
      <point x="1092.0" y="1074.0" type="line"/>
      <point x="1000.0" y="1100.0"/>
      <point x="850.0" y="1118.0"/>
      <point x="718.0" y="1118.0" type="curve" smooth="yes"/>
      <point x="264.0" y="1118.0"/>
      <point x="62.0" y="970.0"/>
      <point x="62.0" y="736.0" type="curve" smooth="yes"/>
      <point x="62.0" y="552.0"/>
      <point x="156.0" y="438.0"/>
      <point x="422.0" y="404.0" type="curve" smooth="yes"/>
      <point x="658.0" y="374.0" type="line" smooth="yes"/>
      <point x="708.0" y="368.0"/>
      <point x="718.0" y="358.0"/>
      <point x="718.0" y="336.0" type="curve" smooth="yes"/>
      <point x="718.0" y="302.0"/>
      <point x="678.0" y="282.0"/>
      <point x="542.0" y="282.0" type="curve" smooth="yes"/>
      <point x="386.0" y="282.0"/>
      <point x="218.0" y="304.0"/>
      <point x="92.0" y="338.0" type="curve"/>
      <point x="92.0" y="32.0" type="line"/>
      <point x="218.0" y="-2.0"/>
      <point x="386.0" y="-22.0"/>
    </contour>
    <contour>
      <point x="612.0" y="-460.0" type="curve" smooth="yes"/>
      <point x="808.0" y="-460.0"/>
      <point x="910.0" y="-386.0"/>
      <point x="910.0" y="-266.0" type="curve" smooth="yes"/>
      <point x="910.0" y="-146.0"/>
      <point x="828.0" y="-66.0"/>
      <point x="636.0" y="-66.0" type="curve"/>
      <point x="732.0" y="-122.0" type="line"/>
      <point x="732.0" y="20.0" type="line"/>
      <point x="530.0" y="20.0" type="line"/>
      <point x="530.0" y="-184.0" type="line"/>
      <point x="592.0" y="-184.0" type="line" smooth="yes"/>
      <point x="652.0" y="-184.0"/>
      <point x="686.0" y="-200.0"/>
      <point x="686.0" y="-244.0" type="curve" smooth="yes"/>
      <point x="686.0" y="-288.0"/>
      <point x="652.0" y="-304.0"/>
      <point x="590.0" y="-304.0" type="curve" smooth="yes"/>
      <point x="538.0" y="-304.0"/>
      <point x="456.0" y="-294.0"/>
      <point x="404.0" y="-274.0" type="curve"/>
      <point x="404.0" y="-428.0" type="line"/>
      <point x="462.0" y="-448.0"/>
      <point x="534.0" y="-460.0"/>
    </contour>
  </outline>
</glyph>
<glyph name="Utilde" format="2">
  <advance width="1756.0"/>
  <unicode hex="0168"/>
  <anchor x="882.0" y="1520.0" name="_top"/>
  <anchor x="882.0" y="0.0" name="bottom"/>
  <anchor x="1140.0" y="0.0" name="ogonek"/>
  <anchor x="882.0" y="1520.0" name="top"/>
  <anchor x="1164.0" y="1480.0" name="topright"/>
  <outline>
    <contour>
      <point x="882.0" y="-20.0" type="curve" smooth="yes"/>
      <point x="1414.0" y="-20.0"/>
      <point x="1632.0" y="246.0"/>
      <point x="1632.0" y="694.0" type="curve" smooth="yes"/>
      <point x="1632.0" y="1480.0" type="line"/>
      <point x="1164.0" y="1480.0" type="line"/>
      <point x="1164.0" y="656.0" type="line" smooth="yes"/>
      <point x="1164.0" y="450.0"/>
      <point x="1070.0" y="356.0"/>
      <point x="882.0" y="356.0" type="curve" smooth="yes"/>
      <point x="694.0" y="356.0"/>
      <point x="600.0" y="450.0"/>
      <point x="600.0" y="656.0" type="curve" smooth="yes"/>
      <point x="600.0" y="1480.0" type="line"/>
      <point x="124.0" y="1480.0" type="line"/>
      <point x="124.0" y="694.0" type="line" smooth="yes"/>
      <point x="124.0" y="246.0"/>
      <point x="340.0" y="-20.0"/>
    </contour>
    <contour>
      <point x="1080.0" y="1586.0" type="curve" smooth="yes"/>
      <point x="1188.0" y="1586.0"/>
      <point x="1260.0" y="1608.0"/>
      <point x="1326.0" y="1660.0" type="curve"/>
      <point x="1326.0" y="1892.0" type="line"/>
      <point x="1250.0" y="1848.0"/>
      <point x="1186.0" y="1828.0"/>
      <point x="1092.0" y="1828.0" type="curve" smooth="yes"/>
      <point x="948.0" y="1828.0"/>
      <point x="844.0" y="1902.0"/>
      <point x="684.0" y="1902.0" type="curve" smooth="yes"/>
      <point x="576.0" y="1902.0"/>
      <point x="504.0" y="1878.0"/>
      <point x="438.0" y="1826.0" type="curve"/>
      <point x="438.0" y="1594.0" type="line"/>
      <point x="514.0" y="1638.0"/>
      <point x="578.0" y="1658.0"/>
      <point x="672.0" y="1658.0" type="curve" smooth="yes"/>
      <point x="816.0" y="1658.0"/>
      <point x="920.0" y="1586.0"/>
    </contour>
  </outline>
</glyph>
<glyph name="utilde" format="2">
  <advance width="1452.0"/>
  <unicode hex="0169"/>
  <anchor x="722.0" y="1200.0" name="_top"/>
  <anchor x="722.0" y="0.0" name="bottom"/>
  <anchor x="1336.0" y="0.0" name="ogonek"/>
  <anchor x="722.0" y="1200.0" name="top"/>
  <anchor x="892.0" y="1100.0" name="topright"/>
  <outline>
    <contour>
      <point x="586.0" y="-18.0" type="curve" smooth="yes"/>
      <point x="708.0" y="-18.0"/>
      <point x="824.0" y="24.0"/>
      <point x="914.0" y="96.0" type="curve"/>
      <point x="930.0" y="96.0" type="line"/>
      <point x="958.0" y="0.0" type="line"/>
      <point x="1336.0" y="0.0" type="line"/>
      <point x="1336.0" y="1100.0" type="line"/>
      <point x="872.0" y="1100.0" type="line"/>
      <point x="872.0" y="430.0" type="line"/>
      <point x="832.0" y="392.0"/>
      <point x="766.0" y="366.0"/>
      <point x="700.0" y="366.0" type="curve" smooth="yes"/>
      <point x="618.0" y="366.0"/>
      <point x="572.0" y="402.0"/>
      <point x="572.0" y="518.0" type="curve" smooth="yes"/>
      <point x="572.0" y="1100.0" type="line"/>
      <point x="108.0" y="1100.0" type="line"/>
      <point x="108.0" y="492.0" type="line" smooth="yes"/>
      <point x="108.0" y="132.0"/>
      <point x="304.0" y="-18.0"/>
    </contour>
    <contour>
      <point x="900.0" y="1240.0" type="curve" smooth="yes"/>
      <point x="1000.0" y="1240.0"/>
      <point x="1072.0" y="1266.0"/>
      <point x="1138.0" y="1326.0" type="curve"/>
      <point x="1138.0" y="1588.0" type="line"/>
      <point x="1062.0" y="1522.0"/>
      <point x="998.0" y="1496.0"/>
      <point x="912.0" y="1496.0" type="curve" smooth="yes"/>
      <point x="788.0" y="1496.0"/>
      <point x="684.0" y="1598.0"/>
      <point x="544.0" y="1598.0" type="curve" smooth="yes"/>
      <point x="444.0" y="1598.0"/>
      <point x="372.0" y="1572.0"/>
      <point x="306.0" y="1512.0" type="curve"/>
      <point x="306.0" y="1250.0" type="line"/>
      <point x="382.0" y="1316.0"/>
      <point x="446.0" y="1342.0"/>
      <point x="532.0" y="1342.0" type="curve" smooth="yes"/>
      <point x="656.0" y="1342.0"/>
      <point x="760.0" y="1240.0"/>
    </contour>
  </outline>
</glyph>
<glyph name="Uring" format="2">
  <advance width="1756.0"/>
  <unicode hex="016E"/>
  <anchor x="882.0" y="1520.0" name="_top"/>
  <anchor x="882.0" y="0.0" name="bottom"/>
  <anchor x="1140.0" y="0.0" name="ogonek"/>
  <anchor x="882.0" y="1520.0" name="top"/>
  <anchor x="1164.0" y="1480.0" name="topright"/>
  <outline>
    <contour>
      <point x="882.0" y="-20.0" type="curve" smooth="yes"/>
      <point x="1414.0" y="-20.0"/>
      <point x="1632.0" y="246.0"/>
      <point x="1632.0" y="694.0" type="curve" smooth="yes"/>
      <point x="1632.0" y="1480.0" type="line"/>
      <point x="1164.0" y="1480.0" type="line"/>
      <point x="1164.0" y="656.0" type="line" smooth="yes"/>
      <point x="1164.0" y="450.0"/>
      <point x="1070.0" y="356.0"/>
      <point x="882.0" y="356.0" type="curve" smooth="yes"/>
      <point x="694.0" y="356.0"/>
      <point x="600.0" y="450.0"/>
      <point x="600.0" y="656.0" type="curve" smooth="yes"/>
      <point x="600.0" y="1480.0" type="line"/>
      <point x="124.0" y="1480.0" type="line"/>
      <point x="124.0" y="694.0" type="line" smooth="yes"/>
      <point x="124.0" y="246.0"/>
      <point x="340.0" y="-20.0"/>
    </contour>
    <contour>
      <point x="882.0" y="1570.0" type="curve" smooth="yes"/>
      <point x="1014.0" y="1570.0"/>
      <point x="1110.0" y="1662.0"/>
      <point x="1110.0" y="1790.0" type="curve" smooth="yes"/>
      <point x="1110.0" y="1918.0"/>
      <point x="1014.0" y="2010.0"/>
      <point x="882.0" y="2010.0" type="curve" smooth="yes"/>
      <point x="750.0" y="2010.0"/>
      <point x="654.0" y="1918.0"/>
      <point x="654.0" y="1790.0" type="curve" smooth="yes"/>
      <point x="654.0" y="1662.0"/>
      <point x="750.0" y="1570.0"/>
    </contour>
    <contour>
      <point x="882.0" y="1708.0" type="curve" smooth="yes"/>
      <point x="836.0" y="1708.0"/>
      <point x="804.0" y="1740.0"/>
      <point x="804.0" y="1790.0" type="curve" smooth="yes"/>
      <point x="804.0" y="1840.0"/>
      <point x="836.0" y="1872.0"/>
      <point x="882.0" y="1872.0" type="curve" smooth="yes"/>
      <point x="928.0" y="1872.0"/>
      <point x="960.0" y="1840.0"/>
      <point x="960.0" y="1790.0" type="curve" smooth="yes"/>
      <point x="960.0" y="1740.0"/>
      <point x="928.0" y="1708.0"/>
    </contour>
  </outline>
</glyph>
<glyph name="uhungarumlaut" format="2">
  <advance width="1452.0"/>
  <unicode hex="0171"/>
  <anchor x="722.0" y="1200.0" name="_top"/>
  <anchor x="722.0" y="0.0" name="bottom"/>
  <anchor x="1336.0" y="0.0" name="ogonek"/>
  <anchor x="722.0" y="1200.0" name="top"/>
  <anchor x="892.0" y="1100.0" name="topright"/>
  <outline>
    <contour>
      <point x="586.0" y="-18.0" type="curve" smooth="yes"/>
      <point x="708.0" y="-18.0"/>
      <point x="824.0" y="24.0"/>
      <point x="914.0" y="96.0" type="curve"/>
      <point x="930.0" y="96.0" type="line"/>
      <point x="958.0" y="0.0" type="line"/>
      <point x="1336.0" y="0.0" type="line"/>
      <point x="1336.0" y="1100.0" type="line"/>
      <point x="872.0" y="1100.0" type="line"/>
      <point x="872.0" y="430.0" type="line"/>
      <point x="832.0" y="392.0"/>
      <point x="766.0" y="366.0"/>
      <point x="700.0" y="366.0" type="curve" smooth="yes"/>
      <point x="618.0" y="366.0"/>
      <point x="572.0" y="402.0"/>
      <point x="572.0" y="518.0" type="curve" smooth="yes"/>
      <point x="572.0" y="1100.0" type="line"/>
      <point x="108.0" y="1100.0" type="line"/>
      <point x="108.0" y="492.0" type="line" smooth="yes"/>
      <point x="108.0" y="132.0"/>
      <point x="304.0" y="-18.0"/>
    </contour>
    <contour>
      <point x="796.0" y="1220.0" type="line"/>
      <point x="1120.0" y="1220.0" type="line"/>
      <point x="1308.0" y="1616.0" type="line"/>
      <point x="960.0" y="1616.0" type="line"/>
    </contour>
    <contour>
      <point x="324.0" y="1220.0" type="line"/>
      <point x="648.0" y="1220.0" type="line"/>
      <point x="836.0" y="1616.0" type="line"/>
      <point x="488.0" y="1616.0" type="line"/>
    </contour>
  </outline>
</glyph>
<glyph name="Wcircumflex" format="2">
  <advance width="2748.0"/>
  <unicode hex="0174"/>
  <anchor x="1374.0" y="1520.0" name="_top"/>
  <anchor x="1374.0" y="0.0" name="bottom"/>
  <anchor x="1374.0" y="1520.0" name="top"/>
  <outline>
    <contour>
      <point x="466.0" y="0.0" type="line"/>
      <point x="1066.0" y="0.0" type="line"/>
      <point x="1446.0" y="1236.0" type="line"/>
      <point x="1316.0" y="1236.0" type="line"/>
      <point x="1682.0" y="0.0" type="line"/>
      <point x="2282.0" y="0.0" type="line"/>
      <point x="2724.0" y="1480.0" type="line"/>
      <point x="2272.0" y="1480.0" type="line"/>
      <point x="1916.0" y="236.0" type="line"/>
      <point x="2008.0" y="236.0" type="line"/>
      <point x="1646.0" y="1480.0" type="line"/>
      <point x="1126.0" y="1480.0" type="line"/>
      <point x="746.0" y="236.0" type="line"/>
      <point x="852.0" y="236.0" type="line"/>
      <point x="504.0" y="1480.0" type="line"/>
      <point x="24.0" y="1480.0" type="line"/>
    </contour>
    <contour>
      <point x="850.0" y="1586.0" type="line"/>
      <point x="1214.0" y="1586.0" type="line"/>
      <point x="1412.0" y="1778.0" type="line"/>
      <point x="1336.0" y="1778.0" type="line"/>
      <point x="1534.0" y="1586.0" type="line"/>
      <point x="1898.0" y="1586.0" type="line"/>
      <point x="1566.0" y="1902.0" type="line"/>
      <point x="1182.0" y="1902.0" type="line"/>
    </contour>
  </outline>
</glyph>
<glyph name="wcircumflex" format="2">
  <advance width="2150.0"/>
  <unicode hex="0175"/>
  <anchor x="1076.0" y="1200.0" name="_top"/>
  <anchor x="1076.0" y="0.0" name="bottom"/>
  <anchor x="1076.0" y="1200.0" name="top"/>
  <outline>
    <contour>
      <point x="370.0" y="0.0" type="line"/>
      <point x="884.0" y="0.0" type="line"/>
      <point x="1088.0" y="728.0" type="line"/>
      <point x="1072.0" y="728.0" type="line"/>
      <point x="1268.0" y="0.0" type="line"/>
      <point x="1782.0" y="0.0" type="line"/>
      <point x="2090.0" y="1100.0" type="line"/>
      <point x="1666.0" y="1100.0" type="line"/>
      <point x="1492.0" y="430.0" type="line"/>
      <point x="1518.0" y="430.0" type="line"/>
      <point x="1342.0" y="1100.0" type="line"/>
      <point x="828.0" y="1100.0" type="line"/>
      <point x="648.0" y="432.0" type="line"/>
      <point x="664.0" y="432.0" type="line"/>
      <point x="504.0" y="1100.0" type="line"/>
      <point x="60.0" y="1100.0" type="line"/>
    </contour>
    <contour>
      <point x="612.0" y="1220.0" type="line"/>
      <point x="946.0" y="1220.0" type="line"/>
      <point x="1110.0" y="1456.0" type="line"/>
      <point x="1042.0" y="1456.0" type="line"/>
      <point x="1206.0" y="1220.0" type="line"/>
      <point x="1540.0" y="1220.0" type="line"/>
      <point x="1254.0" y="1616.0" type="line"/>
      <point x="898.0" y="1616.0" type="line"/>
    </contour>
  </outline>
</glyph>
<glyph name="ycircumflex" format="2">
  <advance width="1424.0"/>
  <unicode hex="0177"/>
  <anchor x="712.0" y="1200.0" name="_top"/>
  <anchor x="1206.0" y="0.0" name="bottom"/>
  <anchor x="712.0" y="1200.0" name="top"/>
  <outline>
    <contour>
      <point x="358.0" y="-440.0" type="line"/>
      <point x="810.0" y="-440.0" type="line"/>
      <point x="1438.0" y="1100.0" type="line"/>
      <point x="986.0" y="1100.0" type="line"/>
      <point x="718.0" y="370.0" type="line"/>
      <point x="540.0" y="0.0" type="line"/>
    </contour>
    <contour>
      <point x="432.0" y="0.0" type="line"/>
      <point x="878.0" y="0.0" type="line"/>
      <point x="474.0" y="1100.0" type="line"/>
      <point x="-14.0" y="1100.0" type="line"/>
    </contour>
    <contour>
      <point x="248.0" y="1220.0" type="line"/>
      <point x="582.0" y="1220.0" type="line"/>
      <point x="746.0" y="1456.0" type="line"/>
      <point x="678.0" y="1456.0" type="line"/>
      <point x="842.0" y="1220.0" type="line"/>
      <point x="1176.0" y="1220.0" type="line"/>
      <point x="890.0" y="1616.0" type="line"/>
      <point x="534.0" y="1616.0" type="line"/>
    </contour>
  </outline>
</glyph>
<glyph name="zdotaccent" format="2">
  <advance width="1274.0"/>
  <unicode hex="017C"/>
  <anchor x="650.0" y="1200.0" name="_top"/>
  <anchor x="650.0" y="0.0" name="bottom"/>
  <anchor x="650.0" y="1200.0" name="top"/>
  <outline>
    <contour>
      <point x="92.0" y="0.0" type="line"/>
      <point x="1206.0" y="0.0" type="line"/>
      <point x="1206.0" y="360.0" type="line"/>
      <point x="638.0" y="360.0" type="line"/>
      <point x="638.0" y="288.0" type="line"/>
      <point x="1196.0" y="800.0" type="line"/>
      <point x="1196.0" y="1100.0" type="line"/>
      <point x="102.0" y="1100.0" type="line"/>
      <point x="102.0" y="740.0" type="line"/>
      <point x="650.0" y="740.0" type="line"/>
      <point x="650.0" y="812.0" type="line"/>
      <point x="92.0" y="300.0" type="line"/>
    </contour>
    <contour>
      <point x="650.0" y="1206.0" type="curve" smooth="yes"/>
      <point x="840.0" y="1206.0"/>
      <point x="924.0" y="1280.0"/>
      <point x="924.0" y="1418.0" type="curve" smooth="yes"/>
      <point x="924.0" y="1556.0"/>
      <point x="840.0" y="1630.0"/>
      <point x="650.0" y="1630.0" type="curve" smooth="yes"/>
      <point x="460.0" y="1630.0"/>
      <point x="376.0" y="1556.0"/>
      <point x="376.0" y="1418.0" type="curve" smooth="yes"/>
      <point x="376.0" y="1280.0"/>
      <point x="460.0" y="1206.0"/>
    </contour>
  </outline>
</glyph>
<glyph name="Zcaron" format="2">
  <advance width="1482.0"/>
  <unicode hex="017D"/>
  <anchor x="742.0" y="1520.0" name="_top"/>
  <anchor x="742.0" y="0.0" name="bottom"/>
  <anchor x="742.0" y="1520.0" name="top"/>
  <outline>
    <contour>
      <point x="84.0" y="0.0" type="line"/>
      <point x="1398.0" y="0.0" type="line"/>
      <point x="1398.0" y="368.0" type="line"/>
      <point x="628.0" y="368.0" type="line"/>
      <point x="628.0" y="280.0" type="line"/>
      <point x="1388.0" y="1226.0" type="line"/>
      <point x="1388.0" y="1480.0" type="line"/>
      <point x="94.0" y="1480.0" type="line"/>
      <point x="94.0" y="1112.0" type="line"/>
      <point x="844.0" y="1112.0" type="line"/>
      <point x="844.0" y="1200.0" type="line"/>
      <point x="84.0" y="254.0" type="line"/>
    </contour>
    <contour>
      <point x="550.0" y="1586.0" type="line"/>
      <point x="934.0" y="1586.0" type="line"/>
      <point x="1266.0" y="1902.0" type="line"/>
      <point x="902.0" y="1902.0" type="line"/>
      <point x="704.0" y="1710.0" type="line"/>
      <point x="780.0" y="1710.0" type="line"/>
      <point x="582.0" y="1902.0" type="line"/>
      <point x="218.0" y="1902.0" type="line"/>
    </contour>
  </outline>
</glyph>
<glyph name="Schwa" format="2">
  <advance width="1858.0"/>
  <unicode hex="018F"/>
  <anchor x="810.0" y="0.0" name="bottom"/>
  <anchor x="810.0" y="1480.0" name="top"/>
  <outline>
    <contour>
      <point x="938.0" y="-20.0" type="curve" smooth="yes"/>
      <point x="1468.0" y="-20.0"/>
      <point x="1774.0" y="274.0"/>
      <point x="1774.0" y="720.0" type="curve" smooth="yes"/>
      <point x="1774.0" y="1250.0"/>
      <point x="1424.0" y="1500.0"/>
      <point x="706.0" y="1500.0" type="curve" smooth="yes"/>
      <point x="540.0" y="1500.0"/>
      <point x="358.0" y="1486.0"/>
      <point x="196.0" y="1458.0" type="curve"/>
      <point x="196.0" y="1090.0" type="line"/>
      <point x="342.0" y="1118.0"/>
      <point x="520.0" y="1134.0"/>
      <point x="672.0" y="1134.0" type="curve" smooth="yes"/>
      <point x="1086.0" y="1134.0"/>
      <point x="1312.0" y="1026.0"/>
      <point x="1312.0" y="712.0" type="curve" smooth="yes"/>
      <point x="1312.0" y="422.0"/>
      <point x="1190.0" y="324.0"/>
      <point x="944.0" y="324.0" type="curve" smooth="yes"/>
      <point x="670.0" y="324.0"/>
      <point x="554.0" y="434.0"/>
      <point x="554.0" y="712.0" type="curve"/>
      <point x="406.0" y="550.0" type="line"/>
      <point x="1438.0" y="550.0" type="line"/>
      <point x="1438.0" y="872.0" type="line"/>
      <point x="74.0" y="872.0" type="line"/>
      <point x="74.0" y="740.0" type="line" smooth="yes"/>
      <point x="74.0" y="270.0"/>
      <point x="400.0" y="-20.0"/>
    </contour>
  </outline>
</glyph>
<glyph name="Dzcaron" format="2">
  <advance width="3074.0"/>
  <unicode hex="01C5"/>
  <anchor x="2450.0" y="1200.0" name="_top"/>
  <anchor x="794.0" y="0.0" name="bottom"/>
  <anchor x="886.0" y="740.0" name="center"/>
  <anchor x="130.0" y="762.0" name="stroke"/>
  <anchor x="774.0" y="1520.0" name="top"/>
  <outline>
    <contour>
      <point x="632.0" y="-14.0" type="curve" smooth="yes"/>
      <point x="1362.0" y="-14.0"/>
      <point x="1716.0" y="198.0"/>
      <point x="1716.0" y="740.0" type="curve" smooth="yes"/>
      <point x="1716.0" y="1258.0"/>
      <point x="1380.0" y="1494.0"/>
      <point x="740.0" y="1494.0" type="curve" smooth="yes"/>
      <point x="540.0" y="1494.0"/>
      <point x="292.0" y="1470.0"/>
      <point x="130.0" y="1432.0" type="curve"/>
      <point x="130.0" y="14.0" type="line"/>
      <point x="290.0" y="-6.0"/>
      <point x="494.0" y="-14.0"/>
    </contour>
    <contour>
      <point x="762.0" y="356.0" type="curve" smooth="yes"/>
      <point x="704.0" y="356.0"/>
      <point x="654.0" y="356.0"/>
      <point x="606.0" y="360.0" type="curve"/>
      <point x="606.0" y="1112.0" type="line"/>
      <point x="650.0" y="1120.0"/>
      <point x="716.0" y="1126.0"/>
      <point x="762.0" y="1126.0" type="curve" smooth="yes"/>
      <point x="1082.0" y="1126.0"/>
      <point x="1232.0" y="1010.0"/>
      <point x="1232.0" y="744.0" type="curve" smooth="yes"/>
      <point x="1232.0" y="470.0"/>
      <point x="1092.0" y="356.0"/>
    </contour>
    <contour>
      <point x="1892.0" y="0.0" type="line"/>
      <point x="3006.0" y="0.0" type="line"/>
      <point x="3006.0" y="360.0" type="line"/>
      <point x="2438.0" y="360.0" type="line"/>
      <point x="2438.0" y="288.0" type="line"/>
      <point x="2996.0" y="800.0" type="line"/>
      <point x="2996.0" y="1100.0" type="line"/>
      <point x="1902.0" y="1100.0" type="line"/>
      <point x="1902.0" y="740.0" type="line"/>
      <point x="2450.0" y="740.0" type="line"/>
      <point x="2450.0" y="812.0" type="line"/>
      <point x="1892.0" y="300.0" type="line"/>
    </contour>
    <contour>
      <point x="2258.0" y="1266.0" type="line"/>
      <point x="2642.0" y="1266.0" type="line"/>
      <point x="2974.0" y="1582.0" type="line"/>
      <point x="2610.0" y="1582.0" type="line"/>
      <point x="2412.0" y="1390.0" type="line"/>
      <point x="2488.0" y="1390.0" type="line"/>
      <point x="2290.0" y="1582.0" type="line"/>
      <point x="1926.0" y="1582.0" type="line"/>
    </contour>
  </outline>
</glyph>
<glyph name="LJ" format="2">
  <advance width="2098.0"/>
  <unicode hex="01C7"/>
  <anchor x="740.0" y="0.0" name="bottom"/>
  <anchor x="916.0" y="1616.0" name="caronalt"/>
  <anchor x="1038.0" y="930.0" name="periodcentered"/>
  <anchor x="368.0" y="854.0" name="slash"/>
  <anchor x="368.0" y="1520.0" name="top"/>
  <outline>
    <contour>
      <point x="130.0" y="0.0" type="line"/>
      <point x="1350.0" y="0.0" type="line"/>
      <point x="1350.0" y="368.0" type="line"/>
      <point x="606.0" y="368.0" type="line"/>
      <point x="606.0" y="1480.0" type="line"/>
      <point x="130.0" y="1480.0" type="line"/>
    </contour>
    <contour>
      <point x="1642.0" y="-358.0" type="line"/>
      <point x="1886.0" y="-140.0"/>
      <point x="1968.0" y="68.0"/>
      <point x="1968.0" y="318.0" type="curve"/>
      <point x="1968.0" y="1480.0" type="line"/>
      <point x="1496.0" y="1480.0" type="line"/>
      <point x="1496.0" y="302.0" type="line" smooth="yes"/>
      <point x="1496.0" y="96.0"/>
      <point x="1460.0" y="-30.0"/>
      <point x="1350.0" y="-162.0" type="curve"/>
    </contour>
  </outline>
</glyph>
<glyph name="Lj" format="2">
  <advance width="2058.0"/>
  <unicode hex="01C8"/>
  <anchor x="740.0" y="0.0" name="bottom"/>
  <anchor x="916.0" y="1616.0" name="caronalt"/>
  <anchor x="1038.0" y="930.0" name="periodcentered"/>
  <anchor x="368.0" y="854.0" name="slash"/>
  <anchor x="368.0" y="1520.0" name="top"/>
  <outline>
    <contour>
      <point x="130.0" y="0.0" type="line"/>
      <point x="1350.0" y="0.0" type="line"/>
      <point x="1350.0" y="368.0" type="line"/>
      <point x="606.0" y="368.0" type="line"/>
      <point x="606.0" y="1480.0" type="line"/>
      <point x="130.0" y="1480.0" type="line"/>
    </contour>
    <component base="jdotless" xOffset="1362.0"/>
    <component base="dotaccentcomb" xOffset="1100.0"/>
  </outline>
</glyph>
<glyph name="lj" format="2">
  <advance width="1392.0"/>
  <unicode hex="01C9"/>
  <anchor x="1034.0" y="1200.0" name="_top"/>
  <anchor x="346.0" y="0.0" name="bottom"/>
  <anchor x="680.0" y="1616.0" name="caronalt"/>
  <anchor x="900.0" y="794.0" name="periodcentered"/>
  <anchor x="348.0" y="714.0" name="slash"/>
  <anchor x="348.0" y="1616.0" name="top"/>
  <outline>
    <contour>
      <point x="116.0" y="0.0" type="line"/>
      <point x="580.0" y="0.0" type="line"/>
      <point x="580.0" y="1616.0" type="line"/>
      <point x="116.0" y="1616.0" type="line"/>
    </contour>
    <contour>
      <point x="954.0" y="-476.0" type="line"/>
      <point x="1194.0" y="-258.0"/>
      <point x="1276.0" y="-54.0"/>
      <point x="1276.0" y="196.0" type="curve" smooth="yes"/>
      <point x="1276.0" y="1100.0" type="line"/>
      <point x="812.0" y="1100.0" type="line"/>
      <point x="812.0" y="180.0" type="line" smooth="yes"/>
      <point x="812.0" y="-26.0"/>
      <point x="776.0" y="-152.0"/>
      <point x="666.0" y="-284.0" type="curve"/>
    </contour>
    <contour>
      <point x="1034.0" y="1206.0" type="curve" smooth="yes"/>
      <point x="1224.0" y="1206.0"/>
      <point x="1308.0" y="1280.0"/>
      <point x="1308.0" y="1418.0" type="curve" smooth="yes"/>
      <point x="1308.0" y="1556.0"/>
      <point x="1224.0" y="1630.0"/>
      <point x="1034.0" y="1630.0" type="curve" smooth="yes"/>
      <point x="844.0" y="1630.0"/>
      <point x="760.0" y="1556.0"/>
      <point x="760.0" y="1418.0" type="curve" smooth="yes"/>
      <point x="760.0" y="1280.0"/>
      <point x="844.0" y="1206.0"/>
    </contour>
  </outline>
</glyph>
<glyph name="Nj" format="2">
  <advance width="2500.0"/>
  <unicode hex="01CB"/>
  <anchor x="902.0" y="0.0" name="bottom"/>
  <anchor x="902.0" y="1520.0" name="top"/>
  <outline>
    <contour>
      <point x="130.0" y="0.0" type="line"/>
      <point x="578.0" y="0.0" type="line"/>
      <point x="578.0" y="934.0" type="line"/>
      <point x="504.0" y="934.0" type="line"/>
      <point x="1198.0" y="0.0" type="line"/>
      <point x="1674.0" y="0.0" type="line"/>
      <point x="1674.0" y="1480.0" type="line"/>
      <point x="1226.0" y="1480.0" type="line"/>
      <point x="1226.0" y="546.0" type="line"/>
      <point x="1300.0" y="546.0" type="line"/>
      <point x="606.0" y="1480.0" type="line"/>
      <point x="130.0" y="1480.0" type="line"/>
    </contour>
    <component base="jdotless" xOffset="1804.0"/>
    <component base="dotaccentcomb" xOffset="1542.0"/>
  </outline>
</glyph>
<glyph name="Oogonek" format="2">
  <advance width="1892.0"/>
  <unicode hex="01EA"/>
  <outline>
    <contour>
      <point x="996.0" y="-460.0" type="curve" smooth="yes"/>
      <point x="1080.0" y="-460.0"/>
      <point x="1142.0" y="-448.0"/>
      <point x="1200.0" y="-430.0" type="curve"/>
      <point x="1200.0" y="-270.0" type="line"/>
      <point x="1144.0" y="-288.0"/>
      <point x="1100.0" y="-294.0"/>
      <point x="1068.0" y="-294.0" type="curve" smooth="yes"/>
      <point x="964.0" y="-294.0"/>
      <point x="920.0" y="-256.0"/>
      <point x="920.0" y="-196.0" type="curve" smooth="yes"/>
      <point x="920.0" y="-124.0"/>
      <point x="978.0" y="-44.0"/>
      <point x="1208.0" y="6.0" type="curve" smooth="yes"/>
      <point x="1532.0" y="76.0"/>
      <point x="1808.0" y="308.0"/>
      <point x="1808.0" y="740.0" type="curve" smooth="yes"/>
      <point x="1808.0" y="1206.0"/>
      <point x="1482.0" y="1500.0"/>
      <point x="946.0" y="1500.0" type="curve" smooth="yes"/>
      <point x="410.0" y="1500.0"/>
      <point x="84.0" y="1210.0"/>
      <point x="84.0" y="740.0" type="curve" smooth="yes"/>
      <point x="84.0" y="278.0"/>
      <point x="400.0" y="-10.0"/>
      <point x="916.0" y="-20.0" type="curve" smooth="yes"/>
      <point x="956.0" y="-20.0" type="line"/>
      <point x="978.0" y="60.0" type="line"/>
      <point x="746.0" y="-2.0"/>
      <point x="664.0" y="-110.0"/>
      <point x="664.0" y="-234.0" type="curve" smooth="yes"/>
      <point x="664.0" y="-370.0"/>
      <point x="770.0" y="-460.0"/>
    </contour>
    <contour>
      <point x="946.0" y="348.0" type="curve" smooth="yes"/>
      <point x="700.0" y="348.0"/>
      <point x="568.0" y="480.0"/>
      <point x="568.0" y="748.0" type="curve" smooth="yes"/>
      <point x="568.0" y="1000.0"/>
      <point x="706.0" y="1132.0"/>
      <point x="946.0" y="1132.0" type="curve" smooth="yes"/>
      <point x="1186.0" y="1132.0"/>
      <point x="1324.0" y="994.0"/>
      <point x="1324.0" y="732.0" type="curve" smooth="yes"/>
      <point x="1324.0" y="486.0"/>
      <point x="1192.0" y="348.0"/>
    </contour>
  </outline>
</glyph>
<glyph name="oogonek" format="2">
  <advance width="1464.0"/>
  <unicode hex="01EB"/>
  <anchor x="732.0" y="0.0" name="bottom"/>
  <anchor x="732.0" y="550.0" name="center"/>
  <anchor x="732.0" y="1200.0" name="top"/>
  <anchor x="734.0" y="1100.0" name="topright"/>
  <outline>
    <contour>
      <point x="794.0" y="-460.0" type="curve" smooth="yes"/>
      <point x="878.0" y="-460.0"/>
      <point x="930.0" y="-448.0"/>
      <point x="984.0" y="-430.0" type="curve"/>
      <point x="984.0" y="-270.0" type="line"/>
      <point x="940.0" y="-288.0"/>
      <point x="898.0" y="-294.0"/>
      <point x="866.0" y="-294.0" type="curve" smooth="yes"/>
      <point x="780.0" y="-294.0"/>
      <point x="738.0" y="-256.0"/>
      <point x="738.0" y="-194.0" type="curve" smooth="yes"/>
      <point x="738.0" y="-122.0"/>
      <point x="786.0" y="-56.0"/>
      <point x="1010.0" y="18.0" type="curve" smooth="yes"/>
      <point x="1248.0" y="96.0"/>
      <point x="1398.0" y="284.0"/>
      <point x="1398.0" y="550.0" type="curve" smooth="yes"/>
      <point x="1398.0" y="906.0"/>
      <point x="1156.0" y="1118.0"/>
      <point x="732.0" y="1118.0" type="curve" smooth="yes"/>
      <point x="308.0" y="1118.0"/>
      <point x="66.0" y="906.0"/>
      <point x="66.0" y="550.0" type="curve" smooth="yes"/>
      <point x="66.0" y="194.0"/>
      <point x="330.0" y="-22.0"/>
      <point x="732.0" y="-22.0" type="curve"/>
      <point x="736.0" y="46.0" type="line"/>
      <point x="556.0" y="-18.0"/>
      <point x="482.0" y="-110.0"/>
      <point x="482.0" y="-234.0" type="curve" smooth="yes"/>
      <point x="482.0" y="-370.0"/>
      <point x="584.0" y="-460.0"/>
    </contour>
    <contour>
      <point x="732.0" y="326.0" type="curve" smooth="yes"/>
      <point x="596.0" y="326.0"/>
      <point x="524.0" y="396.0"/>
      <point x="524.0" y="550.0" type="curve" smooth="yes"/>
      <point x="524.0" y="704.0"/>
      <point x="596.0" y="770.0"/>
      <point x="732.0" y="770.0" type="curve" smooth="yes"/>
      <point x="868.0" y="770.0"/>
      <point x="940.0" y="704.0"/>
      <point x="940.0" y="550.0" type="curve" smooth="yes"/>
      <point x="940.0" y="396.0"/>
      <point x="868.0" y="326.0"/>
    </contour>
  </outline>
</glyph>
<glyph name="Dz" format="2">
  <advance width="3074.0"/>
  <unicode hex="01F2"/>
  <anchor x="794.0" y="0.0" name="bottom"/>
  <anchor x="886.0" y="740.0" name="center"/>
  <anchor x="130.0" y="762.0" name="stroke"/>
  <anchor x="774.0" y="1520.0" name="top"/>
  <outline>
    <contour>
      <point x="632.0" y="-14.0" type="curve" smooth="yes"/>
      <point x="1362.0" y="-14.0"/>
      <point x="1716.0" y="198.0"/>
      <point x="1716.0" y="740.0" type="curve" smooth="yes"/>
      <point x="1716.0" y="1258.0"/>
      <point x="1380.0" y="1494.0"/>
      <point x="740.0" y="1494.0" type="curve" smooth="yes"/>
      <point x="540.0" y="1494.0"/>
      <point x="292.0" y="1470.0"/>
      <point x="130.0" y="1432.0" type="curve"/>
      <point x="130.0" y="14.0" type="line"/>
      <point x="290.0" y="-6.0"/>
      <point x="494.0" y="-14.0"/>
    </contour>
    <contour>
      <point x="762.0" y="356.0" type="curve" smooth="yes"/>
      <point x="704.0" y="356.0"/>
      <point x="654.0" y="356.0"/>
      <point x="606.0" y="360.0" type="curve"/>
      <point x="606.0" y="1112.0" type="line"/>
      <point x="650.0" y="1120.0"/>
      <point x="716.0" y="1126.0"/>
      <point x="762.0" y="1126.0" type="curve" smooth="yes"/>
      <point x="1082.0" y="1126.0"/>
      <point x="1232.0" y="1010.0"/>
      <point x="1232.0" y="744.0" type="curve" smooth="yes"/>
      <point x="1232.0" y="470.0"/>
      <point x="1092.0" y="356.0"/>
    </contour>
    <contour>
      <point x="1892.0" y="0.0" type="line"/>
      <point x="3006.0" y="0.0" type="line"/>
      <point x="3006.0" y="360.0" type="line"/>
      <point x="2438.0" y="360.0" type="line"/>
      <point x="2438.0" y="288.0" type="line"/>
      <point x="2996.0" y="800.0" type="line"/>
      <point x="2996.0" y="1100.0" type="line"/>
      <point x="1902.0" y="1100.0" type="line"/>
      <point x="1902.0" y="740.0" type="line"/>
      <point x="2450.0" y="740.0" type="line"/>
      <point x="2450.0" y="812.0" type="line"/>
      <point x="1892.0" y="300.0" type="line"/>
    </contour>
  </outline>
</glyph>
<glyph name="Aringacute" format="2">
  <advance width="1760.0"/>
  <unicode hex="01FA"/>
  <anchor x="878.0" y="1520.0" name="_top"/>
  <anchor x="880.0" y="0.0" name="bottom"/>
  <anchor x="1744.0" y="0.0" name="ogonek"/>
  <anchor x="878.0" y="1520.0" name="top"/>
  <outline>
    <contour>
      <point x="16.0" y="0.0" type="line"/>
      <point x="476.0" y="0.0" type="line"/>
      <point x="898.0" y="1284.0" type="line"/>
      <point x="858.0" y="1284.0" type="line"/>
      <point x="1280.0" y="0.0" type="line"/>
      <point x="1744.0" y="0.0" type="line"/>
      <point x="1224.0" y="1480.0" type="line"/>
      <point x="536.0" y="1480.0" type="line"/>
    </contour>
    <contour>
      <point x="500.0" y="334.0" type="line"/>
      <point x="1256.0" y="334.0" type="line"/>
      <point x="1148.0" y="684.0" type="line"/>
      <point x="610.0" y="684.0" type="line"/>
    </contour>
    <contour>
      <point x="878.0" y="1570.0" type="curve" smooth="yes"/>
      <point x="1010.0" y="1570.0"/>
      <point x="1106.0" y="1662.0"/>
      <point x="1106.0" y="1790.0" type="curve" smooth="yes"/>
      <point x="1106.0" y="1918.0"/>
      <point x="1010.0" y="2010.0"/>
      <point x="878.0" y="2010.0" type="curve" smooth="yes"/>
      <point x="746.0" y="2010.0"/>
      <point x="650.0" y="1918.0"/>
      <point x="650.0" y="1790.0" type="curve" smooth="yes"/>
      <point x="650.0" y="1662.0"/>
      <point x="746.0" y="1570.0"/>
    </contour>
    <contour>
      <point x="878.0" y="1708.0" type="curve" smooth="yes"/>
      <point x="832.0" y="1708.0"/>
      <point x="800.0" y="1740.0"/>
      <point x="800.0" y="1790.0" type="curve" smooth="yes"/>
      <point x="800.0" y="1840.0"/>
      <point x="832.0" y="1872.0"/>
      <point x="878.0" y="1872.0" type="curve" smooth="yes"/>
      <point x="924.0" y="1872.0"/>
      <point x="956.0" y="1840.0"/>
      <point x="956.0" y="1790.0" type="curve" smooth="yes"/>
      <point x="956.0" y="1740.0"/>
      <point x="924.0" y="1708.0"/>
    </contour>
    <contour>
      <point x="1040.0" y="1844.0" type="line"/>
      <point x="1292.0" y="2136.0" type="line"/>
      <point x="996.0" y="2136.0" type="line"/>
      <point x="860.0" y="1958.0" type="line"/>
    </contour>
  </outline>
</glyph>
<glyph name="Adblgrave" format="2">
  <advance width="1760.0"/>
  <unicode hex="0200"/>
  <anchor x="878.0" y="1520.0" name="_top"/>
  <anchor x="880.0" y="0.0" name="bottom"/>
  <anchor x="1744.0" y="0.0" name="ogonek"/>
  <anchor x="878.0" y="1520.0" name="top"/>
  <outline>
    <contour>
      <point x="16.0" y="0.0" type="line"/>
      <point x="476.0" y="0.0" type="line"/>
      <point x="898.0" y="1284.0" type="line"/>
      <point x="858.0" y="1284.0" type="line"/>
      <point x="1280.0" y="0.0" type="line"/>
      <point x="1744.0" y="0.0" type="line"/>
      <point x="1224.0" y="1480.0" type="line"/>
      <point x="536.0" y="1480.0" type="line"/>
    </contour>
    <contour>
      <point x="500.0" y="334.0" type="line"/>
      <point x="1256.0" y="334.0" type="line"/>
      <point x="1148.0" y="684.0" type="line"/>
      <point x="610.0" y="684.0" type="line"/>
    </contour>
    <contour>
      <point x="952.0" y="1586.0" type="line"/>
      <point x="1276.0" y="1586.0" type="line"/>
      <point x="1112.0" y="1902.0" type="line"/>
      <point x="764.0" y="1902.0" type="line"/>
    </contour>
    <contour>
      <point x="480.0" y="1586.0" type="line"/>
      <point x="804.0" y="1586.0" type="line"/>
      <point x="640.0" y="1902.0" type="line"/>
      <point x="292.0" y="1902.0" type="line"/>
    </contour>
  </outline>
</glyph>
<glyph name="Idblgrave" format="2">
  <advance width="736.0"/>
  <unicode hex="0208"/>
  <anchor x="368.0" y="1520.0" name="_top"/>
  <anchor x="366.0" y="0.0" name="bottom"/>
  <anchor x="606.0" y="0.0" name="ogonek"/>
  <anchor x="368.0" y="1520.0" name="top"/>
  <outline>
    <contour>
      <point x="130.0" y="0.0" type="line"/>
      <point x="606.0" y="0.0" type="line"/>
      <point x="606.0" y="1480.0" type="line"/>
      <point x="130.0" y="1480.0" type="line"/>
    </contour>
    <contour>
      <point x="442.0" y="1586.0" type="line"/>
      <point x="766.0" y="1586.0" type="line"/>
      <point x="602.0" y="1902.0" type="line"/>
      <point x="254.0" y="1902.0" type="line"/>
    </contour>
    <contour>
      <point x="-30.0" y="1586.0" type="line"/>
      <point x="294.0" y="1586.0" type="line"/>
      <point x="130.0" y="1902.0" type="line"/>
      <point x="-218.0" y="1902.0" type="line"/>
    </contour>
  </outline>
</glyph>
<glyph name="iinvertedbreve" format="2">
  <advance width="696.0"/>
  <unicode hex="020B"/>
  <anchor x="348.0" y="1200.0" name="_top"/>
  <anchor x="348.0" y="0.0" name="bottom"/>
  <anchor x="580.0" y="0.0" name="ogonek"/>
  <anchor x="348.0" y="1200.0" name="top"/>
  <outline>
    <contour>
      <point x="116.0" y="0.0" type="line"/>
      <point x="580.0" y="0.0" type="line"/>
      <point x="580.0" y="1100.0" type="line"/>
      <point x="116.0" y="1100.0" type="line"/>
    </contour>
    <contour>
      <point x="-112.0" y="1248.0" type="curve"/>
      <point x="158.0" y="1248.0" type="line"/>
      <point x="170.0" y="1346.0"/>
      <point x="226.0" y="1402.0"/>
      <point x="348.0" y="1402.0" type="curve" smooth="yes"/>
      <point x="470.0" y="1402.0"/>
      <point x="526.0" y="1346.0"/>
      <point x="538.0" y="1248.0" type="curve"/>
      <point x="808.0" y="1248.0" type="line"/>
      <point x="794.0" y="1478.0"/>
      <point x="638.0" y="1620.0"/>
      <point x="348.0" y="1620.0" type="curve" smooth="yes"/>
      <point x="58.0" y="1620.0"/>
      <point x="-98.0" y="1478.0"/>
    </contour>
  </outline>
</glyph>
